%FSLAX25Y25*%
%MOIN*%
G70*
G01*
G75*
G04 Layer_Color=2752767*
%ADD10R,0.02500X0.04200*%
%ADD11R,0.02362X0.05906*%
%ADD12R,0.08500X0.10799*%
%ADD13R,0.07874X0.16142*%
%ADD14R,0.06299X0.12598*%
%ADD15R,0.20472X0.19685*%
%ADD16R,0.03000X0.05000*%
%ADD17R,0.06000X0.05000*%
%ADD18R,0.10000X0.06500*%
%ADD19R,0.04000X0.01500*%
%ADD20R,0.01100X0.05800*%
%ADD21R,0.25197X0.14173*%
%ADD22R,0.03347X0.03150*%
%ADD23R,0.03150X0.03347*%
%ADD24R,0.05512X0.04331*%
%ADD25R,0.04331X0.10236*%
%ADD26R,0.10236X0.04331*%
%ADD27C,0.01000*%
%ADD28C,0.02000*%
%ADD29C,0.10000*%
%ADD30C,0.06890*%
%ADD31R,0.06890X0.06890*%
%ADD32C,0.02500*%
%ADD33R,0.01000X0.01000*%
%ADD34R,0.07874X0.03937*%
%ADD35R,0.05906X0.13780*%
%ADD36R,0.03937X0.03740*%
%ADD37R,0.01000X0.01000*%
%ADD38R,0.06890X0.04331*%
%ADD39C,0.00984*%
%ADD40C,0.00787*%
%ADD41C,0.00700*%
%ADD42C,0.00600*%
%ADD43C,0.00300*%
%ADD44R,0.02000X0.16400*%
%ADD45R,0.20600X0.19813*%
%ADD46R,0.03300X0.05300*%
%ADD47R,0.02900X0.04600*%
%ADD48R,0.02762X0.06306*%
%ADD49R,0.08900X0.11199*%
%ADD50R,0.08274X0.16542*%
%ADD51R,0.06699X0.12998*%
%ADD52R,0.06400X0.05400*%
%ADD53R,0.10400X0.06900*%
%ADD54R,0.04400X0.01900*%
%ADD55R,0.01500X0.06200*%
%ADD56R,0.25597X0.14573*%
%ADD57R,0.03747X0.03550*%
%ADD58R,0.03550X0.03747*%
%ADD59R,0.05912X0.04731*%
%ADD60R,0.04731X0.10636*%
%ADD61R,0.10636X0.04731*%
%ADD62C,0.07290*%
%ADD63R,0.07290X0.07290*%
%ADD64R,0.08200X0.04263*%
%ADD65R,0.06306X0.14179*%
%ADD66R,0.04337X0.04140*%
%ADD67R,0.07290X0.04731*%
%ADD68R,0.08137X0.04200*%
%ADD69C,0.00500*%
%ADD70C,0.00110*%
%ADD71C,0.00394*%
%ADD72C,0.00400*%
%ADD73C,0.00098*%
%ADD74C,0.00667*%
%ADD75C,0.00100*%
%ADD76C,0.01600*%
%ADD77C,0.00800*%
D27*
X275000Y215998D02*
Y210000D01*
X277999D01*
X278999Y211000D01*
Y214998D01*
X277999Y215998D01*
X275000D01*
X280998Y213999D02*
Y210000D01*
Y211999D01*
X281998Y212999D01*
X282997Y213999D01*
X283997D01*
X286996Y210000D02*
X288996D01*
X287996D01*
Y213999D01*
X286996D01*
X291995Y210000D02*
X293994D01*
X292994D01*
Y215998D01*
X291995D01*
X296993Y210000D02*
X298992D01*
X297993D01*
Y215998D01*
X296993D01*
X307989D02*
X311988D01*
X309989D01*
Y210000D01*
X314987Y213999D02*
X316986D01*
X317986Y212999D01*
Y210000D01*
X314987D01*
X313987Y211000D01*
X314987Y211999D01*
X317986D01*
X319985Y215998D02*
Y210000D01*
X322985D01*
X323984Y211000D01*
Y211999D01*
Y212999D01*
X322985Y213999D01*
X319985D01*
X325984Y210000D02*
X327983D01*
X326983D01*
Y215998D01*
X325984D01*
X333981Y210000D02*
X331982D01*
X330982Y211000D01*
Y212999D01*
X331982Y213999D01*
X333981D01*
X334981Y212999D01*
Y211999D01*
X330982D01*
X323586Y148600D02*
X319588D01*
X323586Y152599D01*
Y153598D01*
X322587Y154598D01*
X320587D01*
X319588Y153598D01*
X325586Y154598D02*
X329584D01*
Y153598D01*
X325586Y149600D01*
Y148600D01*
X389169D02*
X391168D01*
X390169D01*
Y154598D01*
X389169Y153598D01*
X394167D02*
X395167Y154598D01*
X397166D01*
X398166Y153598D01*
Y152599D01*
X397166Y151599D01*
X396167D01*
X397166D01*
X398166Y150599D01*
Y149600D01*
X397166Y148600D01*
X395167D01*
X394167Y149600D01*
X400165Y148600D02*
Y152599D01*
X401165D01*
X402165Y151599D01*
Y148600D01*
Y151599D01*
X403164Y152599D01*
X404164Y151599D01*
Y148600D01*
X406163D02*
X408163D01*
X407163D01*
Y152599D01*
X406163D01*
X411162Y148600D02*
X413161D01*
X412161D01*
Y154598D01*
X411162D01*
X424158Y148600D02*
X422158Y150599D01*
Y152599D01*
X424158Y154598D01*
X427157Y153598D02*
X428156Y154598D01*
X430156D01*
X431155Y153598D01*
Y149600D01*
X430156Y148600D01*
X428156D01*
X427157Y149600D01*
Y153598D01*
X433155Y148600D02*
Y149600D01*
X434154D01*
Y148600D01*
X433155D01*
X438153Y153598D02*
X439153Y154598D01*
X441152D01*
X442152Y153598D01*
Y152599D01*
X441152Y151599D01*
X440152D01*
X441152D01*
X442152Y150599D01*
Y149600D01*
X441152Y148600D01*
X439153D01*
X438153Y149600D01*
X444151Y153598D02*
X445151Y154598D01*
X447150D01*
X448150Y153598D01*
Y152599D01*
X447150Y151599D01*
X446150D01*
X447150D01*
X448150Y150599D01*
Y149600D01*
X447150Y148600D01*
X445151D01*
X444151Y149600D01*
X450149Y153598D02*
X451149Y154598D01*
X453148D01*
X454148Y153598D01*
Y149600D01*
X453148Y148600D01*
X451149D01*
X450149Y149600D01*
Y153598D01*
X460146Y148600D02*
X456147D01*
X460146Y152599D01*
Y153598D01*
X459146Y154598D01*
X457147D01*
X456147Y153598D01*
X462145Y148600D02*
Y152599D01*
X463145D01*
X464145Y151599D01*
Y148600D01*
Y151599D01*
X465144Y152599D01*
X466144Y151599D01*
Y148600D01*
X468143D02*
Y152599D01*
X469143D01*
X470143Y151599D01*
Y148600D01*
Y151599D01*
X471142Y152599D01*
X472142Y151599D01*
Y148600D01*
X474141D02*
X476141Y150599D01*
Y152599D01*
X474141Y154598D01*
X523529Y148600D02*
Y154598D01*
X526528D01*
X527528Y153598D01*
Y151599D01*
X526528Y150599D01*
X523529D01*
X529527Y154598D02*
X533526D01*
X531527D01*
Y148600D01*
X535526Y154598D02*
Y148600D01*
Y151599D01*
X539524D01*
Y154598D01*
Y148600D01*
X573917D02*
Y154598D01*
X576916D01*
X577916Y153598D01*
Y151599D01*
X576916Y150599D01*
X573917D01*
X575916D02*
X577916Y148600D01*
X580915D02*
X582914D01*
X583914Y149600D01*
Y151599D01*
X582914Y152599D01*
X580915D01*
X579915Y151599D01*
Y149600D01*
X580915Y148600D01*
X585913Y152599D02*
Y149600D01*
X586913Y148600D01*
X589912D01*
Y152599D01*
X591911Y148600D02*
Y152599D01*
X594910D01*
X595910Y151599D01*
Y148600D01*
X601908Y154598D02*
Y148600D01*
X598909D01*
X597909Y149600D01*
Y151599D01*
X598909Y152599D01*
X601908D01*
X319588Y141598D02*
X320587Y142598D01*
X322587D01*
X323586Y141598D01*
Y140599D01*
X322587Y139599D01*
X321587D01*
X322587D01*
X323586Y138599D01*
Y137600D01*
X322587Y136600D01*
X320587D01*
X319588Y137600D01*
X328585Y136600D02*
Y142598D01*
X325586Y139599D01*
X329584D01*
X331584Y141598D02*
X332583Y142598D01*
X334583D01*
X335582Y141598D01*
Y140599D01*
X334583Y139599D01*
X333583D01*
X334583D01*
X335582Y138599D01*
Y137600D01*
X334583Y136600D01*
X332583D01*
X331584Y137600D01*
X389169Y136600D02*
X391168D01*
X390169D01*
Y142598D01*
X389169Y141598D01*
X398166Y142598D02*
X394167D01*
Y139599D01*
X396167Y140599D01*
X397166D01*
X398166Y139599D01*
Y137600D01*
X397166Y136600D01*
X395167D01*
X394167Y137600D01*
X400165Y136600D02*
Y140599D01*
X401165D01*
X402165Y139599D01*
Y136600D01*
Y139599D01*
X403164Y140599D01*
X404164Y139599D01*
Y136600D01*
X406163D02*
X408163D01*
X407163D01*
Y140599D01*
X406163D01*
X411162Y136600D02*
X413161D01*
X412161D01*
Y142598D01*
X411162D01*
X424158Y136600D02*
X422158Y138599D01*
Y140599D01*
X424158Y142598D01*
X427157Y141598D02*
X428156Y142598D01*
X430156D01*
X431155Y141598D01*
Y137600D01*
X430156Y136600D01*
X428156D01*
X427157Y137600D01*
Y141598D01*
X433155Y136600D02*
Y137600D01*
X434154D01*
Y136600D01*
X433155D01*
X438153Y141598D02*
X439153Y142598D01*
X441152D01*
X442152Y141598D01*
Y140599D01*
X441152Y139599D01*
X440152D01*
X441152D01*
X442152Y138599D01*
Y137600D01*
X441152Y136600D01*
X439153D01*
X438153Y137600D01*
X444151Y141598D02*
X445151Y142598D01*
X447150D01*
X448150Y141598D01*
Y140599D01*
X447150Y139599D01*
X448150Y138599D01*
Y137600D01*
X447150Y136600D01*
X445151D01*
X444151Y137600D01*
Y138599D01*
X445151Y139599D01*
X444151Y140599D01*
Y141598D01*
X445151Y139599D02*
X447150D01*
X450149Y136600D02*
X452148D01*
X451149D01*
Y142598D01*
X450149Y141598D01*
X455148Y136600D02*
Y140599D01*
X456147D01*
X457147Y139599D01*
Y136600D01*
Y139599D01*
X458147Y140599D01*
X459146Y139599D01*
Y136600D01*
X461146D02*
Y140599D01*
X462145D01*
X463145Y139599D01*
Y136600D01*
Y139599D01*
X464145Y140599D01*
X465144Y139599D01*
Y136600D01*
X467144D02*
X469143Y138599D01*
Y140599D01*
X467144Y142598D01*
X523529Y136600D02*
Y142598D01*
X526528D01*
X527528Y141598D01*
Y139599D01*
X526528Y138599D01*
X523529D01*
X529527Y142598D02*
X533526D01*
X531527D01*
Y136600D01*
X535526Y142598D02*
Y136600D01*
Y139599D01*
X539524D01*
Y142598D01*
Y136600D01*
X573917D02*
Y142598D01*
X576916D01*
X577916Y141598D01*
Y139599D01*
X576916Y138599D01*
X573917D01*
X575916D02*
X577916Y136600D01*
X580915D02*
X582914D01*
X583914Y137600D01*
Y139599D01*
X582914Y140599D01*
X580915D01*
X579915Y139599D01*
Y137600D01*
X580915Y136600D01*
X585913Y140599D02*
Y137600D01*
X586913Y136600D01*
X589912D01*
Y140599D01*
X591911Y136600D02*
Y140599D01*
X594910D01*
X595910Y139599D01*
Y136600D01*
X601908Y142598D02*
Y136600D01*
X598909D01*
X597909Y137600D01*
Y139599D01*
X598909Y140599D01*
X601908D01*
X323586Y130598D02*
X319588D01*
Y127599D01*
X321587Y128599D01*
X322587D01*
X323586Y127599D01*
Y125600D01*
X322587Y124600D01*
X320587D01*
X319588Y125600D01*
X392168Y124600D02*
Y130598D01*
X389169Y127599D01*
X393168D01*
X395167Y125600D02*
X396167Y124600D01*
X398166D01*
X399166Y125600D01*
Y129598D01*
X398166Y130598D01*
X396167D01*
X395167Y129598D01*
Y128599D01*
X396167Y127599D01*
X399166D01*
X401165Y124600D02*
Y125600D01*
X402165D01*
Y124600D01*
X401165D01*
X410162D02*
X406163D01*
X410162Y128599D01*
Y129598D01*
X409163Y130598D01*
X407163D01*
X406163Y129598D01*
X412161Y124600D02*
X414161D01*
X413161D01*
Y130598D01*
X412161Y129598D01*
X417160D02*
X418160Y130598D01*
X420159D01*
X421159Y129598D01*
Y128599D01*
X420159Y127599D01*
X419159D01*
X420159D01*
X421159Y126599D01*
Y125600D01*
X420159Y124600D01*
X418160D01*
X417160Y125600D01*
X423158Y124600D02*
Y128599D01*
X424158D01*
X425157Y127599D01*
Y124600D01*
Y127599D01*
X426157Y128599D01*
X427157Y127599D01*
Y124600D01*
X429156D02*
X431155D01*
X430156D01*
Y128599D01*
X429156D01*
X434154Y124600D02*
X436154D01*
X435154D01*
Y130598D01*
X434154D01*
X447150Y124600D02*
X445151Y126599D01*
Y128599D01*
X447150Y130598D01*
X450149Y124600D02*
X452148D01*
X451149D01*
Y130598D01*
X450149Y129598D01*
X455148Y124600D02*
Y125600D01*
X456147D01*
Y124600D01*
X455148D01*
X464145D02*
X460146D01*
X464145Y128599D01*
Y129598D01*
X463145Y130598D01*
X461146D01*
X460146Y129598D01*
X470143Y130598D02*
X466144D01*
Y127599D01*
X468143Y128599D01*
X469143D01*
X470143Y127599D01*
Y125600D01*
X469143Y124600D01*
X467144D01*
X466144Y125600D01*
X472142Y124600D02*
Y128599D01*
X473142D01*
X474141Y127599D01*
Y124600D01*
Y127599D01*
X475141Y128599D01*
X476141Y127599D01*
Y124600D01*
X478140D02*
Y128599D01*
X479140D01*
X480139Y127599D01*
Y124600D01*
Y127599D01*
X481139Y128599D01*
X482139Y127599D01*
Y124600D01*
X484138D02*
X486137Y126599D01*
Y128599D01*
X484138Y130598D01*
X523529Y124600D02*
Y130598D01*
X526528D01*
X527528Y129598D01*
Y127599D01*
X526528Y126599D01*
X523529D01*
X529527Y130598D02*
X533526D01*
X531527D01*
Y124600D01*
X535526Y130598D02*
Y124600D01*
Y127599D01*
X539524D01*
Y130598D01*
Y124600D01*
X573917D02*
Y130598D01*
X576916D01*
X577916Y129598D01*
Y127599D01*
X576916Y126599D01*
X573917D01*
X575916D02*
X577916Y124600D01*
X580915D02*
X582914D01*
X583914Y125600D01*
Y127599D01*
X582914Y128599D01*
X580915D01*
X579915Y127599D01*
Y125600D01*
X580915Y124600D01*
X585913Y128599D02*
Y125600D01*
X586913Y124600D01*
X589912D01*
Y128599D01*
X591911Y124600D02*
Y128599D01*
X594910D01*
X595910Y127599D01*
Y124600D01*
X601908Y130598D02*
Y124600D01*
X598909D01*
X597909Y125600D01*
Y127599D01*
X598909Y128599D01*
X601908D01*
X319588Y117598D02*
X320587Y118598D01*
X322587D01*
X323586Y117598D01*
Y116599D01*
X322587Y115599D01*
X321587D01*
X322587D01*
X323586Y114599D01*
Y113600D01*
X322587Y112600D01*
X320587D01*
X319588Y113600D01*
X325586Y118598D02*
X329584D01*
Y117598D01*
X325586Y113600D01*
Y112600D01*
X335582Y118598D02*
X331584D01*
Y115599D01*
X333583Y116599D01*
X334583D01*
X335582Y115599D01*
Y113600D01*
X334583Y112600D01*
X332583D01*
X331584Y113600D01*
X346382Y118598D02*
X350381D01*
X348382D01*
Y112600D01*
X353380D02*
X355380D01*
X356379Y113600D01*
Y115599D01*
X355380Y116599D01*
X353380D01*
X352380Y115599D01*
Y113600D01*
X353380Y112600D01*
X359378Y117598D02*
Y116599D01*
X358379D01*
X360378D01*
X359378D01*
Y113600D01*
X360378Y112600D01*
X364377Y116599D02*
X366376D01*
X367376Y115599D01*
Y112600D01*
X364377D01*
X363377Y113600D01*
X364377Y114599D01*
X367376D01*
X369375Y112600D02*
X371374D01*
X370375D01*
Y118598D01*
X369375D01*
D69*
X60500Y211500D02*
Y215500D01*
X64500D01*
Y211500D01*
X60500D01*
X80500D02*
Y215500D01*
X84500D01*
Y211500D01*
X80500D01*
X145019D02*
Y215500D01*
X149020D01*
Y211500D01*
X145019D01*
X165020D02*
Y215500D01*
X169019D01*
Y211500D01*
X165020D01*
X125020D02*
Y215500D01*
X129019D01*
Y211500D01*
X125020D01*
X132501Y77998D02*
X130501Y81998D01*
X134501D01*
X132501Y77998D01*
Y73498D02*
X130501Y77498D01*
X134501D01*
X132501Y73498D01*
Y82498D02*
X130501Y86498D01*
X134501D01*
X132501Y82498D01*
X92501Y77998D02*
X90501Y81998D01*
X94501D01*
X92501Y77998D01*
Y73498D02*
X90501Y77498D01*
X94501D01*
X92501Y73498D01*
Y82498D02*
X90501Y86498D01*
X94501D01*
X92501Y82498D01*
X97501Y77998D02*
X95501Y81998D01*
X99501D01*
X97501Y77998D01*
Y73498D02*
X95501Y77498D01*
X99501D01*
X97501Y73498D01*
Y82498D02*
X95501Y86498D01*
X99501D01*
X97501Y82498D01*
X102501Y77998D02*
X100501Y81998D01*
X104501D01*
X102501Y77998D01*
Y73498D02*
X100501Y77498D01*
X104501D01*
X102501Y73498D01*
Y82498D02*
X100501Y86498D01*
X104501D01*
X102501Y82498D01*
X107501Y77998D02*
X105501Y81998D01*
X109501D01*
X107501Y77998D01*
Y73498D02*
X105501Y77498D01*
X109501D01*
X107501Y73498D01*
Y82498D02*
X105501Y86498D01*
X109501D01*
X107501Y82498D01*
X122501Y77998D02*
X120501Y81998D01*
X124501D01*
X122501Y77998D01*
Y73498D02*
X120501Y77498D01*
X124501D01*
X122501Y73498D01*
Y82498D02*
X120501Y86498D01*
X124501D01*
X122501Y82498D01*
X117501Y77998D02*
X115501Y81998D01*
X119501D01*
X117501Y77998D01*
Y73498D02*
X115501Y77498D01*
X119501D01*
X117501Y73498D01*
Y82498D02*
X115501Y86498D01*
X119501D01*
X117501Y82498D01*
X112500Y78000D02*
X110500Y82000D01*
X114500D01*
X112500Y78000D01*
Y73500D02*
X110500Y77500D01*
X114500D01*
X112500Y73500D01*
Y82500D02*
X110500Y86500D01*
X114500D01*
X112500Y82500D01*
X127501Y82498D02*
X125501Y86498D01*
X129501D01*
X127501Y82498D01*
Y73498D02*
X125501Y77498D01*
X129501D01*
X127501Y73498D01*
Y77998D02*
X125501Y81998D01*
X129501D01*
X127501Y77998D01*
X271600Y149200D02*
X269200Y154000D01*
X274000D01*
X271600Y149200D01*
X269200Y125200D02*
Y130000D01*
X274000D01*
Y125200D01*
X269200D01*
D74*
X51500Y69500D02*
G03*
X51500Y69500I-2000J0D01*
G01*
X4500Y61000D02*
G03*
X4500Y61000I-2000J0D01*
G01*
X19000D02*
G03*
X19000Y61000I-2000J0D01*
G01*
X32000Y95000D02*
G03*
X32000Y95000I-2000J0D01*
G01*
Y75000D02*
G03*
X32000Y75000I-2000J0D01*
G01*
Y85000D02*
G03*
X32000Y85000I-2000J0D01*
G01*
X26500Y65800D02*
G03*
X26500Y65800I-2000J0D01*
G01*
X212000Y12500D02*
G03*
X212000Y12500I-2000J0D01*
G01*
X202000Y22500D02*
G03*
X202000Y22500I-2000J0D01*
G01*
X192000Y12500D02*
G03*
X192000Y12500I-2000J0D01*
G01*
X157000Y3500D02*
G03*
X157000Y3500I-2000J0D01*
G01*
X153500Y113500D02*
G03*
X153500Y113500I-2000J0D01*
G01*
X6000Y128500D02*
G03*
X6000Y128500I-2000J0D01*
G01*
Y111000D02*
G03*
X6000Y111000I-2000J0D01*
G01*
X212000Y224500D02*
G03*
X212000Y224500I-2000J0D01*
G01*
X218500Y205000D02*
G03*
X218500Y205000I-2000J0D01*
G01*
X212000Y195000D02*
G03*
X212000Y195000I-2000J0D01*
G01*
X218500Y180500D02*
G03*
X218500Y180500I-2000J0D01*
G01*
Y165000D02*
G03*
X218500Y165000I-2000J0D01*
G01*
X212000Y60000D02*
G03*
X212000Y60000I-2000J0D01*
G01*
Y40000D02*
G03*
X212000Y40000I-2000J0D01*
G01*
X202000Y12500D02*
G03*
X202000Y12500I-2000J0D01*
G01*
X212000Y3500D02*
G03*
X212000Y3500I-2000J0D01*
G01*
X202000Y224500D02*
G03*
X202000Y224500I-2000J0D01*
G01*
X208000Y205000D02*
G03*
X208000Y205000I-2000J0D01*
G01*
X197000Y80000D02*
G03*
X197000Y80000I-2000J0D01*
G01*
X202000Y35000D02*
G03*
X202000Y35000I-2000J0D01*
G01*
Y3500D02*
G03*
X202000Y3500I-2000J0D01*
G01*
X192000Y224500D02*
G03*
X192000Y224500I-2000J0D01*
G01*
X194500Y205000D02*
G03*
X194500Y205000I-2000J0D01*
G01*
X197000Y117500D02*
G03*
X197000Y117500I-2000J0D01*
G01*
Y105000D02*
G03*
X197000Y105000I-2000J0D01*
G01*
Y92500D02*
G03*
X197000Y92500I-2000J0D01*
G01*
Y67500D02*
G03*
X197000Y67500I-2000J0D01*
G01*
X192000Y3500D02*
G03*
X192000Y3500I-2000J0D01*
G01*
X182000D02*
G03*
X182000Y3500I-2000J0D01*
G01*
X170500D02*
G03*
X170500Y3500I-2000J0D01*
G01*
X169500Y105000D02*
G03*
X169500Y105000I-2000J0D01*
G01*
X162000Y95000D02*
G03*
X162000Y95000I-2000J0D01*
G01*
Y75000D02*
G03*
X162000Y75000I-2000J0D01*
G01*
X152000Y95000D02*
G03*
X152000Y95000I-2000J0D01*
G01*
X157000Y85000D02*
G03*
X157000Y85000I-2000J0D01*
G01*
X152000Y75000D02*
G03*
X152000Y75000I-2000J0D01*
G01*
X157000Y65000D02*
G03*
X157000Y65000I-2000J0D01*
G01*
X152000Y56500D02*
G03*
X152000Y56500I-2000J0D01*
G01*
X144500Y3500D02*
G03*
X144500Y3500I-2000J0D01*
G01*
X147000Y85000D02*
G03*
X147000Y85000I-2000J0D01*
G01*
X142000Y75000D02*
G03*
X142000Y75000I-2000J0D01*
G01*
X147000Y65000D02*
G03*
X147000Y65000I-2000J0D01*
G01*
X132000Y3500D02*
G03*
X132000Y3500I-2000J0D01*
G01*
X122000D02*
G03*
X122000Y3500I-2000J0D01*
G01*
X112000D02*
G03*
X112000Y3500I-2000J0D01*
G01*
X100500D02*
G03*
X100500Y3500I-2000J0D01*
G01*
X87500D02*
G03*
X87500Y3500I-2000J0D01*
G01*
X82500Y112000D02*
G03*
X82500Y112000I-2000J0D01*
G01*
X87000Y75000D02*
G03*
X87000Y75000I-2000J0D01*
G01*
X72000Y215000D02*
G03*
X72000Y215000I-2000J0D01*
G01*
X76500Y99500D02*
G03*
X76500Y99500I-2000J0D01*
G01*
X82000Y85000D02*
G03*
X82000Y85000I-2000J0D01*
G01*
X72000Y3500D02*
G03*
X72000Y3500I-2000J0D01*
G01*
X64500Y204500D02*
G03*
X64500Y204500I-2000J0D01*
G01*
X67000Y105000D02*
G03*
X67000Y105000I-2000J0D01*
G01*
X62000Y95000D02*
G03*
X62000Y95000I-2000J0D01*
G01*
X72000Y85000D02*
G03*
X72000Y85000I-2000J0D01*
G01*
X60500Y3500D02*
G03*
X60500Y3500I-2000J0D01*
G01*
X52500Y215000D02*
G03*
X52500Y215000I-2000J0D01*
G01*
Y204500D02*
G03*
X52500Y204500I-2000J0D01*
G01*
X57000Y105000D02*
G03*
X57000Y105000I-2000J0D01*
G01*
X50500Y79500D02*
G03*
X50500Y79500I-2000J0D01*
G01*
X42000Y215000D02*
G03*
X42000Y215000I-2000J0D01*
G01*
Y204500D02*
G03*
X42000Y204500I-2000J0D01*
G01*
Y155000D02*
G03*
X42000Y155000I-2000J0D01*
G01*
X47000Y145000D02*
G03*
X47000Y145000I-2000J0D01*
G01*
X40500Y135000D02*
G03*
X40500Y135000I-2000J0D01*
G01*
X30500Y204500D02*
G03*
X30500Y204500I-2000J0D01*
G01*
X32000Y155000D02*
G03*
X32000Y155000I-2000J0D01*
G01*
X37000Y145000D02*
G03*
X37000Y145000I-2000J0D01*
G01*
X32000Y135000D02*
G03*
X32000Y135000I-2000J0D01*
G01*
X37000Y128000D02*
G03*
X37000Y128000I-2000J0D01*
G01*
X33500Y3500D02*
G03*
X33500Y3500I-2000J0D01*
G01*
X23500Y204500D02*
G03*
X23500Y204500I-2000J0D01*
G01*
X22000Y155000D02*
G03*
X22000Y155000I-2000J0D01*
G01*
X27000Y145000D02*
G03*
X27000Y145000I-2000J0D01*
G01*
X15000Y213500D02*
G03*
X15000Y213500I-2000J0D01*
G01*
Y204500D02*
G03*
X15000Y204500I-2000J0D01*
G01*
Y195000D02*
G03*
X15000Y195000I-2000J0D01*
G01*
Y185000D02*
G03*
X15000Y185000I-2000J0D01*
G01*
Y175000D02*
G03*
X15000Y175000I-2000J0D01*
G01*
Y165000D02*
G03*
X15000Y165000I-2000J0D01*
G01*
Y155000D02*
G03*
X15000Y155000I-2000J0D01*
G01*
Y145000D02*
G03*
X15000Y145000I-2000J0D01*
G01*
X7000Y3500D02*
G03*
X7000Y3500I-2000J0D01*
G01*
X163000Y206500D02*
G03*
X163000Y206500I-2000J0D01*
G01*
X178500Y217000D02*
G03*
X178500Y217000I-2000J0D01*
G01*
X173000Y224500D02*
G03*
X173000Y224500I-2000J0D01*
G01*
X161500D02*
G03*
X161500Y224500I-2000J0D01*
G01*
X157000Y211000D02*
G03*
X157000Y211000I-2000J0D01*
G01*
X154500Y221000D02*
G03*
X154500Y221000I-2000J0D01*
G01*
X142000D02*
G03*
X142000Y221000I-2000J0D01*
G01*
X136000Y211000D02*
G03*
X136000Y211000I-2000J0D01*
G01*
X132000Y221000D02*
G03*
X132000Y221000I-2000J0D01*
G01*
X119500Y220000D02*
G03*
X119500Y220000I-2000J0D01*
G01*
X111500Y135500D02*
G03*
X111500Y135500I-2000J0D01*
G01*
X167500Y133000D02*
G03*
X167500Y133000I-2000J0D01*
G01*
X192500Y157000D02*
G03*
X192500Y157000I-2000J0D01*
G01*
X190500Y165000D02*
G03*
X190500Y165000I-2000J0D01*
G01*
Y174500D02*
G03*
X190500Y174500I-2000J0D01*
G01*
X160000Y157000D02*
G03*
X160000Y157000I-2000J0D01*
G01*
X49500Y135000D02*
G03*
X49500Y135000I-2000J0D01*
G01*
X72000Y134500D02*
G03*
X72000Y134500I-2000J0D01*
G01*
X55500Y136000D02*
G03*
X55500Y136000I-2000J0D01*
G01*
X74000Y146000D02*
G03*
X74000Y146000I-2000J0D01*
G01*
Y152000D02*
G03*
X74000Y152000I-2000J0D01*
G01*
X104000Y156500D02*
G03*
X104000Y156500I-2000J0D01*
G01*
X57500Y116000D02*
G03*
X57500Y116000I-2000J0D01*
G01*
X95500Y120500D02*
G03*
X95500Y120500I-2000J0D01*
G01*
X162500Y39500D02*
G03*
X162500Y39500I-2000J0D01*
G01*
X141500D02*
G03*
X141500Y39500I-2000J0D01*
G01*
X144500Y9500D02*
G03*
X144500Y9500I-2000J0D01*
G01*
X149500Y14500D02*
G03*
X149500Y14500I-2000J0D01*
G01*
X147000Y12000D02*
G03*
X147000Y12000I-2000J0D01*
G01*
X172000Y17000D02*
G03*
X172000Y17000I-2000J0D01*
G01*
X97500Y123500D02*
G03*
X97500Y123500I-2000J0D01*
G01*
X202000Y45000D02*
G03*
X202000Y45000I-2000J0D01*
G01*
X189000Y19500D02*
G03*
X189000Y19500I-2000J0D01*
G01*
X124000D02*
G03*
X124000Y19500I-2000J0D01*
G01*
X44500Y162500D02*
G03*
X44500Y162500I-2000J0D01*
G01*
X37000D02*
G03*
X37000Y162500I-2000J0D01*
G01*
X44500Y170000D02*
G03*
X44500Y170000I-2000J0D01*
G01*
X37000D02*
G03*
X37000Y170000I-2000J0D01*
G01*
X44500Y177500D02*
G03*
X44500Y177500I-2000J0D01*
G01*
X37000D02*
G03*
X37000Y177500I-2000J0D01*
G01*
X44500Y185000D02*
G03*
X44500Y185000I-2000J0D01*
G01*
X37000D02*
G03*
X37000Y185000I-2000J0D01*
G01*
X44500Y192500D02*
G03*
X44500Y192500I-2000J0D01*
G01*
X37000D02*
G03*
X37000Y192500I-2000J0D01*
G01*
X174500Y143000D02*
G03*
X174500Y143000I-2000J0D01*
G01*
X177000Y141000D02*
G03*
X177000Y141000I-2000J0D01*
G01*
X179500Y143000D02*
G03*
X179500Y143000I-2000J0D01*
G01*
X172000Y141000D02*
G03*
X172000Y141000I-2000J0D01*
G01*
X56000Y131500D02*
G03*
X56000Y131500I-2000J0D01*
G01*
X104500Y106000D02*
G03*
X104500Y106000I-2000J0D01*
G01*
X119119Y127500D02*
G03*
X119119Y127500I-2000J0D01*
G01*
X114500Y112500D02*
G03*
X114500Y112500I-2000J0D01*
G01*
X126000D02*
G03*
X126000Y112500I-2000J0D01*
G01*
X114000Y127500D02*
G03*
X114000Y127500I-2000J0D01*
G01*
X116000Y141000D02*
G03*
X116000Y141000I-2000J0D01*
G01*
X123500Y143000D02*
G03*
X123500Y143000I-2000J0D01*
G01*
X121000Y141000D02*
G03*
X121000Y141000I-2000J0D01*
G01*
X126000D02*
G03*
X126000Y141000I-2000J0D01*
G01*
X118500Y143000D02*
G03*
X118500Y143000I-2000J0D01*
G01*
X58500D02*
G03*
X58500Y143000I-2000J0D01*
G01*
X66000Y141000D02*
G03*
X66000Y141000I-2000J0D01*
G01*
X61000D02*
G03*
X61000Y141000I-2000J0D01*
G01*
X63500Y143000D02*
G03*
X63500Y143000I-2000J0D01*
G01*
X134000Y131000D02*
G03*
X134000Y131000I-2000J0D01*
G01*
X100500Y14500D02*
G03*
X100500Y14500I-2000J0D01*
G01*
X98000Y12000D02*
G03*
X98000Y12000I-2000J0D01*
G01*
X179000Y115000D02*
G03*
X179000Y115000I-2000J0D01*
G01*
X176500Y105000D02*
G03*
X176500Y105000I-2000J0D01*
G01*
X174000Y95000D02*
G03*
X174000Y95000I-2000J0D01*
G01*
X179000Y24500D02*
G03*
X179000Y24500I-2000J0D01*
G01*
X176500Y27000D02*
G03*
X176500Y27000I-2000J0D01*
G01*
X174000Y29500D02*
G03*
X174000Y29500I-2000J0D01*
G01*
X171500Y32000D02*
G03*
X171500Y32000I-2000J0D01*
G01*
X169000Y34500D02*
G03*
X169000Y34500I-2000J0D01*
G01*
X171500Y85000D02*
G03*
X171500Y85000I-2000J0D01*
G01*
X169000Y75000D02*
G03*
X169000Y75000I-2000J0D01*
G01*
X166500Y37000D02*
G03*
X166500Y37000I-2000J0D01*
G01*
Y65000D02*
G03*
X166500Y65000I-2000J0D01*
G01*
X129000Y27000D02*
G03*
X129000Y27000I-2000J0D01*
G01*
X126500Y24500D02*
G03*
X126500Y24500I-2000J0D01*
G01*
X139000Y37000D02*
G03*
X139000Y37000I-2000J0D01*
G01*
X136500Y34500D02*
G03*
X136500Y34500I-2000J0D01*
G01*
X134000Y32000D02*
G03*
X134000Y32000I-2000J0D01*
G01*
X131500Y29500D02*
G03*
X131500Y29500I-2000J0D01*
G01*
X95500Y9500D02*
G03*
X95500Y9500I-2000J0D01*
G01*
X103000Y17000D02*
G03*
X103000Y17000I-2000J0D01*
G01*
X129000Y151000D02*
G03*
X129000Y151000I-2000J0D01*
G01*
X156500Y123000D02*
G03*
X156500Y123000I-2000J0D01*
G01*
X142500Y124500D02*
G03*
X142500Y124500I-2000J0D01*
G01*
X163500Y123000D02*
G03*
X163500Y123000I-2000J0D01*
G01*
X184000Y133500D02*
G03*
X184000Y133500I-2000J0D01*
G01*
X212500Y128000D02*
G03*
X212500Y128000I-2000J0D01*
G01*
X131000Y117500D02*
G03*
X131000Y117500I-2000J0D01*
G01*
X133500Y120000D02*
G03*
X133500Y120000I-2000J0D01*
G01*
X189000Y146000D02*
G03*
X189000Y146000I-2000J0D01*
G01*
Y142000D02*
G03*
X189000Y142000I-2000J0D01*
G01*
X188000Y151000D02*
G03*
X188000Y151000I-2000J0D01*
G01*
X186500Y148000D02*
G03*
X186500Y148000I-2000J0D01*
G01*
Y144000D02*
G03*
X186500Y144000I-2000J0D01*
G01*
Y140000D02*
G03*
X186500Y140000I-2000J0D01*
G01*
X138000Y150000D02*
G03*
X138000Y150000I-2000J0D01*
G01*
Y146000D02*
G03*
X138000Y146000I-2000J0D01*
G01*
X134500Y151000D02*
G03*
X134500Y151000I-2000J0D01*
G01*
Y147500D02*
G03*
X134500Y147500I-2000J0D01*
G01*
X135000Y144000D02*
G03*
X135000Y144000I-2000J0D01*
G01*
X138000Y142000D02*
G03*
X138000Y142000I-2000J0D01*
G01*
X82500Y149500D02*
G03*
X82500Y149500I-2000J0D01*
G01*
Y146000D02*
G03*
X82500Y146000I-2000J0D01*
G01*
X79500Y151000D02*
G03*
X79500Y151000I-2000J0D01*
G01*
Y147500D02*
G03*
X79500Y147500I-2000J0D01*
G01*
X80000Y144000D02*
G03*
X80000Y144000I-2000J0D01*
G01*
X82500Y142000D02*
G03*
X82500Y142000I-2000J0D01*
G01*
X110000Y127500D02*
G03*
X110000Y127500I-2000J0D01*
G01*
X55500Y174500D02*
G03*
X55500Y174500I-2000J0D01*
G01*
X60000D02*
G03*
X60000Y174500I-2000J0D01*
G01*
X64500D02*
G03*
X64500Y174500I-2000J0D01*
G01*
X69000D02*
G03*
X69000Y174500I-2000J0D01*
G01*
X73500D02*
G03*
X73500Y174500I-2000J0D01*
G01*
Y162000D02*
G03*
X73500Y162000I-2000J0D01*
G01*
X69000D02*
G03*
X69000Y162000I-2000J0D01*
G01*
X64500D02*
G03*
X64500Y162000I-2000J0D01*
G01*
X60000D02*
G03*
X60000Y162000I-2000J0D01*
G01*
X55500D02*
G03*
X55500Y162000I-2000J0D01*
G01*
X73500Y170500D02*
G03*
X73500Y170500I-2000J0D01*
G01*
X69000D02*
G03*
X69000Y170500I-2000J0D01*
G01*
X64500D02*
G03*
X64500Y170500I-2000J0D01*
G01*
X60000D02*
G03*
X60000Y170500I-2000J0D01*
G01*
X55500D02*
G03*
X55500Y170500I-2000J0D01*
G01*
X73421Y166315D02*
G03*
X73421Y166315I-2000J0D01*
G01*
X68921D02*
G03*
X68921Y166315I-2000J0D01*
G01*
X64421D02*
G03*
X64421Y166315I-2000J0D01*
G01*
X59921D02*
G03*
X59921Y166315I-2000J0D01*
G01*
X55421D02*
G03*
X55421Y166315I-2000J0D01*
G01*
X111421D02*
G03*
X111421Y166315I-2000J0D01*
G01*
X115921D02*
G03*
X115921Y166315I-2000J0D01*
G01*
X120421D02*
G03*
X120421Y166315I-2000J0D01*
G01*
X124921D02*
G03*
X124921Y166315I-2000J0D01*
G01*
X129421D02*
G03*
X129421Y166315I-2000J0D01*
G01*
X111500Y170500D02*
G03*
X111500Y170500I-2000J0D01*
G01*
X116000D02*
G03*
X116000Y170500I-2000J0D01*
G01*
X120500D02*
G03*
X120500Y170500I-2000J0D01*
G01*
X125000D02*
G03*
X125000Y170500I-2000J0D01*
G01*
X129500D02*
G03*
X129500Y170500I-2000J0D01*
G01*
X111500Y162000D02*
G03*
X111500Y162000I-2000J0D01*
G01*
X116000D02*
G03*
X116000Y162000I-2000J0D01*
G01*
X120500D02*
G03*
X120500Y162000I-2000J0D01*
G01*
X125000D02*
G03*
X125000Y162000I-2000J0D01*
G01*
X129500D02*
G03*
X129500Y162000I-2000J0D01*
G01*
Y174500D02*
G03*
X129500Y174500I-2000J0D01*
G01*
X125000D02*
G03*
X125000Y174500I-2000J0D01*
G01*
X120500D02*
G03*
X120500Y174500I-2000J0D01*
G01*
X116000D02*
G03*
X116000Y174500I-2000J0D01*
G01*
X111500D02*
G03*
X111500Y174500I-2000J0D01*
G01*
X167421Y166315D02*
G03*
X167421Y166315I-2000J0D01*
G01*
X171921D02*
G03*
X171921Y166315I-2000J0D01*
G01*
X176421D02*
G03*
X176421Y166315I-2000J0D01*
G01*
X180921D02*
G03*
X180921Y166315I-2000J0D01*
G01*
X185421D02*
G03*
X185421Y166315I-2000J0D01*
G01*
X167500Y170500D02*
G03*
X167500Y170500I-2000J0D01*
G01*
X172000D02*
G03*
X172000Y170500I-2000J0D01*
G01*
X176500D02*
G03*
X176500Y170500I-2000J0D01*
G01*
X181000D02*
G03*
X181000Y170500I-2000J0D01*
G01*
X185500D02*
G03*
X185500Y170500I-2000J0D01*
G01*
X167500Y162000D02*
G03*
X167500Y162000I-2000J0D01*
G01*
X172000D02*
G03*
X172000Y162000I-2000J0D01*
G01*
X176500D02*
G03*
X176500Y162000I-2000J0D01*
G01*
X181000D02*
G03*
X181000Y162000I-2000J0D01*
G01*
X185500D02*
G03*
X185500Y162000I-2000J0D01*
G01*
Y174500D02*
G03*
X185500Y174500I-2000J0D01*
G01*
X181000D02*
G03*
X181000Y174500I-2000J0D01*
G01*
X176500D02*
G03*
X176500Y174500I-2000J0D01*
G01*
X172000D02*
G03*
X172000Y174500I-2000J0D01*
G01*
X167500D02*
G03*
X167500Y174500I-2000J0D01*
G01*
X129000Y135500D02*
G03*
X129000Y135500I-2000J0D01*
G01*
X134000Y127500D02*
G03*
X134000Y127500I-2000J0D01*
G01*
X139500Y125500D02*
G03*
X139500Y125500I-2000J0D01*
G01*
X128500Y123000D02*
G03*
X128500Y123000I-2000J0D01*
G01*
X186500Y14500D02*
G03*
X186500Y14500I-2000J0D01*
G01*
X184000Y12000D02*
G03*
X184000Y12000I-2000J0D01*
G01*
X181500Y9500D02*
G03*
X181500Y9500I-2000J0D01*
G01*
X202000Y105000D02*
G03*
X202000Y105000I-2000J0D01*
G01*
Y65000D02*
G03*
X202000Y65000I-2000J0D01*
G01*
Y55000D02*
G03*
X202000Y55000I-2000J0D01*
G01*
X125000Y127500D02*
G03*
X125000Y127500I-2000J0D01*
G01*
X136500Y51500D02*
G03*
X136500Y51500I-2000J0D01*
G01*
X138500Y57000D02*
G03*
X138500Y57000I-2000J0D01*
G01*
X135500Y58000D02*
G03*
X135500Y58000I-2000J0D01*
G01*
X161500Y47000D02*
G03*
X161500Y47000I-2000J0D01*
G01*
X204000Y130500D02*
G03*
X204000Y130500I-2000J0D01*
G01*
X198000D02*
G03*
X198000Y130500I-2000J0D01*
G01*
X66500Y47000D02*
G03*
X66500Y47000I-2000J0D01*
G01*
X63000D02*
G03*
X63000Y47000I-2000J0D01*
G01*
X108000Y21000D02*
G03*
X108000Y21000I-2000J0D01*
G01*
X82000Y28000D02*
G03*
X82000Y28000I-2000J0D01*
G01*
X152000Y42000D02*
G03*
X152000Y42000I-2000J0D01*
G01*
Y50000D02*
G03*
X152000Y50000I-2000J0D01*
G01*
X4500Y21500D02*
G03*
X4500Y21500I-2000J0D01*
G01*
X7000Y95000D02*
G03*
X7000Y95000I-2000J0D01*
G01*
Y16500D02*
G03*
X7000Y16500I-2000J0D01*
G01*
X22000Y114500D02*
G03*
X22000Y114500I-2000J0D01*
G01*
Y110500D02*
G03*
X22000Y110500I-2000J0D01*
G01*
X172000Y7000D02*
G03*
X172000Y7000I-2000J0D01*
G01*
X12000Y14000D02*
G03*
X12000Y14000I-2000J0D01*
G01*
Y50000D02*
G03*
X12000Y50000I-2000J0D01*
G01*
X164000Y44500D02*
G03*
X164000Y44500I-2000J0D01*
G01*
X5500Y227000D02*
G03*
X5500Y227000I-2000J0D01*
G01*
X54000Y127000D02*
G03*
X54000Y127000I-2000J0D01*
G01*
X116500Y26500D02*
G03*
X116500Y26500I-2000J0D01*
G01*
X197000Y55000D02*
G03*
X197000Y55000I-2000J0D01*
G01*
Y45000D02*
G03*
X197000Y45000I-2000J0D01*
G01*
X191500Y22000D02*
G03*
X191500Y22000I-2000J0D01*
G01*
X197000Y35000D02*
G03*
X197000Y35000I-2000J0D01*
G01*
X212000Y80000D02*
G03*
X212000Y80000I-2000J0D01*
G01*
X159500Y42000D02*
G03*
X159500Y42000I-2000J0D01*
G01*
X63500Y53500D02*
G03*
X63500Y53500I-2000J0D01*
G01*
X9500Y85000D02*
G03*
X9500Y85000I-2000J0D01*
G01*
Y19000D02*
G03*
X9500Y19000I-2000J0D01*
G01*
X88000Y25500D02*
G03*
X88000Y25500I-2000J0D01*
G01*
X91000Y23000D02*
G03*
X91000Y23000I-2000J0D01*
G01*
X94500Y32500D02*
G03*
X94500Y32500I-2000J0D01*
G01*
Y27500D02*
G03*
X94500Y27500I-2000J0D01*
G01*
X19500Y30000D02*
G03*
X19500Y30000I-2000J0D01*
G01*
X34500D02*
G03*
X34500Y30000I-2000J0D01*
G01*
X14500Y40000D02*
G03*
X14500Y40000I-2000J0D01*
G01*
X31000Y60000D02*
G03*
X31000Y60000I-2000J0D01*
G01*
X13000Y70000D02*
G03*
X13000Y70000I-2000J0D01*
G01*
X32500Y70500D02*
G03*
X32500Y70500I-2000J0D01*
G01*
Y80000D02*
G03*
X32500Y80000I-2000J0D01*
G01*
Y90000D02*
G03*
X32500Y90000I-2000J0D01*
G01*
Y100000D02*
G03*
X32500Y100000I-2000J0D01*
G01*
X10500Y90000D02*
G03*
X10500Y90000I-2000J0D01*
G01*
Y100000D02*
G03*
X10500Y100000I-2000J0D01*
G01*
X42000D02*
G03*
X42000Y100000I-2000J0D01*
G01*
Y110000D02*
G03*
X42000Y110000I-2000J0D01*
G01*
X49500Y115000D02*
G03*
X49500Y115000I-2000J0D01*
G01*
X65500Y69000D02*
G03*
X65500Y69000I-2000J0D01*
G01*
X169500Y92500D02*
G03*
X169500Y92500I-2000J0D01*
G01*
X212000Y100000D02*
G03*
X212000Y100000I-2000J0D01*
G01*
Y120000D02*
G03*
X212000Y120000I-2000J0D01*
G01*
X182000D02*
G03*
X182000Y120000I-2000J0D01*
G01*
X77000Y130000D02*
G03*
X77000Y130000I-2000J0D01*
G01*
X208000Y150000D02*
G03*
X208000Y150000I-2000J0D01*
G01*
X218500Y155000D02*
G03*
X218500Y155000I-2000J0D01*
G01*
X187000Y135500D02*
G03*
X187000Y135500I-2000J0D01*
G01*
X59500Y34000D02*
G03*
X59500Y34000I-2000J0D01*
G01*
X55000Y16500D02*
G03*
X55000Y16500I-2000J0D01*
G01*
X68500Y19000D02*
G03*
X68500Y19000I-2000J0D01*
G01*
X77000Y23000D02*
G03*
X77000Y23000I-2000J0D01*
G01*
X90500Y129500D02*
G03*
X90500Y129500I-2000J0D01*
G01*
X4500Y30000D02*
G03*
X4500Y30000I-2000J0D01*
G01*
X14500D02*
G03*
X14500Y30000I-2000J0D01*
G01*
D75*
X0Y227000D02*
X3D01*
X0Y197000D02*
X3D01*
D76*
X273998Y168998D02*
X272799Y170198D01*
X270400D01*
X269200Y168998D01*
Y167798D01*
X270400Y166599D01*
X272799D01*
X273998Y165399D01*
Y164200D01*
X272799Y163000D01*
X270400D01*
X269200Y164200D01*
X276398Y167798D02*
Y164200D01*
X277597Y163000D01*
X281196D01*
Y161800D01*
X279996Y160601D01*
X278797D01*
X281196Y163000D02*
Y167798D01*
X283595Y163000D02*
Y167798D01*
X284795D01*
X285995Y166599D01*
Y163000D01*
Y166599D01*
X287194Y167798D01*
X288394Y166599D01*
Y163000D01*
X290793Y170198D02*
Y163000D01*
X294392D01*
X295591Y164200D01*
Y165399D01*
Y166599D01*
X294392Y167798D01*
X290793D01*
X299190Y163000D02*
X301589D01*
X302789Y164200D01*
Y166599D01*
X301589Y167798D01*
X299190D01*
X297991Y166599D01*
Y164200D01*
X299190Y163000D01*
X305188D02*
X307588D01*
X306388D01*
Y170198D01*
X305188D01*
X319588D02*
Y163000D01*
Y166599D01*
X324386D01*
Y170198D01*
Y163000D01*
X326785D02*
X329185D01*
X327985D01*
Y167798D01*
X326785D01*
X333983Y168998D02*
Y167798D01*
X332783D01*
X335182D01*
X333983D01*
Y164200D01*
X335182Y163000D01*
X350778Y168998D02*
X349578Y170198D01*
X347179D01*
X345979Y168998D01*
Y164200D01*
X347179Y163000D01*
X349578D01*
X350778Y164200D01*
X354376Y163000D02*
X356775D01*
X357975Y164200D01*
Y166599D01*
X356775Y167798D01*
X354376D01*
X353177Y166599D01*
Y164200D01*
X354376Y163000D01*
X360374Y167798D02*
Y164200D01*
X361574Y163000D01*
X365173D01*
Y167798D01*
X367572Y163000D02*
Y167798D01*
X371171D01*
X372371Y166599D01*
Y163000D01*
X375969Y168998D02*
Y167798D01*
X374770D01*
X377169D01*
X375969D01*
Y164200D01*
X377169Y163000D01*
X393967Y170198D02*
X389169D01*
Y166599D01*
X391568D01*
X389169D01*
Y163000D01*
X396367D02*
X398766D01*
X397566D01*
Y167798D01*
X396367D01*
X402365Y163000D02*
Y167798D01*
X405964D01*
X407163Y166599D01*
Y163000D01*
X409562D02*
X411962D01*
X410762D01*
Y167798D01*
X409562D01*
X415560Y163000D02*
X419159D01*
X420359Y164200D01*
X419159Y165399D01*
X416760D01*
X415560Y166599D01*
X416760Y167798D01*
X420359D01*
X422758Y170198D02*
Y163000D01*
Y166599D01*
X423958Y167798D01*
X426357D01*
X427557Y166599D01*
Y163000D01*
X433555D02*
X431155D01*
X429956Y164200D01*
Y166599D01*
X431155Y167798D01*
X433555D01*
X434754Y166599D01*
Y165399D01*
X429956D01*
X441952Y170198D02*
Y163000D01*
X438353D01*
X437153Y164200D01*
Y166599D01*
X438353Y167798D01*
X441952D01*
X451549Y170198D02*
Y163000D01*
Y166599D01*
X456347D01*
Y170198D01*
Y163000D01*
X459946D02*
X462345D01*
X463545Y164200D01*
Y166599D01*
X462345Y167798D01*
X459946D01*
X458746Y166599D01*
Y164200D01*
X459946Y163000D01*
X465944D02*
X468343D01*
X467144D01*
Y170198D01*
X465944D01*
X475541Y163000D02*
X473142D01*
X471942Y164200D01*
Y166599D01*
X473142Y167798D01*
X475541D01*
X476741Y166599D01*
Y165399D01*
X471942D01*
X491136Y168998D02*
X489936Y170198D01*
X487537D01*
X486338Y168998D01*
Y167798D01*
X487537Y166599D01*
X489936D01*
X491136Y165399D01*
Y164200D01*
X489936Y163000D01*
X487537D01*
X486338Y164200D01*
X493535Y163000D02*
X495934D01*
X494735D01*
Y167798D01*
X493535D01*
X499533D02*
X504332D01*
X499533Y163000D01*
X504332D01*
X510330D02*
X507931D01*
X506731Y164200D01*
Y166599D01*
X507931Y167798D01*
X510330D01*
X511529Y166599D01*
Y165399D01*
X506731D01*
X523529Y163000D02*
Y170198D01*
X527128D01*
X528328Y168998D01*
Y166599D01*
X527128Y165399D01*
X523529D01*
X530727Y163000D02*
X533126D01*
X531927D01*
Y170198D01*
X530727D01*
X537925Y167798D02*
X540324D01*
X541524Y166599D01*
Y163000D01*
X537925D01*
X536725Y164200D01*
X537925Y165399D01*
X541524D01*
X545122Y168998D02*
Y167798D01*
X543923D01*
X546322D01*
X545122D01*
Y164200D01*
X546322Y163000D01*
X553520D02*
X551120D01*
X549921Y164200D01*
Y166599D01*
X551120Y167798D01*
X553520D01*
X554719Y166599D01*
Y165399D01*
X549921D01*
X561917Y170198D02*
Y163000D01*
X558318D01*
X557119Y164200D01*
Y166599D01*
X558318Y167798D01*
X561917D01*
X573917Y170198D02*
Y163000D01*
Y166599D01*
X578715D01*
Y170198D01*
Y163000D01*
X582314D02*
X584713D01*
X585913Y164200D01*
Y166599D01*
X584713Y167798D01*
X582314D01*
X581115Y166599D01*
Y164200D01*
X582314Y163000D01*
X588312D02*
X590711D01*
X589512D01*
Y170198D01*
X588312D01*
X597909Y163000D02*
X595510D01*
X594310Y164200D01*
Y166599D01*
X595510Y167798D01*
X597909D01*
X599109Y166599D01*
Y165399D01*
X594310D01*
X608706Y170198D02*
X613504D01*
X611105D01*
Y163000D01*
X615903Y167798D02*
Y164200D01*
X617103Y163000D01*
X620702D01*
Y161800D01*
X619502Y160601D01*
X618302D01*
X620702Y163000D02*
Y167798D01*
X623101Y160601D02*
Y167798D01*
X626700D01*
X627899Y166599D01*
Y164200D01*
X626700Y163000D01*
X623101D01*
X633897D02*
X631498D01*
X630299Y164200D01*
Y166599D01*
X631498Y167798D01*
X633897D01*
X635097Y166599D01*
Y165399D01*
X630299D01*
X260400Y173800D02*
X647097D01*
X260400Y157600D02*
X647097D01*
X260400Y173800D02*
Y109600D01*
X647097Y173800D02*
Y109600D01*
X315188Y173800D02*
Y109600D01*
X384769Y173800D02*
Y109600D01*
X519129Y173800D02*
Y109600D01*
X569517Y173800D02*
Y109600D01*
X260400Y121600D02*
X647097D01*
X260400Y109600D02*
X647097D01*
D77*
X274000Y139600D02*
G03*
X274000Y139600I-2400J0D01*
G01*
M02*
