%FSLAX25Y25*%
%MOIN*%
G70*
G01*
G75*
G04 Layer_Color=8388736*
%ADD10R,0.02500X0.04200*%
%ADD11R,0.02362X0.05906*%
%ADD12R,0.08500X0.10799*%
%ADD13R,0.07874X0.16142*%
%ADD14R,0.06299X0.12598*%
%ADD15R,0.20472X0.19685*%
%ADD16R,0.03000X0.05000*%
%ADD17R,0.06000X0.05000*%
%ADD18R,0.10000X0.06500*%
%ADD19R,0.04000X0.01500*%
%ADD20R,0.01100X0.05800*%
%ADD21R,0.25197X0.14173*%
%ADD22R,0.03347X0.03150*%
%ADD23R,0.03150X0.03347*%
%ADD24R,0.05512X0.04331*%
%ADD25R,0.04331X0.10236*%
%ADD26R,0.10236X0.04331*%
%ADD27C,0.01000*%
%ADD28C,0.02000*%
%ADD29C,0.10000*%
%ADD30C,0.06890*%
%ADD31R,0.06890X0.06890*%
%ADD32C,0.02500*%
%ADD33R,0.01000X0.01000*%
%ADD34R,0.07874X0.03937*%
%ADD35R,0.05906X0.13780*%
%ADD36R,0.03937X0.03740*%
%ADD37R,0.01000X0.01000*%
%ADD38R,0.06890X0.04331*%
%ADD39C,0.00984*%
%ADD40C,0.00787*%
%ADD41C,0.00700*%
%ADD42C,0.00600*%
%ADD43C,0.00300*%
%ADD44R,0.02000X0.16400*%
%ADD45R,0.20600X0.19813*%
%ADD46R,0.03300X0.05300*%
%ADD47R,0.02900X0.04600*%
%ADD48R,0.02762X0.06306*%
%ADD49R,0.08900X0.11199*%
%ADD50R,0.08274X0.16542*%
%ADD51R,0.06699X0.12998*%
%ADD52R,0.06400X0.05400*%
%ADD53R,0.10400X0.06900*%
%ADD54R,0.04400X0.01900*%
%ADD55R,0.01500X0.06200*%
%ADD56R,0.25597X0.14573*%
%ADD57R,0.03747X0.03550*%
%ADD58R,0.03550X0.03747*%
%ADD59R,0.05912X0.04731*%
%ADD60R,0.04731X0.10636*%
%ADD61R,0.10636X0.04731*%
%ADD62C,0.07290*%
%ADD63R,0.07290X0.07290*%
D45*
X202579Y174685D02*
D03*
X62421Y166315D02*
D03*
X118421D02*
D03*
X174421D02*
D03*
X90579Y174685D02*
D03*
X146579D02*
D03*
D46*
X210000Y158500D02*
D03*
X205000D02*
D03*
X200000D02*
D03*
X195000D02*
D03*
X55000Y182500D02*
D03*
X60000D02*
D03*
X65000D02*
D03*
X70000D02*
D03*
X111000D02*
D03*
X116000D02*
D03*
X121000D02*
D03*
X126000D02*
D03*
X167000D02*
D03*
X172000D02*
D03*
X177000D02*
D03*
X182000D02*
D03*
X98000Y158500D02*
D03*
X93000D02*
D03*
X88000D02*
D03*
X83000D02*
D03*
X154000D02*
D03*
X149000D02*
D03*
X144000D02*
D03*
X139000D02*
D03*
D47*
X20700Y65800D02*
D03*
X17000D02*
D03*
X13300D02*
D03*
Y74500D02*
D03*
X17000D02*
D03*
X20700D02*
D03*
D48*
X70240Y16740D02*
D03*
X62760D02*
D03*
X66500Y9260D02*
D03*
X56740Y16740D02*
D03*
X49260D02*
D03*
X53000Y9260D02*
D03*
D49*
X57201Y79500D02*
D03*
X39799D02*
D03*
D50*
X23400Y169326D02*
D03*
Y135074D02*
D03*
Y186574D02*
D03*
Y220826D02*
D03*
D51*
X15500Y86658D02*
D03*
Y106342D02*
D03*
D52*
Y18500D02*
D03*
Y9500D02*
D03*
X78000D02*
D03*
Y18500D02*
D03*
X41500Y9500D02*
D03*
Y18500D02*
D03*
X101500Y215000D02*
D03*
Y224000D02*
D03*
D53*
X47500Y121000D02*
D03*
Y94000D02*
D03*
D54*
X31500Y43660D02*
D03*
Y46220D02*
D03*
Y48780D02*
D03*
Y51340D02*
D03*
X42500D02*
D03*
Y48780D02*
D03*
Y46220D02*
D03*
Y43660D02*
D03*
D55*
X85602Y64992D02*
D03*
X87570D02*
D03*
X89539D02*
D03*
X91509D02*
D03*
X93479D02*
D03*
X95449D02*
D03*
X97419D02*
D03*
X99389D02*
D03*
X101359D02*
D03*
X103329D02*
D03*
X105299D02*
D03*
X107269D02*
D03*
X109239D02*
D03*
X111209D02*
D03*
X113179D02*
D03*
X115149D02*
D03*
X117119D02*
D03*
X119089D02*
D03*
X121059D02*
D03*
X123029D02*
D03*
X124999D02*
D03*
X126969D02*
D03*
X128939D02*
D03*
X130909D02*
D03*
X132879D02*
D03*
X134849D02*
D03*
X136817D02*
D03*
X138786D02*
D03*
Y94992D02*
D03*
X136817D02*
D03*
X134849D02*
D03*
X132879D02*
D03*
X130909D02*
D03*
X128939D02*
D03*
X126969D02*
D03*
X124999D02*
D03*
X123029D02*
D03*
X121059D02*
D03*
X119089D02*
D03*
X117119D02*
D03*
X115149D02*
D03*
X113179D02*
D03*
X111209D02*
D03*
X109239D02*
D03*
X107269D02*
D03*
X105299D02*
D03*
X103329D02*
D03*
X101359D02*
D03*
X99389D02*
D03*
X97419D02*
D03*
X95449D02*
D03*
X93479D02*
D03*
X91509D02*
D03*
X89539D02*
D03*
X87570D02*
D03*
X85602D02*
D03*
D56*
X112499Y80002D02*
D03*
D57*
X89500Y12744D02*
D03*
Y18256D02*
D03*
X30000Y12744D02*
D03*
Y18256D02*
D03*
X92500Y38244D02*
D03*
Y43756D02*
D03*
X117500Y16244D02*
D03*
Y21756D02*
D03*
Y31744D02*
D03*
Y37256D02*
D03*
X100500Y117244D02*
D03*
Y122756D02*
D03*
X112000Y117244D02*
D03*
Y122756D02*
D03*
X122500Y117244D02*
D03*
Y122756D02*
D03*
X93500Y113756D02*
D03*
Y108244D02*
D03*
X69500Y65244D02*
D03*
Y70756D02*
D03*
Y51744D02*
D03*
Y57256D02*
D03*
X76500Y43756D02*
D03*
Y38244D02*
D03*
X69500Y38244D02*
D03*
Y43756D02*
D03*
X106000Y10744D02*
D03*
Y16256D02*
D03*
X83500Y43756D02*
D03*
Y38244D02*
D03*
X76500Y70756D02*
D03*
Y65244D02*
D03*
Y51744D02*
D03*
Y57256D02*
D03*
X147200Y28744D02*
D03*
Y34256D02*
D03*
X158500Y34256D02*
D03*
Y28744D02*
D03*
X165500Y15244D02*
D03*
Y20756D02*
D03*
X138500Y15244D02*
D03*
Y20756D02*
D03*
X151500Y15244D02*
D03*
Y20756D02*
D03*
X158500Y15244D02*
D03*
Y20756D02*
D03*
X111500Y216744D02*
D03*
Y222256D02*
D03*
X23500Y18256D02*
D03*
Y12744D02*
D03*
X50500Y142244D02*
D03*
Y147756D02*
D03*
X105500Y142244D02*
D03*
Y147756D02*
D03*
X161500Y142244D02*
D03*
Y147756D02*
D03*
X98500Y142244D02*
D03*
Y147756D02*
D03*
X154500Y142244D02*
D03*
Y147756D02*
D03*
X210500Y142244D02*
D03*
Y147756D02*
D03*
X17000Y44244D02*
D03*
Y49756D02*
D03*
X33500Y59244D02*
D03*
Y64756D02*
D03*
X24000Y43756D02*
D03*
Y38244D02*
D03*
X40500Y64756D02*
D03*
Y59244D02*
D03*
X24000Y57256D02*
D03*
Y51744D02*
D03*
D58*
X55756Y24500D02*
D03*
X50244D02*
D03*
X69256D02*
D03*
X63744D02*
D03*
X145744Y103500D02*
D03*
X151256D02*
D03*
X86256D02*
D03*
X80744D02*
D03*
X14256Y123500D02*
D03*
X8744D02*
D03*
X14256Y116500D02*
D03*
X8744D02*
D03*
X77256Y95000D02*
D03*
X71744D02*
D03*
X139744Y53000D02*
D03*
X145256D02*
D03*
X139744Y46000D02*
D03*
X145256D02*
D03*
X38744Y36000D02*
D03*
X44256D02*
D03*
X56256Y43000D02*
D03*
X50744D02*
D03*
X56256Y52000D02*
D03*
X50744D02*
D03*
D59*
X109000Y35953D02*
D03*
Y30047D02*
D03*
D60*
X156815Y113500D02*
D03*
X146185D02*
D03*
X75185D02*
D03*
X85815D02*
D03*
D61*
X62000Y136685D02*
D03*
Y147315D02*
D03*
X118000Y136685D02*
D03*
Y147315D02*
D03*
X174000Y136685D02*
D03*
Y147315D02*
D03*
D62*
X62500Y213500D02*
D03*
X147020D02*
D03*
X127020D02*
D03*
D63*
X82500D02*
D03*
X167019D02*
D03*
M02*
