%FSLAX25Y25*%
%MOIN*%
G70*
G01*
G75*
%ADD10R,0.02500X0.04200*%
%ADD11R,0.02362X0.05906*%
%ADD12R,0.08500X0.10799*%
%ADD13R,0.07874X0.16142*%
%ADD14R,0.06299X0.12598*%
%ADD15R,0.20472X0.19685*%
%ADD16R,0.03000X0.05000*%
%ADD17R,0.06000X0.05000*%
%ADD18R,0.10000X0.06500*%
%ADD19R,0.04000X0.01500*%
%ADD20R,0.01100X0.05800*%
%ADD21R,0.25197X0.14173*%
%ADD22R,0.03347X0.03150*%
%ADD23R,0.03150X0.03347*%
%ADD24R,0.05512X0.04331*%
%ADD25R,0.04331X0.10236*%
%ADD26R,0.10236X0.04331*%
%ADD27C,0.01000*%
%ADD28C,0.02000*%
%ADD29C,0.10000*%
%ADD30C,0.06890*%
%ADD31R,0.06890X0.06890*%
%ADD32C,0.02500*%
%ADD33R,0.01000X0.01000*%
%ADD34R,0.07874X0.03937*%
%ADD35R,0.05906X0.13780*%
%ADD36R,0.03937X0.03740*%
%ADD37R,0.01000X0.01000*%
%ADD38R,0.06890X0.04331*%
%ADD39C,0.00984*%
%ADD40C,0.00787*%
%ADD41C,0.00700*%
%ADD42C,0.00600*%
%ADD43C,0.00300*%
%ADD44R,0.02000X0.16400*%
%ADD45R,0.20600X0.19813*%
%ADD46R,0.03300X0.05300*%
%ADD47R,0.02900X0.04600*%
%ADD48R,0.02762X0.06306*%
%ADD49R,0.08900X0.11199*%
%ADD50R,0.08274X0.16542*%
%ADD51R,0.06699X0.12998*%
%ADD52R,0.06400X0.05400*%
%ADD53R,0.10400X0.06900*%
%ADD54R,0.04400X0.01900*%
%ADD55R,0.01500X0.06200*%
%ADD56R,0.25597X0.14573*%
%ADD57R,0.03747X0.03550*%
%ADD58R,0.03550X0.03747*%
%ADD59R,0.05912X0.04731*%
%ADD60R,0.04731X0.10636*%
%ADD61R,0.10636X0.04731*%
%ADD62C,0.07290*%
%ADD63R,0.07290X0.07290*%
%ADD64R,0.08200X0.04263*%
%ADD65R,0.06306X0.14179*%
%ADD66R,0.04337X0.04140*%
%ADD67R,0.07290X0.04731*%
%ADD68R,0.08137X0.04200*%
%ADD69C,0.00500*%
%ADD70C,0.00110*%
%ADD71C,0.00394*%
%ADD72C,0.00400*%
%ADD73C,0.00098*%
%ADD74C,0.00667*%
%ADD75C,0.00100*%
%ADD76C,0.01600*%
%ADD77C,0.00800*%
D69*
X60039Y213500D02*
X64961D01*
X62500Y211039D02*
Y215961D01*
X80039Y213500D02*
X84961D01*
X82500Y211039D02*
Y215961D01*
X144559Y213500D02*
X149480D01*
X147020Y211039D02*
Y215961D01*
X164559Y213500D02*
X169480D01*
X167019Y211039D02*
Y215961D01*
X124559Y213500D02*
X129480D01*
X127020Y211039D02*
Y215961D01*
X48750Y69500D02*
X50250D01*
X49500Y68750D02*
Y70250D01*
X1750Y61000D02*
X3250D01*
X2500Y60250D02*
Y61750D01*
X16250Y61000D02*
X17750D01*
X17000Y60250D02*
Y61750D01*
X29250Y95000D02*
X30750D01*
X30000Y94250D02*
Y95750D01*
X29250Y75000D02*
X30750D01*
X30000Y74250D02*
Y75750D01*
X29250Y85000D02*
X30750D01*
X30000Y84250D02*
Y85750D01*
X23750Y65800D02*
X25250D01*
X24500Y65050D02*
Y66550D01*
X209250Y12500D02*
X210750D01*
X210000Y11750D02*
Y13250D01*
X199250Y22500D02*
X200750D01*
X200000Y21750D02*
Y23250D01*
X189250Y12500D02*
X190750D01*
X190000Y11750D02*
Y13250D01*
X154250Y3500D02*
X155750D01*
X155000Y2750D02*
Y4250D01*
X150750Y113500D02*
X152250D01*
X151500Y112750D02*
Y114250D01*
X3250Y128500D02*
X4750D01*
X4000Y127750D02*
Y129250D01*
X3250Y111000D02*
X4750D01*
X4000Y110250D02*
Y111750D01*
X209250Y224500D02*
X210750D01*
X210000Y223750D02*
Y225250D01*
X215750Y205000D02*
X217250D01*
X216500Y204250D02*
Y205750D01*
X209250Y195000D02*
X210750D01*
X210000Y194250D02*
Y195750D01*
X215750Y180500D02*
X217250D01*
X216500Y179750D02*
Y181250D01*
X215750Y165000D02*
X217250D01*
X216500Y164250D02*
Y165750D01*
X209250Y60000D02*
X210750D01*
X210000Y59250D02*
Y60750D01*
X209250Y40000D02*
X210750D01*
X210000Y39250D02*
Y40750D01*
X199250Y12500D02*
X200750D01*
X200000Y11750D02*
Y13250D01*
X209250Y3500D02*
X210750D01*
X210000Y2750D02*
Y4250D01*
X199250Y224500D02*
X200750D01*
X200000Y223750D02*
Y225250D01*
X205250Y205000D02*
X206750D01*
X206000Y204250D02*
Y205750D01*
X194250Y80000D02*
X195750D01*
X195000Y79250D02*
Y80750D01*
X199250Y35000D02*
X200750D01*
X200000Y34250D02*
Y35750D01*
X199250Y3500D02*
X200750D01*
X200000Y2750D02*
Y4250D01*
X189250Y224500D02*
X190750D01*
X190000Y223750D02*
Y225250D01*
X191750Y205000D02*
X193250D01*
X192500Y204250D02*
Y205750D01*
X194250Y117500D02*
X195750D01*
X195000Y116750D02*
Y118250D01*
X194250Y105000D02*
X195750D01*
X195000Y104250D02*
Y105750D01*
X194250Y92500D02*
X195750D01*
X195000Y91750D02*
Y93250D01*
X194250Y67500D02*
X195750D01*
X195000Y66750D02*
Y68250D01*
X189250Y3500D02*
X190750D01*
X190000Y2750D02*
Y4250D01*
X179250Y3500D02*
X180750D01*
X180000Y2750D02*
Y4250D01*
X167750Y3500D02*
X169250D01*
X168500Y2750D02*
Y4250D01*
X166750Y105000D02*
X168250D01*
X167500Y104250D02*
Y105750D01*
X159250Y95000D02*
X160750D01*
X160000Y94250D02*
Y95750D01*
X159250Y75000D02*
X160750D01*
X160000Y74250D02*
Y75750D01*
X149250Y95000D02*
X150750D01*
X150000Y94250D02*
Y95750D01*
X154250Y85000D02*
X155750D01*
X155000Y84250D02*
Y85750D01*
X149250Y75000D02*
X150750D01*
X150000Y74250D02*
Y75750D01*
X154250Y65000D02*
X155750D01*
X155000Y64250D02*
Y65750D01*
X149250Y56500D02*
X150750D01*
X150000Y55750D02*
Y57250D01*
X141750Y3500D02*
X143250D01*
X142500Y2750D02*
Y4250D01*
X144250Y85000D02*
X145750D01*
X145000Y84250D02*
Y85750D01*
X139250Y75000D02*
X140750D01*
X140000Y74250D02*
Y75750D01*
X144250Y65000D02*
X145750D01*
X145000Y64250D02*
Y65750D01*
X129250Y3500D02*
X130750D01*
X130000Y2750D02*
Y4250D01*
X119250Y3500D02*
X120750D01*
X120000Y2750D02*
Y4250D01*
X109250Y3500D02*
X110750D01*
X110000Y2750D02*
Y4250D01*
X97750Y3500D02*
X99250D01*
X98500Y2750D02*
Y4250D01*
X84750Y3500D02*
X86250D01*
X85500Y2750D02*
Y4250D01*
X79750Y112000D02*
X81250D01*
X80500Y111250D02*
Y112750D01*
X84250Y75000D02*
X85750D01*
X85000Y74250D02*
Y75750D01*
X69250Y215000D02*
X70750D01*
X70000Y214250D02*
Y215750D01*
X73750Y99500D02*
X75250D01*
X74500Y98750D02*
Y100250D01*
X79250Y85000D02*
X80750D01*
X80000Y84250D02*
Y85750D01*
X69250Y3500D02*
X70750D01*
X70000Y2750D02*
Y4250D01*
X61750Y204500D02*
X63250D01*
X62500Y203750D02*
Y205250D01*
X64250Y105000D02*
X65750D01*
X65000Y104250D02*
Y105750D01*
X59250Y95000D02*
X60750D01*
X60000Y94250D02*
Y95750D01*
X69250Y85000D02*
X70750D01*
X70000Y84250D02*
Y85750D01*
X57750Y3500D02*
X59250D01*
X58500Y2750D02*
Y4250D01*
X49750Y215000D02*
X51250D01*
X50500Y214250D02*
Y215750D01*
X49750Y204500D02*
X51250D01*
X50500Y203750D02*
Y205250D01*
X54250Y105000D02*
X55750D01*
X55000Y104250D02*
Y105750D01*
X47750Y79500D02*
X49250D01*
X48500Y78750D02*
Y80250D01*
X39250Y215000D02*
X40750D01*
X40000Y214250D02*
Y215750D01*
X39250Y204500D02*
X40750D01*
X40000Y203750D02*
Y205250D01*
X39250Y155000D02*
X40750D01*
X40000Y154250D02*
Y155750D01*
X44250Y145000D02*
X45750D01*
X45000Y144250D02*
Y145750D01*
X37750Y135000D02*
X39250D01*
X38500Y134250D02*
Y135750D01*
X27750Y204500D02*
X29250D01*
X28500Y203750D02*
Y205250D01*
X29250Y155000D02*
X30750D01*
X30000Y154250D02*
Y155750D01*
X34250Y145000D02*
X35750D01*
X35000Y144250D02*
Y145750D01*
X29250Y135000D02*
X30750D01*
X30000Y134250D02*
Y135750D01*
X34250Y128000D02*
X35750D01*
X35000Y127250D02*
Y128750D01*
X30750Y3500D02*
X32250D01*
X31500Y2750D02*
Y4250D01*
X20750Y204500D02*
X22250D01*
X21500Y203750D02*
Y205250D01*
X19250Y155000D02*
X20750D01*
X20000Y154250D02*
Y155750D01*
X24250Y145000D02*
X25750D01*
X25000Y144250D02*
Y145750D01*
X12250Y213500D02*
X13750D01*
X13000Y212750D02*
Y214250D01*
X12250Y204500D02*
X13750D01*
X13000Y203750D02*
Y205250D01*
X12250Y195000D02*
X13750D01*
X13000Y194250D02*
Y195750D01*
X12250Y185000D02*
X13750D01*
X13000Y184250D02*
Y185750D01*
X12250Y175000D02*
X13750D01*
X13000Y174250D02*
Y175750D01*
X12250Y165000D02*
X13750D01*
X13000Y164250D02*
Y165750D01*
X12250Y155000D02*
X13750D01*
X13000Y154250D02*
Y155750D01*
X12250Y145000D02*
X13750D01*
X13000Y144250D02*
Y145750D01*
X4250Y3500D02*
X5750D01*
X5000Y2750D02*
Y4250D01*
X160250Y206500D02*
X161750D01*
X161000Y205750D02*
Y207250D01*
X175750Y217000D02*
X177250D01*
X176500Y216250D02*
Y217750D01*
X170250Y224500D02*
X171750D01*
X171000Y223750D02*
Y225250D01*
X158750Y224500D02*
X160250D01*
X159500Y223750D02*
Y225250D01*
X154250Y211000D02*
X155750D01*
X155000Y210250D02*
Y211750D01*
X151750Y221000D02*
X153250D01*
X152500Y220250D02*
Y221750D01*
X139250Y221000D02*
X140750D01*
X140000Y220250D02*
Y221750D01*
X133250Y211000D02*
X134750D01*
X134000Y210250D02*
Y211750D01*
X129250Y221000D02*
X130750D01*
X130000Y220250D02*
Y221750D01*
X116750Y220000D02*
X118250D01*
X117500Y219250D02*
Y220750D01*
X108750Y135500D02*
X110250D01*
X109500Y134750D02*
Y136250D01*
X164750Y133000D02*
X166250D01*
X165500Y132250D02*
Y133750D01*
X189750Y157000D02*
X191250D01*
X190500Y156250D02*
Y157750D01*
X187750Y165000D02*
X189250D01*
X188500Y164250D02*
Y165750D01*
X187750Y174500D02*
X189250D01*
X188500Y173750D02*
Y175250D01*
X157250Y157000D02*
X158750D01*
X158000Y156250D02*
Y157750D01*
X46750Y135000D02*
X48250D01*
X47500Y134250D02*
Y135750D01*
X69250Y134500D02*
X70750D01*
X70000Y133750D02*
Y135250D01*
X52750Y136000D02*
X54250D01*
X53500Y135250D02*
Y136750D01*
X71250Y146000D02*
X72750D01*
X72000Y145250D02*
Y146750D01*
X71250Y152000D02*
X72750D01*
X72000Y151250D02*
Y152750D01*
X101250Y156500D02*
X102750D01*
X102000Y155750D02*
Y157250D01*
X54750Y116000D02*
X56250D01*
X55500Y115250D02*
Y116750D01*
X92750Y120500D02*
X94250D01*
X93500Y119750D02*
Y121250D01*
X159750Y39500D02*
X161250D01*
X160500Y38750D02*
Y40250D01*
X138750Y39500D02*
X140250D01*
X139500Y38750D02*
Y40250D01*
X141750Y9500D02*
X143250D01*
X142500Y8750D02*
Y10250D01*
X146750Y14500D02*
X148250D01*
X147500Y13750D02*
Y15250D01*
X144250Y12000D02*
X145750D01*
X145000Y11250D02*
Y12750D01*
X169250Y17000D02*
X170750D01*
X170000Y16250D02*
Y17750D01*
X94750Y123500D02*
X96250D01*
X95500Y122750D02*
Y124250D01*
X199250Y45000D02*
X200750D01*
X200000Y44250D02*
Y45750D01*
X186250Y19500D02*
X187750D01*
X187000Y18750D02*
Y20250D01*
X121250Y19500D02*
X122750D01*
X122000Y18750D02*
Y20250D01*
X41750Y162500D02*
X43250D01*
X42500Y161750D02*
Y163250D01*
X34250Y162500D02*
X35750D01*
X35000Y161750D02*
Y163250D01*
X41750Y170000D02*
X43250D01*
X42500Y169250D02*
Y170750D01*
X34250Y170000D02*
X35750D01*
X35000Y169250D02*
Y170750D01*
X41750Y177500D02*
X43250D01*
X42500Y176750D02*
Y178250D01*
X34250Y177500D02*
X35750D01*
X35000Y176750D02*
Y178250D01*
X41750Y185000D02*
X43250D01*
X42500Y184250D02*
Y185750D01*
X34250Y185000D02*
X35750D01*
X35000Y184250D02*
Y185750D01*
X41750Y192500D02*
X43250D01*
X42500Y191750D02*
Y193250D01*
X34250Y192500D02*
X35750D01*
X35000Y191750D02*
Y193250D01*
X171750Y143000D02*
X173250D01*
X172500Y142250D02*
Y143750D01*
X174250Y141000D02*
X175750D01*
X175000Y140250D02*
Y141750D01*
X176750Y143000D02*
X178250D01*
X177500Y142250D02*
Y143750D01*
X169250Y141000D02*
X170750D01*
X170000Y140250D02*
Y141750D01*
X53250Y131500D02*
X54750D01*
X54000Y130750D02*
Y132250D01*
X101750Y106000D02*
X103250D01*
X102500Y105250D02*
Y106750D01*
X116369Y127500D02*
X117869D01*
X117119Y126750D02*
Y128250D01*
X111750Y112500D02*
X113250D01*
X112500Y111750D02*
Y113250D01*
X123250Y112500D02*
X124750D01*
X124000Y111750D02*
Y113250D01*
X111250Y127500D02*
X112750D01*
X112000Y126750D02*
Y128250D01*
X113250Y141000D02*
X114750D01*
X114000Y140250D02*
Y141750D01*
X120750Y143000D02*
X122250D01*
X121500Y142250D02*
Y143750D01*
X118250Y141000D02*
X119750D01*
X119000Y140250D02*
Y141750D01*
X123250Y141000D02*
X124750D01*
X124000Y140250D02*
Y141750D01*
X115750Y143000D02*
X117250D01*
X116500Y142250D02*
Y143750D01*
X55750Y143000D02*
X57250D01*
X56500Y142250D02*
Y143750D01*
X63250Y141000D02*
X64750D01*
X64000Y140250D02*
Y141750D01*
X58250Y141000D02*
X59750D01*
X59000Y140250D02*
Y141750D01*
X60750Y143000D02*
X62250D01*
X61500Y142250D02*
Y143750D01*
X131250Y131000D02*
X132750D01*
X132000Y130250D02*
Y131750D01*
X97750Y14500D02*
X99250D01*
X98500Y13750D02*
Y15250D01*
X95250Y12000D02*
X96750D01*
X96000Y11250D02*
Y12750D01*
X176250Y115000D02*
X177750D01*
X177000Y114250D02*
Y115750D01*
X173750Y105000D02*
X175250D01*
X174500Y104250D02*
Y105750D01*
X171250Y95000D02*
X172750D01*
X172000Y94250D02*
Y95750D01*
X176250Y24500D02*
X177750D01*
X177000Y23750D02*
Y25250D01*
X173750Y27000D02*
X175250D01*
X174500Y26250D02*
Y27750D01*
X171250Y29500D02*
X172750D01*
X172000Y28750D02*
Y30250D01*
X168750Y32000D02*
X170250D01*
X169500Y31250D02*
Y32750D01*
X166250Y34500D02*
X167750D01*
X167000Y33750D02*
Y35250D01*
X168750Y85000D02*
X170250D01*
X169500Y84250D02*
Y85750D01*
X166250Y75000D02*
X167750D01*
X167000Y74250D02*
Y75750D01*
X163750Y37000D02*
X165250D01*
X164500Y36250D02*
Y37750D01*
X163750Y65000D02*
X165250D01*
X164500Y64250D02*
Y65750D01*
X126250Y27000D02*
X127750D01*
X127000Y26250D02*
Y27750D01*
X123750Y24500D02*
X125250D01*
X124500Y23750D02*
Y25250D01*
X136250Y37000D02*
X137750D01*
X137000Y36250D02*
Y37750D01*
X133750Y34500D02*
X135250D01*
X134500Y33750D02*
Y35250D01*
X131250Y32000D02*
X132750D01*
X132000Y31250D02*
Y32750D01*
X128750Y29500D02*
X130250D01*
X129500Y28750D02*
Y30250D01*
X92750Y9500D02*
X94250D01*
X93500Y8750D02*
Y10250D01*
X100250Y17000D02*
X101750D01*
X101000Y16250D02*
Y17750D01*
X126250Y151000D02*
X127750D01*
X127000Y150250D02*
Y151750D01*
X153750Y123000D02*
X155250D01*
X154500Y122250D02*
Y123750D01*
X139750Y124500D02*
X141250D01*
X140500Y123750D02*
Y125250D01*
X160750Y123000D02*
X162250D01*
X161500Y122250D02*
Y123750D01*
X181250Y133500D02*
X182750D01*
X182000Y132750D02*
Y134250D01*
X209750Y128000D02*
X211250D01*
X210500Y127250D02*
Y128750D01*
X128250Y117500D02*
X129750D01*
X129000Y116750D02*
Y118250D01*
X130750Y120000D02*
X132250D01*
X131500Y119250D02*
Y120750D01*
X186250Y146000D02*
X187750D01*
X187000Y145250D02*
Y146750D01*
X186250Y142000D02*
X187750D01*
X187000Y141250D02*
Y142750D01*
X185250Y151000D02*
X186750D01*
X186000Y150250D02*
Y151750D01*
X183750Y148000D02*
X185250D01*
X184500Y147250D02*
Y148750D01*
X183750Y144000D02*
X185250D01*
X184500Y143250D02*
Y144750D01*
X183750Y140000D02*
X185250D01*
X184500Y139250D02*
Y140750D01*
X135250Y150000D02*
X136750D01*
X136000Y149250D02*
Y150750D01*
X135250Y146000D02*
X136750D01*
X136000Y145250D02*
Y146750D01*
X131750Y151000D02*
X133250D01*
X132500Y150250D02*
Y151750D01*
X131750Y147500D02*
X133250D01*
X132500Y146750D02*
Y148250D01*
X132250Y144000D02*
X133750D01*
X133000Y143250D02*
Y144750D01*
X135250Y142000D02*
X136750D01*
X136000Y141250D02*
Y142750D01*
X79750Y149500D02*
X81250D01*
X80500Y148750D02*
Y150250D01*
X79750Y146000D02*
X81250D01*
X80500Y145250D02*
Y146750D01*
X76750Y151000D02*
X78250D01*
X77500Y150250D02*
Y151750D01*
X76750Y147500D02*
X78250D01*
X77500Y146750D02*
Y148250D01*
X77250Y144000D02*
X78750D01*
X78000Y143250D02*
Y144750D01*
X79750Y142000D02*
X81250D01*
X80500Y141250D02*
Y142750D01*
X131851Y79998D02*
X133151D01*
X132501Y79348D02*
Y80648D01*
X131851Y75498D02*
X133151D01*
X132501Y74848D02*
Y76148D01*
X131851Y84498D02*
X133151D01*
X132501Y83848D02*
Y85148D01*
X91851Y79998D02*
X93151D01*
X92501Y79348D02*
Y80648D01*
X91851Y75498D02*
X93151D01*
X92501Y74848D02*
Y76148D01*
X91851Y84498D02*
X93151D01*
X92501Y83848D02*
Y85148D01*
X96851Y79998D02*
X98151D01*
X97501Y79348D02*
Y80648D01*
X96851Y75498D02*
X98151D01*
X97501Y74848D02*
Y76148D01*
X96851Y84498D02*
X98151D01*
X97501Y83848D02*
Y85148D01*
X101851Y79998D02*
X103151D01*
X102501Y79348D02*
Y80648D01*
X101851Y75498D02*
X103151D01*
X102501Y74848D02*
Y76148D01*
X101851Y84498D02*
X103151D01*
X102501Y83848D02*
Y85148D01*
X106851Y79998D02*
X108151D01*
X107501Y79348D02*
Y80648D01*
X106851Y75498D02*
X108151D01*
X107501Y74848D02*
Y76148D01*
X106851Y84498D02*
X108151D01*
X107501Y83848D02*
Y85148D01*
X121851Y79998D02*
X123151D01*
X122501Y79348D02*
Y80648D01*
X121851Y75498D02*
X123151D01*
X122501Y74848D02*
Y76148D01*
X121851Y84498D02*
X123151D01*
X122501Y83848D02*
Y85148D01*
X116851Y79998D02*
X118151D01*
X117501Y79348D02*
Y80648D01*
X116851Y75498D02*
X118151D01*
X117501Y74848D02*
Y76148D01*
X116851Y84498D02*
X118151D01*
X117501Y83848D02*
Y85148D01*
X111850Y80000D02*
X113150D01*
X112500Y79350D02*
Y80650D01*
X111850Y75500D02*
X113150D01*
X112500Y74850D02*
Y76150D01*
X111850Y84500D02*
X113150D01*
X112500Y83850D02*
Y85150D01*
X126851Y84498D02*
X128151D01*
X127501Y83848D02*
Y85148D01*
X126851Y75498D02*
X128151D01*
X127501Y74848D02*
Y76148D01*
X126851Y79998D02*
X128151D01*
X127501Y79348D02*
Y80648D01*
X107250Y127500D02*
X108750D01*
X108000Y126750D02*
Y128250D01*
X52750Y174500D02*
X54250D01*
X53500Y173750D02*
Y175250D01*
X57250Y174500D02*
X58750D01*
X58000Y173750D02*
Y175250D01*
X61750Y174500D02*
X63250D01*
X62500Y173750D02*
Y175250D01*
X66250Y174500D02*
X67750D01*
X67000Y173750D02*
Y175250D01*
X70750Y174500D02*
X72250D01*
X71500Y173750D02*
Y175250D01*
X70750Y162000D02*
X72250D01*
X71500Y161250D02*
Y162750D01*
X66250Y162000D02*
X67750D01*
X67000Y161250D02*
Y162750D01*
X61750Y162000D02*
X63250D01*
X62500Y161250D02*
Y162750D01*
X57250Y162000D02*
X58750D01*
X58000Y161250D02*
Y162750D01*
X52750Y162000D02*
X54250D01*
X53500Y161250D02*
Y162750D01*
X70750Y170500D02*
X72250D01*
X71500Y169750D02*
Y171250D01*
X66250Y170500D02*
X67750D01*
X67000Y169750D02*
Y171250D01*
X61750Y170500D02*
X63250D01*
X62500Y169750D02*
Y171250D01*
X57250Y170500D02*
X58750D01*
X58000Y169750D02*
Y171250D01*
X52750Y170500D02*
X54250D01*
X53500Y169750D02*
Y171250D01*
X70671Y166315D02*
X72171D01*
X71421Y165565D02*
Y167065D01*
X66171Y166315D02*
X67671D01*
X66921Y165565D02*
Y167065D01*
X61671Y166315D02*
X63171D01*
X62421Y165565D02*
Y167065D01*
X57171Y166315D02*
X58671D01*
X57921Y165565D02*
Y167065D01*
X52671Y166315D02*
X54171D01*
X53421Y165565D02*
Y167065D01*
X108671Y166315D02*
X110171D01*
X109421Y165565D02*
Y167065D01*
X113171Y166315D02*
X114671D01*
X113921Y165565D02*
Y167065D01*
X117671Y166315D02*
X119171D01*
X118421Y165565D02*
Y167065D01*
X122171Y166315D02*
X123671D01*
X122921Y165565D02*
Y167065D01*
X126671Y166315D02*
X128171D01*
X127421Y165565D02*
Y167065D01*
X108750Y170500D02*
X110250D01*
X109500Y169750D02*
Y171250D01*
X113250Y170500D02*
X114750D01*
X114000Y169750D02*
Y171250D01*
X117750Y170500D02*
X119250D01*
X118500Y169750D02*
Y171250D01*
X122250Y170500D02*
X123750D01*
X123000Y169750D02*
Y171250D01*
X126750Y170500D02*
X128250D01*
X127500Y169750D02*
Y171250D01*
X108750Y162000D02*
X110250D01*
X109500Y161250D02*
Y162750D01*
X113250Y162000D02*
X114750D01*
X114000Y161250D02*
Y162750D01*
X117750Y162000D02*
X119250D01*
X118500Y161250D02*
Y162750D01*
X122250Y162000D02*
X123750D01*
X123000Y161250D02*
Y162750D01*
X126750Y162000D02*
X128250D01*
X127500Y161250D02*
Y162750D01*
X126750Y174500D02*
X128250D01*
X127500Y173750D02*
Y175250D01*
X122250Y174500D02*
X123750D01*
X123000Y173750D02*
Y175250D01*
X117750Y174500D02*
X119250D01*
X118500Y173750D02*
Y175250D01*
X113250Y174500D02*
X114750D01*
X114000Y173750D02*
Y175250D01*
X108750Y174500D02*
X110250D01*
X109500Y173750D02*
Y175250D01*
X164671Y166315D02*
X166171D01*
X165421Y165565D02*
Y167065D01*
X169171Y166315D02*
X170671D01*
X169921Y165565D02*
Y167065D01*
X173671Y166315D02*
X175171D01*
X174421Y165565D02*
Y167065D01*
X178171Y166315D02*
X179671D01*
X178921Y165565D02*
Y167065D01*
X182671Y166315D02*
X184171D01*
X183421Y165565D02*
Y167065D01*
X164750Y170500D02*
X166250D01*
X165500Y169750D02*
Y171250D01*
X169250Y170500D02*
X170750D01*
X170000Y169750D02*
Y171250D01*
X173750Y170500D02*
X175250D01*
X174500Y169750D02*
Y171250D01*
X178250Y170500D02*
X179750D01*
X179000Y169750D02*
Y171250D01*
X182750Y170500D02*
X184250D01*
X183500Y169750D02*
Y171250D01*
X164750Y162000D02*
X166250D01*
X165500Y161250D02*
Y162750D01*
X169250Y162000D02*
X170750D01*
X170000Y161250D02*
Y162750D01*
X173750Y162000D02*
X175250D01*
X174500Y161250D02*
Y162750D01*
X178250Y162000D02*
X179750D01*
X179000Y161250D02*
Y162750D01*
X182750Y162000D02*
X184250D01*
X183500Y161250D02*
Y162750D01*
X182750Y174500D02*
X184250D01*
X183500Y173750D02*
Y175250D01*
X178250Y174500D02*
X179750D01*
X179000Y173750D02*
Y175250D01*
X173750Y174500D02*
X175250D01*
X174500Y173750D02*
Y175250D01*
X169250Y174500D02*
X170750D01*
X170000Y173750D02*
Y175250D01*
X164750Y174500D02*
X166250D01*
X165500Y173750D02*
Y175250D01*
X126250Y135500D02*
X127750D01*
X127000Y134750D02*
Y136250D01*
X131250Y127500D02*
X132750D01*
X132000Y126750D02*
Y128250D01*
X136750Y125500D02*
X138250D01*
X137500Y124750D02*
Y126250D01*
X125750Y123000D02*
X127250D01*
X126500Y122250D02*
Y123750D01*
X183750Y14500D02*
X185250D01*
X184500Y13750D02*
Y15250D01*
X181250Y12000D02*
X182750D01*
X182000Y11250D02*
Y12750D01*
X178750Y9500D02*
X180250D01*
X179500Y8750D02*
Y10250D01*
X199250Y105000D02*
X200750D01*
X200000Y104250D02*
Y105750D01*
X199250Y65000D02*
X200750D01*
X200000Y64250D02*
Y65750D01*
X199250Y55000D02*
X200750D01*
X200000Y54250D02*
Y55750D01*
X122250Y127500D02*
X123750D01*
X123000Y126750D02*
Y128250D01*
X133750Y51500D02*
X135250D01*
X134500Y50750D02*
Y52250D01*
X135750Y57000D02*
X137250D01*
X136500Y56250D02*
Y57750D01*
X132750Y58000D02*
X134250D01*
X133500Y57250D02*
Y58750D01*
X158750Y47000D02*
X160250D01*
X159500Y46250D02*
Y47750D01*
X201250Y130500D02*
X202750D01*
X202000Y129750D02*
Y131250D01*
X195250Y130500D02*
X196750D01*
X196000Y129750D02*
Y131250D01*
X63750Y47000D02*
X65250D01*
X64500Y46250D02*
Y47750D01*
X60250Y47000D02*
X61750D01*
X61000Y46250D02*
Y47750D01*
X105250Y21000D02*
X106750D01*
X106000Y20250D02*
Y21750D01*
X79250Y28000D02*
X80750D01*
X80000Y27250D02*
Y28750D01*
X149250Y42000D02*
X150750D01*
X150000Y41250D02*
Y42750D01*
X149250Y50000D02*
X150750D01*
X150000Y49250D02*
Y50750D01*
X1750Y21500D02*
X3250D01*
X2500Y20750D02*
Y22250D01*
X4250Y95000D02*
X5750D01*
X5000Y94250D02*
Y95750D01*
X4250Y16500D02*
X5750D01*
X5000Y15750D02*
Y17250D01*
X19250Y114500D02*
X20750D01*
X20000Y113750D02*
Y115250D01*
X19250Y110500D02*
X20750D01*
X20000Y109750D02*
Y111250D01*
X169250Y7000D02*
X170750D01*
X170000Y6250D02*
Y7750D01*
X9250Y14000D02*
X10750D01*
X10000Y13250D02*
Y14750D01*
X9250Y50000D02*
X10750D01*
X10000Y49250D02*
Y50750D01*
X161250Y44500D02*
X162750D01*
X162000Y43750D02*
Y45250D01*
X2750Y227000D02*
X4250D01*
X3500Y226250D02*
Y227750D01*
X51250Y127000D02*
X52750D01*
X52000Y126250D02*
Y127750D01*
X113750Y26500D02*
X115250D01*
X114500Y25750D02*
Y27250D01*
X194250Y55000D02*
X195750D01*
X195000Y54250D02*
Y55750D01*
X194250Y45000D02*
X195750D01*
X195000Y44250D02*
Y45750D01*
X188750Y22000D02*
X190250D01*
X189500Y21250D02*
Y22750D01*
X194250Y35000D02*
X195750D01*
X195000Y34250D02*
Y35750D01*
X209250Y80000D02*
X210750D01*
X210000Y79250D02*
Y80750D01*
X156750Y42000D02*
X158250D01*
X157500Y41250D02*
Y42750D01*
X60750Y53500D02*
X62250D01*
X61500Y52750D02*
Y54250D01*
X6750Y85000D02*
X8250D01*
X7500Y84250D02*
Y85750D01*
X6750Y19000D02*
X8250D01*
X7500Y18250D02*
Y19750D01*
X85250Y25500D02*
X86750D01*
X86000Y24750D02*
Y26250D01*
X88250Y23000D02*
X89750D01*
X89000Y22250D02*
Y23750D01*
X91750Y32500D02*
X93250D01*
X92500Y31750D02*
Y33250D01*
X91750Y27500D02*
X93250D01*
X92500Y26750D02*
Y28250D01*
X16750Y30000D02*
X18250D01*
X17500Y29250D02*
Y30750D01*
X31750Y30000D02*
X33250D01*
X32500Y29250D02*
Y30750D01*
X11750Y40000D02*
X13250D01*
X12500Y39250D02*
Y40750D01*
X28250Y60000D02*
X29750D01*
X29000Y59250D02*
Y60750D01*
X10250Y70000D02*
X11750D01*
X11000Y69250D02*
Y70750D01*
X29750Y70500D02*
X31250D01*
X30500Y69750D02*
Y71250D01*
X29750Y80000D02*
X31250D01*
X30500Y79250D02*
Y80750D01*
X29750Y90000D02*
X31250D01*
X30500Y89250D02*
Y90750D01*
X29750Y100000D02*
X31250D01*
X30500Y99250D02*
Y100750D01*
X7750Y90000D02*
X9250D01*
X8500Y89250D02*
Y90750D01*
X7750Y100000D02*
X9250D01*
X8500Y99250D02*
Y100750D01*
X39250Y100000D02*
X40750D01*
X40000Y99250D02*
Y100750D01*
X39250Y110000D02*
X40750D01*
X40000Y109250D02*
Y110750D01*
X46750Y115000D02*
X48250D01*
X47500Y114250D02*
Y115750D01*
X62750Y69000D02*
X64250D01*
X63500Y68250D02*
Y69750D01*
X166750Y92500D02*
X168250D01*
X167500Y91750D02*
Y93250D01*
X209250Y100000D02*
X210750D01*
X210000Y99250D02*
Y100750D01*
X209250Y120000D02*
X210750D01*
X210000Y119250D02*
Y120750D01*
X179250Y120000D02*
X180750D01*
X180000Y119250D02*
Y120750D01*
X74250Y130000D02*
X75750D01*
X75000Y129250D02*
Y130750D01*
X205250Y150000D02*
X206750D01*
X206000Y149250D02*
Y150750D01*
X215750Y155000D02*
X217250D01*
X216500Y154250D02*
Y155750D01*
X184250Y135500D02*
X185750D01*
X185000Y134750D02*
Y136250D01*
X56750Y34000D02*
X58250D01*
X57500Y33250D02*
Y34750D01*
X52250Y16500D02*
X53750D01*
X53000Y15750D02*
Y17250D01*
X65750Y19000D02*
X67250D01*
X66500Y18250D02*
Y19750D01*
X74250Y23000D02*
X75750D01*
X75000Y22250D02*
Y23750D01*
X87750Y129500D02*
X89250D01*
X88500Y128750D02*
Y130250D01*
X1750Y30000D02*
X3250D01*
X2500Y29250D02*
Y30750D01*
X11750Y30000D02*
X13250D01*
X12500Y29250D02*
Y30750D01*
M02*
