%FSLAX25Y25*%
%MOIN*%
G70*
G01*
G75*
G04 Layer_Physical_Order=1*
G04 Layer_Color=255*
%ADD10R,0.02500X0.04200*%
%ADD11R,0.02362X0.05906*%
%ADD12R,0.08500X0.10799*%
%ADD13R,0.07874X0.16142*%
%ADD14R,0.06299X0.12598*%
%ADD15R,0.20472X0.19685*%
%ADD16R,0.03000X0.05000*%
%ADD17R,0.06000X0.05000*%
%ADD18R,0.10000X0.06500*%
%ADD19R,0.04000X0.01500*%
%ADD20R,0.01100X0.05800*%
%ADD21R,0.25197X0.14173*%
%ADD22R,0.03347X0.03150*%
%ADD23R,0.03150X0.03347*%
%ADD24R,0.05512X0.04331*%
%ADD25R,0.04331X0.10236*%
%ADD26R,0.10236X0.04331*%
%ADD27C,0.01000*%
%ADD28C,0.02000*%
%ADD29C,0.10000*%
%ADD30C,0.06890*%
%ADD31R,0.06890X0.06890*%
%ADD32C,0.02500*%
G36*
X150500Y138500D02*
X137000D01*
X131000Y144500D01*
Y152500D01*
X137500Y161000D01*
X150500D01*
Y138500D01*
D02*
G37*
G36*
X94500D02*
X81000D01*
X76000Y143500D01*
Y155500D01*
X81500Y161000D01*
X94500D01*
Y138500D01*
D02*
G37*
G36*
X111480Y150078D02*
Y145500D01*
X111558Y145110D01*
X111685Y144920D01*
Y144150D01*
X122408D01*
X127984Y138574D01*
X127513Y137692D01*
X127000Y137794D01*
X126122Y137619D01*
X125378Y137122D01*
X124881Y136378D01*
X124706Y135500D01*
X124881Y134622D01*
X125378Y133878D01*
X125471Y133816D01*
Y132633D01*
X124366Y131529D01*
X116000D01*
X115415Y131413D01*
X114919Y131081D01*
X113688Y129850D01*
X113356Y129354D01*
X113306Y129333D01*
X112878Y129620D01*
X112000Y129794D01*
X111891Y129772D01*
X107029Y134634D01*
Y138882D01*
X108370D01*
Y144819D01*
D01*
Y144819D01*
X108370Y144819D01*
Y145181D01*
X108370D01*
Y151118D01*
X107029D01*
Y153222D01*
X107953Y153605D01*
X111480Y150078D01*
D02*
G37*
G36*
X72971Y153222D02*
Y144278D01*
X72047Y143895D01*
X68520Y147422D01*
Y150078D01*
X72047Y153605D01*
X72971Y153222D01*
D02*
G37*
G36*
X97827Y126510D02*
X97827Y125712D01*
X96945Y125241D01*
X96378Y125619D01*
X95500Y125794D01*
X94622Y125619D01*
X93878Y125122D01*
X93381Y124378D01*
X93206Y123500D01*
X93214Y123458D01*
X92659Y122627D01*
X92622Y122619D01*
X91878Y122122D01*
X91477Y121522D01*
X90520Y121812D01*
Y125000D01*
X90442Y125390D01*
X90221Y125721D01*
X85895Y130047D01*
X86278Y130971D01*
X93366D01*
X97827Y126510D01*
D02*
G37*
G36*
X93000Y35669D02*
X94471D01*
Y22133D01*
X93168Y20831D01*
X92173Y20831D01*
Y20831D01*
X91317D01*
X90846Y21713D01*
X91119Y22122D01*
X91294Y23000D01*
X91119Y23878D01*
X90622Y24622D01*
X90529Y24684D01*
Y35669D01*
X92000D01*
Y38244D01*
X93000D01*
Y35669D01*
D02*
G37*
G36*
X52500Y117500D02*
X36000D01*
X18500Y100000D01*
X12500D01*
Y125500D01*
X52500D01*
Y117500D01*
D02*
G37*
G36*
X73000Y156000D02*
X67500Y150500D01*
Y147000D01*
X89500Y125000D01*
Y102100D01*
X92000Y98400D01*
Y92100D01*
X89000D01*
Y98300D01*
X84500Y101500D01*
Y123500D01*
X62500Y145500D01*
X56500D01*
Y150500D01*
X52000Y155000D01*
Y176500D01*
X73000D01*
Y156000D01*
D02*
G37*
G36*
X129000D02*
X123500Y150500D01*
X148000Y126000D01*
Y99100D01*
X139300Y92100D01*
X138200D01*
Y97900D01*
X143000Y101700D01*
Y125000D01*
X122500Y145500D01*
X112500D01*
Y150500D01*
X108000Y155000D01*
Y176500D01*
X129000D01*
Y156000D01*
D02*
G37*
G36*
X108500Y185148D02*
Y184029D01*
X107915Y183913D01*
X107419Y183581D01*
X104419Y180581D01*
X104087Y180085D01*
X103971Y179500D01*
Y151118D01*
X102630D01*
Y145181D01*
X102630Y145181D01*
X102630Y144819D01*
X102630D01*
Y138882D01*
X103971D01*
Y134000D01*
X104087Y133415D01*
X104419Y132919D01*
X106922Y130415D01*
X106824Y129420D01*
X106378Y129122D01*
X105880Y128378D01*
X105740Y127670D01*
X104783Y127380D01*
X100029Y132133D01*
Y138882D01*
X101370D01*
Y144819D01*
D01*
Y144819D01*
X101370Y144819D01*
Y145181D01*
X101370D01*
Y151118D01*
X100029D01*
Y153000D01*
X99913Y153585D01*
X99581Y154081D01*
X100500Y155000D01*
X100500D01*
Y162000D01*
X94599D01*
X94500Y162020D01*
X81500D01*
X81412Y162002D01*
X81191Y162415D01*
X81094Y162649D01*
X81650Y163480D01*
X101000D01*
X101390Y163558D01*
X101721Y163779D01*
X101763Y163842D01*
X101815D01*
Y163919D01*
X101942Y164110D01*
X102020Y164500D01*
Y179974D01*
X107576Y185530D01*
X108500Y185148D01*
D02*
G37*
G36*
X131000Y210500D02*
X101000Y180500D01*
Y164500D01*
X80500D01*
Y175500D01*
X76500Y179500D01*
X58500D01*
Y186500D01*
X125000Y218000D01*
X131000Y210500D01*
D02*
G37*
G36*
X152000Y214000D02*
X157000Y186500D01*
Y164500D01*
X136000D01*
Y175500D01*
X132500Y179000D01*
X114500D01*
Y186500D01*
X143500Y216500D01*
X152000Y214000D01*
D02*
G37*
G36*
X218471Y1529D02*
X1529D01*
Y18611D01*
X2302Y19245D01*
X2500Y19206D01*
X2698Y19245D01*
X3471Y18611D01*
D01*
X3378Y18122D01*
X2881Y17378D01*
X2706Y16500D01*
X2881Y15622D01*
X3378Y14878D01*
X4122Y14380D01*
X5000Y14206D01*
X5878Y14380D01*
X6622Y14878D01*
X7119Y15622D01*
X7203Y16042D01*
X8145Y16378D01*
X8471Y16111D01*
D01*
X8378Y15622D01*
X7880Y14878D01*
X7706Y14000D01*
X7880Y13122D01*
X8378Y12378D01*
X9122Y11880D01*
X10000Y11706D01*
X10727Y11851D01*
X11500Y11216D01*
Y6000D01*
X19500D01*
Y7971D01*
X20650D01*
X21235Y8087D01*
X21731Y8419D01*
X22694Y9382D01*
X26370D01*
Y10169D01*
X27327D01*
Y10169D01*
X29500D01*
Y12744D01*
X30000D01*
Y13244D01*
X32673D01*
Y14974D01*
X32673D01*
X32673Y14974D01*
X32673Y15319D01*
Y15500D01*
Y15681D01*
X32673Y16026D01*
X32673Y16026D01*
X32673D01*
Y17120D01*
X37500D01*
Y15000D01*
X45500D01*
Y22000D01*
X37500D01*
Y20179D01*
X32673D01*
Y20831D01*
X27327D01*
Y20831D01*
X27077D01*
X26370Y21538D01*
Y21618D01*
X24000D01*
Y18650D01*
X23500D01*
Y18150D01*
X20630D01*
Y16026D01*
X20630D01*
X20630Y16026D01*
X20630Y15681D01*
Y15500D01*
Y15319D01*
X20630Y14974D01*
X20630Y14974D01*
X20630D01*
Y12252D01*
X19798Y11696D01*
X19500Y11820D01*
Y13000D01*
X12883D01*
X12249Y13773D01*
X12294Y14000D01*
X12249Y14227D01*
X12883Y15000D01*
X19500D01*
Y22000D01*
X17029D01*
Y23000D01*
X16913Y23585D01*
X16581Y24081D01*
X14029Y26634D01*
Y28316D01*
X14122Y28378D01*
X14619Y29122D01*
X14794Y30000D01*
X14619Y30878D01*
X14507Y31045D01*
X19783Y36321D01*
X21130D01*
Y34882D01*
X26870D01*
Y36321D01*
X27850D01*
X28436Y36437D01*
X28932Y36769D01*
X32581Y40419D01*
X32913Y40915D01*
X32913Y40915D01*
X32913Y40915D01*
X33029Y41500D01*
Y41910D01*
X34500D01*
Y44470D01*
Y47030D01*
Y47251D01*
X34780D01*
X35365Y47367D01*
X35861Y47699D01*
X37000Y48837D01*
X38138Y47699D01*
D01*
X38138Y47699D01*
X38138D01*
X38187Y46850D01*
X37269Y45932D01*
X36937Y45436D01*
X36821Y44850D01*
Y38870D01*
X35382D01*
Y33130D01*
X41319D01*
Y33130D01*
X41319D01*
X41319Y33130D01*
X41681D01*
Y33130D01*
X47618D01*
Y34471D01*
X52840D01*
X55206Y34000D01*
X55381Y33122D01*
X55878Y32378D01*
X56622Y31881D01*
X57500Y31706D01*
X58378Y31881D01*
X59122Y32378D01*
X59619Y33122D01*
X59794Y34000D01*
X59619Y34878D01*
X59122Y35622D01*
X58378Y36119D01*
X57500Y36294D01*
X57391Y36272D01*
X56581Y37081D01*
X56085Y37413D01*
X55500Y37529D01*
X47618D01*
Y38870D01*
X44029D01*
Y41910D01*
X45500D01*
Y44470D01*
Y44691D01*
X46497D01*
X47382Y43806D01*
Y40130D01*
X52974D01*
Y40130D01*
X52974Y40130D01*
X53319Y40130D01*
X53500D01*
X53681D01*
X54026Y40130D01*
X54026Y40130D01*
Y40130D01*
X59618D01*
Y41471D01*
X62000D01*
X62585Y41587D01*
X63081Y41919D01*
X65581Y44418D01*
X66384Y44694D01*
X66384D01*
X66827Y44031D01*
Y41526D01*
X66827D01*
X66827Y41526D01*
X66827Y41181D01*
Y41000D01*
Y40819D01*
X66827Y40474D01*
X66827Y40474D01*
X66827D01*
Y38744D01*
X72173D01*
Y40474D01*
X72173D01*
X72173Y40474D01*
X72173Y40819D01*
Y41000D01*
Y41181D01*
X72173Y41526D01*
X72173Y41526D01*
X72173D01*
Y42620D01*
X73827D01*
Y41181D01*
X73827Y41181D01*
X73827Y40819D01*
X73827D01*
Y35669D01*
X74301D01*
X74971Y35000D01*
X74971Y35000D01*
D01*
X75087Y34415D01*
X75419Y33919D01*
X78471Y30867D01*
Y29684D01*
X78378Y29622D01*
X77881Y28878D01*
X77706Y28000D01*
X77881Y27122D01*
X78378Y26378D01*
X79122Y25881D01*
X80000Y25706D01*
X80878Y25881D01*
X81622Y26378D01*
X82119Y27122D01*
X82294Y28000D01*
X82119Y28878D01*
X81622Y29622D01*
X81529Y29684D01*
Y30867D01*
X84547Y33884D01*
X84775Y33789D01*
X85471Y33324D01*
Y27689D01*
X85122Y27619D01*
X84378Y27122D01*
X83881Y26378D01*
X83706Y25500D01*
X83881Y24622D01*
X84378Y23878D01*
X85122Y23381D01*
X86000Y23206D01*
X86000Y23206D01*
X86000Y23206D01*
X86706Y23000D01*
X86706Y23000D01*
X86706Y23000D01*
X86881Y22122D01*
X87378Y21378D01*
X87378Y21378D01*
X86827Y20831D01*
X86827D01*
X86827Y20179D01*
X82000D01*
Y22000D01*
X77883D01*
X77249Y22773D01*
X77294Y23000D01*
X77119Y23878D01*
X76622Y24622D01*
X76529Y24684D01*
Y25000D01*
X76413Y25585D01*
X76081Y26081D01*
X73081Y29081D01*
X72585Y29413D01*
X72000Y29529D01*
X53350D01*
X52765Y29413D01*
X52269Y29081D01*
X50361Y27173D01*
X47669D01*
Y21827D01*
X47730D01*
Y20693D01*
X47079D01*
Y12787D01*
X50819D01*
Y10789D01*
X45500D01*
Y13000D01*
X37500D01*
Y6000D01*
X45500D01*
Y7730D01*
X50819D01*
Y5307D01*
X55181D01*
Y12787D01*
X58921D01*
Y20693D01*
X58270D01*
Y21827D01*
X58331D01*
Y26471D01*
X61169D01*
Y21827D01*
X61230D01*
Y20693D01*
X60579D01*
Y12787D01*
X64319D01*
Y5307D01*
X68681D01*
Y7730D01*
X74000D01*
Y6000D01*
X82000D01*
Y13000D01*
X74000D01*
Y10789D01*
X68681D01*
Y12787D01*
X72421D01*
Y20693D01*
X71770D01*
Y21827D01*
X71831D01*
Y22299D01*
X72826Y22397D01*
X72881Y22122D01*
X73378Y21378D01*
X74000Y20962D01*
Y15000D01*
X82000D01*
Y17120D01*
X86827D01*
Y15681D01*
X86827Y15681D01*
X86827Y15319D01*
X86827D01*
Y13244D01*
X89500D01*
Y12744D01*
X90000D01*
Y10169D01*
X90657D01*
X91206Y9500D01*
X91381Y8622D01*
X91878Y7878D01*
X92622Y7380D01*
X93500Y7206D01*
X94378Y7380D01*
X95122Y7878D01*
X95619Y8622D01*
X95794Y9500D01*
X96000Y9706D01*
X96878Y9881D01*
X97622Y10378D01*
X98119Y11122D01*
X98294Y12000D01*
X98500Y12206D01*
X99378Y12381D01*
X100122Y12878D01*
X100619Y13622D01*
X100794Y14500D01*
X101000Y14706D01*
X101878Y14881D01*
X102445Y15259D01*
X103327Y14788D01*
Y14026D01*
X103327D01*
X103327Y14026D01*
X103327Y13681D01*
Y13500D01*
Y13319D01*
X103327Y12974D01*
X103327Y12974D01*
X103327D01*
Y11244D01*
X108673D01*
Y12974D01*
X108673D01*
X108673Y12974D01*
X108673Y13319D01*
Y13500D01*
Y13681D01*
X108673Y14026D01*
X108673Y14026D01*
X108673D01*
Y18831D01*
X108317D01*
X107846Y19713D01*
X108119Y20122D01*
X108294Y21000D01*
X108119Y21878D01*
X107622Y22622D01*
X106878Y23120D01*
X106000Y23294D01*
X105529Y25660D01*
Y32787D01*
X112756D01*
Y32787D01*
X113900Y32787D01*
X114827Y31861D01*
Y29169D01*
X120173D01*
D01*
X120173D01*
X120471Y28872D01*
Y27283D01*
X117518Y24331D01*
X114827D01*
Y19181D01*
X114827Y19181D01*
X114827Y18819D01*
X114827D01*
Y16744D01*
X120173D01*
Y16954D01*
X121055Y17425D01*
X121122Y17380D01*
X122000Y17206D01*
X122878Y17380D01*
X123622Y17878D01*
X124119Y18622D01*
X124294Y19500D01*
X124119Y20378D01*
X123622Y21122D01*
X124350Y22211D01*
X124016Y21988D01*
X124378Y22230D01*
X124500Y22206D01*
X125378Y22380D01*
X126122Y22878D01*
X126620Y23622D01*
X126794Y24500D01*
X127000Y24706D01*
X127878Y24881D01*
X128622Y25378D01*
X129120Y26122D01*
X129294Y27000D01*
X129500Y27206D01*
X130378Y27380D01*
X131122Y27878D01*
X131620Y28622D01*
X131794Y29500D01*
X132000Y29706D01*
X132878Y29880D01*
X133622Y30378D01*
X134119Y31122D01*
X134294Y32000D01*
X134500Y32206D01*
X135378Y32381D01*
X136122Y32878D01*
X136619Y33622D01*
X136794Y34500D01*
X137000Y34706D01*
X137878Y34881D01*
X138622Y35378D01*
X139120Y36122D01*
X139294Y37000D01*
X139500Y37206D01*
X140378Y37380D01*
X141122Y37878D01*
X141620Y38622D01*
X141794Y39500D01*
X141620Y40378D01*
X141122Y41122D01*
X141029Y41184D01*
Y43327D01*
X142319D01*
Y48673D01*
X137169D01*
Y48300D01*
X136245Y47918D01*
X135578Y48585D01*
X135676Y49580D01*
X136122Y49878D01*
X136422Y50327D01*
X137169Y50327D01*
Y50327D01*
X142319D01*
Y55673D01*
X140880D01*
Y58650D01*
X140783Y59138D01*
X140763Y59235D01*
X140432Y59731D01*
X138367Y61796D01*
Y68892D01*
X84052D01*
Y66521D01*
X79173D01*
Y67474D01*
X79173D01*
X79173Y67474D01*
X79173Y67819D01*
Y68000D01*
Y68181D01*
X79173Y68526D01*
X79173Y68526D01*
X79173D01*
Y70256D01*
X73827D01*
Y68526D01*
X73827D01*
X73827Y68526D01*
X73827Y68181D01*
Y68000D01*
Y67819D01*
X73827Y67474D01*
X73827Y67474D01*
X73827D01*
Y63792D01*
X72903Y63410D01*
X72173Y64139D01*
Y67474D01*
X72173D01*
X72173Y67474D01*
X72173Y67819D01*
Y68000D01*
Y68181D01*
X72173Y68526D01*
X72173Y68526D01*
X72173D01*
Y70256D01*
X66827D01*
Y68526D01*
X66827D01*
X66827Y68526D01*
X66827Y68181D01*
Y68000D01*
Y67819D01*
X66827Y67474D01*
X66827Y67474D01*
X66827D01*
Y62669D01*
X69317D01*
X71232Y60755D01*
X70850Y59831D01*
X70000D01*
Y57256D01*
X69500D01*
Y56756D01*
X66827D01*
Y55026D01*
X66827D01*
X66827Y55026D01*
X66827Y54681D01*
Y54500D01*
Y54319D01*
X66827Y53974D01*
X66827Y53974D01*
X66827D01*
Y49212D01*
X65945Y48741D01*
X65378Y49119D01*
X64500Y49294D01*
X63622Y49119D01*
X63411Y48979D01*
X62529Y49450D01*
Y50500D01*
X62413Y51085D01*
X62081Y51581D01*
X60581Y53081D01*
X60085Y53413D01*
X59618Y53506D01*
Y54870D01*
X54026D01*
Y54870D01*
X54026Y54870D01*
X53681Y54870D01*
X53500D01*
X53319D01*
X52974Y54870D01*
X52974Y54870D01*
Y54870D01*
X47382D01*
Y51194D01*
X46497Y50309D01*
X45500D01*
Y50840D01*
X42500D01*
Y51340D01*
X42000D01*
Y53090D01*
X39529D01*
Y55717D01*
X39694Y55882D01*
X43370D01*
Y61819D01*
D01*
Y61819D01*
X43370Y61819D01*
Y62181D01*
X43370D01*
Y68118D01*
X37630D01*
Y64867D01*
X36799Y64312D01*
X36370Y64489D01*
Y64650D01*
X30630D01*
Y62181D01*
X30630Y62181D01*
X30630Y61819D01*
X30630D01*
Y55882D01*
X34306D01*
X34471Y55717D01*
Y53090D01*
X28500D01*
Y52880D01*
X26870D01*
Y53974D01*
X26870D01*
X26870Y53974D01*
X26870Y54319D01*
Y54500D01*
Y54681D01*
X26870Y55026D01*
X26870Y55026D01*
X26870D01*
Y57150D01*
X21130D01*
Y55026D01*
X21130D01*
X21130Y55026D01*
X21130Y54681D01*
Y54500D01*
Y54319D01*
X21130Y53974D01*
X21130Y53974D01*
X21130D01*
Y48382D01*
X22471D01*
Y47118D01*
X21130D01*
Y41181D01*
X21130Y41181D01*
X21130Y40819D01*
X21130D01*
Y39380D01*
X19865D01*
X19310Y40211D01*
X19588Y40882D01*
X19870D01*
Y46474D01*
X19870D01*
X19870Y46474D01*
X19870Y46819D01*
Y47000D01*
Y47181D01*
X19870Y47526D01*
X19870Y47526D01*
X19870D01*
Y49650D01*
X14130D01*
Y47526D01*
X14130D01*
X14130Y47526D01*
X14130Y47181D01*
Y47000D01*
Y46819D01*
X14130Y46474D01*
X14130Y46474D01*
X14130D01*
Y40882D01*
X14589D01*
X15471Y40000D01*
X15471Y40000D01*
D01*
X15587Y39415D01*
X15919Y38919D01*
X16987Y37850D01*
X12453Y33317D01*
X11529Y33700D01*
Y48316D01*
X11622Y48378D01*
X12120Y49122D01*
X12294Y50000D01*
X12120Y50878D01*
X11622Y51622D01*
X10878Y52119D01*
X10000Y52294D01*
X9802Y52255D01*
X9029Y52889D01*
Y83316D01*
X9122Y83378D01*
X9619Y84122D01*
X9794Y85000D01*
X9619Y85878D01*
X9122Y86622D01*
X8378Y87119D01*
X7500Y87294D01*
X7302Y87255D01*
X6529Y87889D01*
Y93316D01*
X6622Y93378D01*
X7119Y94122D01*
X7294Y95000D01*
X7119Y95878D01*
X6622Y96622D01*
X5878Y97119D01*
X5000Y97294D01*
X4802Y97255D01*
X4029Y97889D01*
Y100866D01*
X7976Y104813D01*
X11350D01*
Y99043D01*
X12184D01*
X12500Y98980D01*
X18500D01*
X18816Y99043D01*
X19650D01*
Y99708D01*
X36422Y116480D01*
X51790D01*
X52173Y115557D01*
X46058Y109442D01*
X45616Y108780D01*
X45461Y108000D01*
Y98250D01*
X41500D01*
Y89750D01*
X45461D01*
Y88668D01*
X42692Y85900D01*
X34549D01*
Y73100D01*
X45049D01*
Y82489D01*
X48942Y86382D01*
X49384Y87043D01*
X49539Y87823D01*
X49539Y87823D01*
X49539Y87823D01*
Y87823D01*
Y89750D01*
X53500D01*
Y98250D01*
X49539D01*
Y107155D01*
X56236Y113852D01*
X56378Y113881D01*
X57122Y114378D01*
X57619Y115122D01*
X57794Y116000D01*
X57619Y116878D01*
X57122Y117622D01*
X56378Y118120D01*
X55500Y118294D01*
X54622Y118120D01*
X54401Y117972D01*
X53520Y118444D01*
Y125309D01*
X53622Y125378D01*
X54119Y126122D01*
X54294Y127000D01*
X54119Y127878D01*
X53822Y128323D01*
X54205Y129247D01*
X54878Y129381D01*
X55622Y129878D01*
X56119Y130622D01*
X56294Y131500D01*
X56119Y132378D01*
X55622Y133122D01*
X54878Y133619D01*
X54000Y133794D01*
X53891Y133772D01*
X52029Y135634D01*
Y138882D01*
X53370D01*
Y144474D01*
X53370D01*
X53370Y144474D01*
X53370Y144819D01*
Y145000D01*
Y145181D01*
X53370Y145526D01*
X53370Y145526D01*
X53370D01*
Y150881D01*
X54294Y151264D01*
X55480Y150078D01*
Y145500D01*
X55558Y145110D01*
X55685Y144920D01*
Y144150D01*
X62409D01*
X83480Y123078D01*
Y119618D01*
X82650D01*
Y107382D01*
X83480D01*
Y106173D01*
X83480D01*
X83319D01*
X82773Y106173D01*
X82773Y106173D01*
Y106173D01*
X81244D01*
Y103500D01*
Y100827D01*
X82881Y100827D01*
X83319D01*
D01*
X83319D01*
D01*
D01*
D01*
D01*
D01*
X83681D01*
Y100827D01*
X83747D01*
X83779Y100779D01*
X83850Y100731D01*
X83909Y100669D01*
X85069Y99845D01*
X84764Y98892D01*
X84052D01*
Y96521D01*
X79831D01*
Y97673D01*
X75026D01*
Y97673D01*
X75026Y97673D01*
X74681Y97673D01*
X74500D01*
X74319D01*
X73974Y97673D01*
X73974Y97673D01*
Y97673D01*
X72244D01*
Y95000D01*
Y92327D01*
X73974D01*
Y92327D01*
X73974Y92327D01*
X74319Y92327D01*
X74500D01*
X74681D01*
X75026Y92327D01*
X75026Y92327D01*
Y92327D01*
X79831D01*
Y93463D01*
X84052D01*
Y91092D01*
X88942D01*
X89000Y91080D01*
X92000D01*
X92058Y91092D01*
X138142D01*
X138200Y91080D01*
X139300D01*
X139358Y91092D01*
X140336D01*
Y91625D01*
X148639Y98306D01*
X148675Y98348D01*
X148721Y98379D01*
X148802Y98500D01*
X148895Y98611D01*
X148911Y98664D01*
X148942Y98710D01*
X148970Y98852D01*
X149014Y98990D01*
X149009Y99046D01*
X149020Y99100D01*
Y100827D01*
X150756D01*
Y103500D01*
Y106173D01*
X149020D01*
Y107382D01*
X149350D01*
Y119618D01*
X149020D01*
Y126000D01*
X148942Y126390D01*
X148721Y126721D01*
X138885Y136556D01*
X139268Y137480D01*
X150500D01*
X150890Y137558D01*
X151221Y137779D01*
X151442Y138110D01*
X151520Y138500D01*
Y138882D01*
X151520D01*
X151630D01*
X152227Y138882D01*
X152227Y138882D01*
Y138882D01*
X152971D01*
Y124684D01*
X152878Y124622D01*
X152381Y123878D01*
X152206Y123000D01*
X152381Y122122D01*
X152878Y121378D01*
X153622Y120880D01*
X154500Y120706D01*
X155378Y120880D01*
X156122Y121378D01*
X156620Y122122D01*
X156794Y123000D01*
X156620Y123878D01*
X156122Y124622D01*
X156029Y124684D01*
Y138882D01*
X157370D01*
Y144474D01*
X157370D01*
X157370Y144474D01*
X157370Y144819D01*
Y145000D01*
Y145181D01*
X157370Y145526D01*
X157370Y145526D01*
X157370D01*
Y151118D01*
X156029D01*
Y152500D01*
X155913Y153085D01*
X155581Y153581D01*
X155529Y153633D01*
Y155000D01*
X156500D01*
Y162000D01*
X150599D01*
X150500Y162020D01*
X137500D01*
X137347Y162787D01*
X138041Y163480D01*
X157000D01*
X157390Y163558D01*
X157721Y163779D01*
X157763Y163842D01*
X157815D01*
Y163919D01*
X157942Y164110D01*
X158020Y164500D01*
Y186500D01*
X158002Y186590D01*
X158003Y186682D01*
X153003Y214182D01*
X152995Y214203D01*
X152992Y214235D01*
X152649Y215366D01*
X152092Y216409D01*
X151342Y217322D01*
X150428Y218072D01*
X149386Y218629D01*
X148255Y218972D01*
X147079Y219088D01*
X145903Y218972D01*
X144772Y218629D01*
X143729Y218072D01*
X142816Y217322D01*
X142471Y216902D01*
X113767Y187209D01*
X113664Y187049D01*
X113558Y186890D01*
X113556Y186882D01*
X113551Y186874D01*
X113518Y186687D01*
X113480Y186500D01*
Y186000D01*
X109352D01*
X108970Y186924D01*
X131283Y209237D01*
X132033Y210151D01*
X132590Y211193D01*
X132933Y212324D01*
X133049Y213500D01*
X132933Y214676D01*
X132590Y215807D01*
X132033Y216849D01*
X131283Y217763D01*
X130369Y218513D01*
X129327Y219070D01*
X128196Y219413D01*
X127020Y219529D01*
X125843Y219413D01*
X124712Y219070D01*
X123670Y218513D01*
X123627Y218478D01*
X115215Y214493D01*
X114370Y215028D01*
Y215850D01*
X108630D01*
Y213382D01*
X110590D01*
X110809Y212406D01*
X58064Y187421D01*
X57924Y187318D01*
X57779Y187221D01*
X57765Y187200D01*
X57744Y187184D01*
X57655Y187035D01*
X57558Y186890D01*
X57553Y186865D01*
X57540Y186843D01*
X57514Y186671D01*
X57480Y186500D01*
Y186000D01*
X52500D01*
Y184029D01*
X52400D01*
X51912Y183932D01*
X51815Y183913D01*
X51319Y183581D01*
X48819Y181081D01*
X48487Y180585D01*
X48371Y180000D01*
Y152600D01*
X48487Y152015D01*
X48497Y152000D01*
X48026Y151118D01*
X47630D01*
Y145526D01*
X47630D01*
X47630Y145526D01*
X47630Y145181D01*
Y145000D01*
Y144819D01*
X47630Y144474D01*
X47630Y144474D01*
X47630D01*
Y138882D01*
X48971D01*
Y135000D01*
X48971Y135000D01*
X48971D01*
X49087Y134415D01*
X49419Y133919D01*
X51728Y131609D01*
X51706Y131500D01*
X51881Y130622D01*
X52178Y130177D01*
X51795Y129253D01*
X51122Y129120D01*
X50378Y128622D01*
X50288Y128487D01*
X49915Y128413D01*
X49419Y128081D01*
X47857Y126520D01*
X12500D01*
X12110Y126442D01*
X11779Y126221D01*
X11747Y126173D01*
X11681D01*
Y126173D01*
X11319D01*
D01*
D01*
X11319D01*
D01*
D01*
D01*
X9244Y126173D01*
Y123500D01*
Y120827D01*
X10773D01*
Y120827D01*
X10773Y120827D01*
X11319Y120827D01*
X11480Y120665D01*
Y119173D01*
X11480D01*
X11319D01*
X10773Y119173D01*
X10773Y119173D01*
Y119173D01*
X9244D01*
Y116500D01*
Y113827D01*
X10773D01*
Y113827D01*
X10773Y113827D01*
X11319Y113827D01*
X11350Y113795D01*
Y113642D01*
X11350D01*
Y107872D01*
X7343D01*
X6757Y107755D01*
X6261Y107424D01*
X2453Y103616D01*
X1529Y103999D01*
Y228471D01*
X97500D01*
Y227500D01*
X97500D01*
Y220500D01*
X105500D01*
Y221531D01*
X106424Y221913D01*
X106769Y221568D01*
X107265Y221237D01*
X107362Y221217D01*
X107850Y221120D01*
X108630D01*
Y220026D01*
X108630D01*
X108630Y220026D01*
X108630Y219681D01*
Y219500D01*
Y219319D01*
X108630Y218974D01*
X108630Y218974D01*
X108630D01*
Y216850D01*
X114370D01*
Y218974D01*
X114370D01*
X114370Y218974D01*
X114370Y219319D01*
Y219500D01*
Y219681D01*
X114370Y220026D01*
X114370Y220026D01*
X114370D01*
Y225618D01*
X108630D01*
Y225340D01*
X107706Y224957D01*
X107581Y225081D01*
X107085Y225413D01*
X106500Y225529D01*
X105500D01*
Y227500D01*
X105500D01*
Y227764D01*
X106207Y228471D01*
X218471D01*
Y1529D01*
D02*
G37*
%LPC*%
G36*
X79173Y73331D02*
X77000D01*
Y71256D01*
X79173D01*
Y73331D01*
D02*
G37*
G36*
X69000Y59831D02*
X66827D01*
Y57756D01*
X69000D01*
Y59831D01*
D02*
G37*
G36*
X45500Y53090D02*
X43000D01*
Y51840D01*
X45500D01*
Y53090D01*
D02*
G37*
G36*
X33000Y68118D02*
X30630D01*
Y65650D01*
X33000D01*
Y68118D01*
D02*
G37*
G36*
X19870Y53118D02*
X17500D01*
Y50650D01*
X19870D01*
Y53118D01*
D02*
G37*
G36*
X76000Y73331D02*
X73827D01*
Y71256D01*
X76000D01*
Y73331D01*
D02*
G37*
G36*
X72173Y73331D02*
X70000D01*
Y71256D01*
X72173D01*
Y73331D01*
D02*
G37*
G36*
X69000D02*
X66827D01*
Y71256D01*
X69000D01*
Y73331D01*
D02*
G37*
G36*
X23500Y60618D02*
X21130D01*
Y58150D01*
X23500D01*
Y60618D01*
D02*
G37*
G36*
X36370Y68118D02*
X34000D01*
Y65650D01*
X36370D01*
Y68118D01*
D02*
G37*
G36*
X26870Y60618D02*
X24500D01*
Y58150D01*
X26870D01*
Y60618D01*
D02*
G37*
G36*
X16500Y53118D02*
X14130D01*
Y50650D01*
X16500D01*
Y53118D01*
D02*
G37*
G36*
X138000Y14744D02*
X135827D01*
Y12669D01*
X138000D01*
Y14744D01*
D02*
G37*
G36*
X154173D02*
X152000D01*
Y12669D01*
X154173D01*
Y14744D01*
D02*
G37*
G36*
X158000D02*
X155827D01*
Y12669D01*
X158000D01*
Y14744D01*
D02*
G37*
G36*
X89000Y12244D02*
X86827D01*
Y10169D01*
X89000D01*
Y12244D01*
D02*
G37*
G36*
X105500Y10244D02*
X103327D01*
Y8169D01*
X105500D01*
Y10244D01*
D02*
G37*
G36*
X108673D02*
X106500D01*
Y8169D01*
X108673D01*
Y10244D01*
D02*
G37*
G36*
X32673Y12244D02*
X30500D01*
Y10169D01*
X32673D01*
Y12244D01*
D02*
G37*
G36*
X150000Y52294D02*
X149122Y52119D01*
X148378Y51622D01*
X147880Y50878D01*
X147706Y50000D01*
X147880Y49122D01*
X148378Y48378D01*
X148471Y48316D01*
Y43684D01*
X148378Y43622D01*
X147880Y42878D01*
X147706Y42000D01*
X147880Y41122D01*
X148378Y40378D01*
X148471Y40316D01*
Y38083D01*
X147218Y36831D01*
X144527D01*
Y32026D01*
X144527D01*
X144527Y32026D01*
X144527Y31681D01*
Y31500D01*
Y31319D01*
X144527Y30974D01*
X144527Y30974D01*
X144527D01*
Y26169D01*
X145671D01*
Y25234D01*
X143919Y23481D01*
X143587Y22985D01*
X143477Y22433D01*
X142520Y22143D01*
X142432Y22231D01*
X141936Y22563D01*
X141350Y22679D01*
X141173D01*
Y23331D01*
X135827D01*
Y18181D01*
X135827Y18181D01*
X135827Y17819D01*
X135827D01*
Y15744D01*
X138500D01*
Y15244D01*
X139000D01*
Y12669D01*
X140971D01*
Y11184D01*
X140878Y11122D01*
X140381Y10378D01*
X140206Y9500D01*
X140381Y8622D01*
X140878Y7878D01*
X141622Y7380D01*
X142500Y7206D01*
X143378Y7380D01*
X144122Y7878D01*
X144620Y8622D01*
X144794Y9500D01*
X145000Y9706D01*
X145878Y9881D01*
X146622Y10378D01*
X147119Y11122D01*
X147294Y12000D01*
X147500Y12206D01*
X148378Y12381D01*
X148818Y12674D01*
X148827Y12669D01*
Y12669D01*
X148827Y12669D01*
X151000D01*
Y15244D01*
X151500D01*
Y15744D01*
X154173D01*
Y17819D01*
D01*
Y17819D01*
X154173Y17819D01*
Y18181D01*
X154173D01*
Y23331D01*
X149637D01*
X148814Y23880D01*
X148631Y24104D01*
X148729Y24600D01*
Y26169D01*
X149873D01*
Y30974D01*
X149873D01*
X149873Y30974D01*
X149873Y31319D01*
Y31500D01*
Y31681D01*
X149873Y32026D01*
X149873Y32026D01*
X149873D01*
Y35160D01*
X151081Y36368D01*
X151413Y36864D01*
X151529Y37450D01*
X151529Y37450D01*
X151529Y37450D01*
Y37450D01*
Y40316D01*
X151622Y40378D01*
X152120Y41122D01*
X152294Y42000D01*
X152120Y42878D01*
X151622Y43622D01*
X151529Y43684D01*
Y48316D01*
X151622Y48378D01*
X152120Y49122D01*
X152294Y50000D01*
X152120Y50878D01*
X151622Y51622D01*
X150878Y52119D01*
X150000Y52294D01*
D02*
G37*
G36*
X69000Y37744D02*
X66827D01*
Y35669D01*
X69000D01*
Y37744D01*
D02*
G37*
G36*
X72173D02*
X70000D01*
Y35669D01*
X72173D01*
Y37744D01*
D02*
G37*
G36*
X23000Y21618D02*
X20630D01*
Y19150D01*
X23000D01*
Y21618D01*
D02*
G37*
G36*
X161173Y14744D02*
X159000D01*
Y12669D01*
X161173D01*
Y14744D01*
D02*
G37*
G36*
X117000Y15744D02*
X114827D01*
Y13669D01*
X117000D01*
Y15744D01*
D02*
G37*
G36*
X120173D02*
X118000D01*
Y13669D01*
X120173D01*
Y15744D01*
D02*
G37*
G36*
X153831Y106173D02*
X151756D01*
Y104000D01*
X153831D01*
Y106173D01*
D02*
G37*
G36*
X8244Y116000D02*
X6169D01*
Y113827D01*
X8244D01*
Y116000D01*
D02*
G37*
G36*
X80244Y106173D02*
X78169D01*
Y104000D01*
X80244D01*
Y106173D01*
D02*
G37*
G36*
Y103000D02*
X78169D01*
Y100827D01*
X80097D01*
Y100827D01*
X80097Y100827D01*
X80244D01*
Y103000D01*
D02*
G37*
G36*
X153831D02*
X151756D01*
Y100827D01*
X153831D01*
Y103000D01*
D02*
G37*
G36*
X8244Y119173D02*
X6169D01*
Y117000D01*
X8244D01*
Y119173D01*
D02*
G37*
G36*
X45000Y197020D02*
X18000D01*
X17610Y196942D01*
X17279Y196721D01*
X17058Y196390D01*
X16980Y196000D01*
Y160000D01*
X17058Y159610D01*
X17279Y159279D01*
X17610Y159058D01*
X18000Y158980D01*
X45000D01*
X45390Y159058D01*
X45721Y159279D01*
X45942Y159610D01*
X46020Y160000D01*
Y196000D01*
X45942Y196390D01*
X45721Y196721D01*
X45390Y196942D01*
X45000Y197020D01*
D02*
G37*
G36*
X105500Y218500D02*
X97500D01*
Y216529D01*
X86945D01*
Y217945D01*
X78055D01*
Y209055D01*
X86945D01*
Y213471D01*
X97500D01*
Y211500D01*
X105500D01*
Y218500D01*
D02*
G37*
G36*
X167019Y219529D02*
X165843Y219413D01*
X164712Y219070D01*
X163670Y218513D01*
X162978Y217945D01*
X162575D01*
Y217542D01*
X162007Y216849D01*
X161449Y215807D01*
X161106Y214676D01*
X160991Y213500D01*
X161016Y213244D01*
X161011Y213178D01*
X160984Y213084D01*
X160996Y212981D01*
X160988Y212878D01*
X161018Y212786D01*
X161029Y212689D01*
X161089Y212503D01*
X161106Y212324D01*
X161449Y211193D01*
X161598Y210914D01*
X169331Y186808D01*
X168741Y186000D01*
X164500D01*
Y184029D01*
X163500D01*
X162915Y183913D01*
X162419Y183581D01*
X160419Y181581D01*
X160087Y181085D01*
X159971Y180500D01*
Y151118D01*
X158630D01*
Y145526D01*
X158630D01*
X158630Y145526D01*
X158630Y145181D01*
Y145000D01*
Y144819D01*
X158630Y144474D01*
X158630Y144474D01*
X158630D01*
Y138882D01*
X159971D01*
Y124684D01*
X159878Y124622D01*
X159380Y123878D01*
X159206Y123000D01*
X159380Y122122D01*
X159878Y121378D01*
X160622Y120880D01*
X161500Y120706D01*
X162378Y120880D01*
X163122Y121378D01*
X163619Y122122D01*
X163794Y123000D01*
X163619Y123878D01*
X163122Y124622D01*
X163029Y124684D01*
Y138882D01*
X164370D01*
Y144474D01*
X164370D01*
X164370Y144474D01*
X164370Y144819D01*
Y145000D01*
Y145181D01*
X164370Y145526D01*
X164370Y145526D01*
X164370D01*
Y151118D01*
X163029D01*
Y153222D01*
X163953Y153605D01*
X167480Y150078D01*
Y145500D01*
X167558Y145110D01*
X167685Y144920D01*
Y144150D01*
X180315D01*
D01*
X180315D01*
X180471Y143994D01*
Y135184D01*
X180378Y135122D01*
X179880Y134378D01*
X179706Y133500D01*
X179880Y132622D01*
X180378Y131878D01*
X179699Y130862D01*
X161419Y112581D01*
X161087Y112085D01*
X160971Y111500D01*
Y70634D01*
X158419Y68081D01*
X158087Y67585D01*
X157971Y67000D01*
Y48684D01*
X157878Y48622D01*
X157380Y47878D01*
X157206Y47000D01*
X157380Y46122D01*
X157878Y45378D01*
X158622Y44881D01*
X159500Y44706D01*
X159706Y44500D01*
X159880Y43622D01*
X160378Y42878D01*
X160569Y42750D01*
X160374Y41769D01*
X159622Y41620D01*
X158878Y41122D01*
X158380Y40378D01*
X158206Y39500D01*
X158228Y39391D01*
X157419Y38581D01*
X157087Y38085D01*
X156971Y37500D01*
Y36831D01*
X155827D01*
Y32026D01*
X155827D01*
X155827Y32026D01*
X155827Y31681D01*
Y31500D01*
Y31319D01*
X155827Y30974D01*
X155827Y30974D01*
X155827D01*
Y26169D01*
X156971D01*
Y23331D01*
X155827D01*
Y18526D01*
X155827D01*
X155827Y18526D01*
X155827Y18181D01*
Y18000D01*
Y17819D01*
X155827Y17474D01*
X155827Y17474D01*
X155827D01*
Y15744D01*
X161173D01*
Y17474D01*
X161173D01*
X161173Y17474D01*
X161173Y17819D01*
Y18000D01*
Y18181D01*
X161173Y18526D01*
X161173Y18526D01*
X161173D01*
Y19620D01*
X162827D01*
Y18181D01*
X162827Y18181D01*
X162827Y17819D01*
X162827D01*
Y12669D01*
X168168D01*
X168471Y12366D01*
Y8684D01*
X168378Y8622D01*
X167880Y7878D01*
X167706Y7000D01*
X167880Y6122D01*
X168378Y5378D01*
X169122Y4881D01*
X170000Y4706D01*
X170878Y4881D01*
X171622Y5378D01*
X172119Y6122D01*
X172294Y7000D01*
X172119Y7878D01*
X171622Y8622D01*
X171529Y8684D01*
Y13000D01*
X171413Y13585D01*
X171081Y14081D01*
X171078Y14085D01*
X171176Y15080D01*
X171622Y15378D01*
X172119Y16122D01*
X172294Y17000D01*
X172119Y17878D01*
X171622Y18622D01*
X171529Y18684D01*
Y19500D01*
X171413Y20085D01*
X171081Y20581D01*
X169432Y22231D01*
X168936Y22563D01*
X168350Y22679D01*
X168173D01*
Y23331D01*
X162827D01*
Y22679D01*
X161173D01*
Y23331D01*
X160029D01*
Y26169D01*
X161173D01*
Y30974D01*
X161173D01*
X161173Y30974D01*
X161173Y31319D01*
Y31500D01*
Y31681D01*
X161173Y32026D01*
X161173Y32026D01*
X161173D01*
Y36831D01*
X161173D01*
Y37307D01*
X162172Y37354D01*
X162204Y37023D01*
X162206Y37000D01*
X162206Y37000D01*
X162206D01*
D01*
D01*
D01*
X162381Y36122D01*
X162878Y35378D01*
X163622Y34881D01*
X164500Y34706D01*
X164706Y34500D01*
X164881Y33622D01*
X165378Y32878D01*
X166122Y32381D01*
X167000Y32206D01*
X167206Y32000D01*
X167380Y31122D01*
X167878Y30378D01*
X168622Y29880D01*
X169500Y29706D01*
X169706Y29500D01*
X169880Y28622D01*
X170378Y27878D01*
X171122Y27380D01*
X172000Y27206D01*
X172206Y27000D01*
X172380Y26122D01*
X172878Y25378D01*
X173622Y24881D01*
X174500Y24706D01*
X174706Y24500D01*
X174881Y23622D01*
X175378Y22878D01*
X176122Y22380D01*
X177000Y22206D01*
X177198Y22245D01*
X177971Y21611D01*
Y11184D01*
X177878Y11122D01*
X177381Y10378D01*
X177206Y9500D01*
X177381Y8622D01*
X177878Y7878D01*
X178622Y7380D01*
X179500Y7206D01*
X180378Y7380D01*
X181122Y7878D01*
X181620Y8622D01*
X181794Y9500D01*
X182000Y9706D01*
X182878Y9881D01*
X183622Y10378D01*
X184119Y11122D01*
X184294Y12000D01*
X184500Y12206D01*
X185378Y12381D01*
X186122Y12878D01*
X186619Y13622D01*
X186794Y14500D01*
X186619Y15378D01*
X186122Y16122D01*
X186029Y16611D01*
D01*
X186802Y17245D01*
X187000Y17206D01*
X187878Y17380D01*
X188622Y17878D01*
X189120Y18622D01*
X189294Y19500D01*
X189500Y19706D01*
X190378Y19881D01*
X191122Y20378D01*
X191620Y21122D01*
X191794Y22000D01*
X191620Y22878D01*
X191122Y23622D01*
X191801Y24638D01*
X199891Y32728D01*
X200000Y32706D01*
X200878Y32880D01*
X201622Y33378D01*
X202119Y34122D01*
X202294Y35000D01*
X202119Y35878D01*
X201622Y36622D01*
X200878Y37119D01*
X200000Y37294D01*
X199122Y37119D01*
X198378Y36622D01*
X197880Y35878D01*
X197706Y35000D01*
X197728Y34891D01*
X189453Y26616D01*
X188529Y26999D01*
Y31367D01*
X199891Y42728D01*
X200000Y42706D01*
X200878Y42880D01*
X201622Y43378D01*
X202119Y44122D01*
X202294Y45000D01*
X202119Y45878D01*
X201622Y46622D01*
X200878Y47120D01*
X200000Y47294D01*
X199122Y47120D01*
X198378Y46622D01*
X197880Y45878D01*
X197706Y45000D01*
X197728Y44891D01*
X186953Y34116D01*
X186029Y34499D01*
Y38866D01*
X199891Y52728D01*
X200000Y52706D01*
X200878Y52881D01*
X201622Y53378D01*
X202119Y54122D01*
X202294Y55000D01*
X202119Y55878D01*
X201622Y56622D01*
X200878Y57119D01*
X200000Y57294D01*
X199122Y57119D01*
X198378Y56622D01*
X197880Y55878D01*
X197706Y55000D01*
X197728Y54891D01*
X184453Y41616D01*
X183529Y41999D01*
Y46367D01*
X199891Y62728D01*
X200000Y62706D01*
X200878Y62881D01*
X201622Y63378D01*
X202119Y64122D01*
X202294Y65000D01*
X202119Y65878D01*
X201622Y66622D01*
X200878Y67119D01*
X200000Y67294D01*
X199122Y67119D01*
X198378Y66622D01*
X197880Y65878D01*
X197706Y65000D01*
X197728Y64891D01*
X181953Y49116D01*
X181029Y49499D01*
Y83867D01*
X199891Y102728D01*
X200000Y102706D01*
X200878Y102881D01*
X201622Y103378D01*
X202119Y104122D01*
X202294Y105000D01*
X202119Y105878D01*
X201622Y106622D01*
X200878Y107120D01*
X200000Y107294D01*
X199122Y107120D01*
X198378Y106622D01*
X197880Y105878D01*
X197706Y105000D01*
X197728Y104891D01*
X179453Y86616D01*
X178529Y86999D01*
Y113316D01*
X178622Y113378D01*
X179120Y114122D01*
X179294Y115000D01*
X179120Y115878D01*
X178622Y116622D01*
X177878Y117120D01*
X177000Y117294D01*
X176122Y117120D01*
X175378Y116622D01*
X174881Y115878D01*
X174706Y115000D01*
X174881Y114122D01*
X175378Y113378D01*
X175471Y113316D01*
Y107889D01*
X174698Y107255D01*
X174500Y107294D01*
X173622Y107120D01*
X172878Y106622D01*
X172380Y105878D01*
X172206Y105000D01*
X172380Y104122D01*
X172878Y103378D01*
X172971Y103316D01*
Y97889D01*
X172198Y97255D01*
X172000Y97294D01*
X171122Y97119D01*
X170378Y96622D01*
X169880Y95878D01*
X169706Y95000D01*
X169880Y94122D01*
X170378Y93378D01*
X170471Y93316D01*
Y87889D01*
X169698Y87255D01*
X169500Y87294D01*
X168622Y87119D01*
X167878Y86622D01*
X167380Y85878D01*
X167206Y85000D01*
X167380Y84122D01*
X167878Y83378D01*
X167971Y83316D01*
Y77889D01*
X167198Y77255D01*
X167000Y77294D01*
X166802Y77255D01*
X166029Y77889D01*
Y110038D01*
X182962Y126971D01*
X192867D01*
X193169Y126669D01*
X193665Y126337D01*
X194250Y126221D01*
X197750D01*
X198335Y126337D01*
X198831Y126669D01*
X200775Y128612D01*
X201122Y128381D01*
X202000Y128206D01*
X202878Y128381D01*
X203622Y128878D01*
X204119Y129622D01*
X204294Y130500D01*
X204119Y131378D01*
X203622Y132122D01*
X202878Y132620D01*
X202000Y132794D01*
X201122Y132620D01*
X200378Y132122D01*
X200288Y131987D01*
X199924Y131915D01*
X199915Y131913D01*
X199419Y131581D01*
X198322Y130485D01*
X198119Y131378D01*
Y131378D01*
D01*
D01*
D01*
X198119Y131378D01*
X197622Y132122D01*
X196878Y132620D01*
X196000Y132794D01*
X195122Y132620D01*
X194378Y132122D01*
X194316Y132029D01*
X184790D01*
X184155Y132802D01*
X184294Y133500D01*
X184119Y134378D01*
X183622Y135122D01*
X183529Y135184D01*
Y137480D01*
X194500D01*
X194592Y137499D01*
X194687Y137498D01*
X194786Y137537D01*
X194890Y137558D01*
X194969Y137610D01*
X195056Y137645D01*
X195132Y137720D01*
X195221Y137779D01*
X195273Y137857D01*
X195341Y137923D01*
X207051Y155000D01*
X208471D01*
Y153000D01*
X208587Y152415D01*
X208864Y152000D01*
X208708Y151708D01*
X208118Y151118D01*
X207630D01*
Y145526D01*
X207630D01*
X207630Y145526D01*
X207630Y145181D01*
Y145000D01*
Y144819D01*
X207630Y144474D01*
X207630Y144474D01*
X207630D01*
Y138882D01*
X208971D01*
Y129684D01*
X208878Y129622D01*
X208381Y128878D01*
X208206Y128000D01*
X208381Y127122D01*
X208878Y126378D01*
X209622Y125881D01*
X210500Y125706D01*
X211378Y125881D01*
X212122Y126378D01*
X212619Y127122D01*
X212794Y128000D01*
X212619Y128878D01*
X212122Y129622D01*
X212029Y129684D01*
Y138882D01*
X213370D01*
Y144474D01*
X213370D01*
X213370Y144474D01*
X213370Y144819D01*
Y145000D01*
Y145181D01*
X213370Y145526D01*
X213370Y145526D01*
X213370D01*
Y151118D01*
X212029D01*
Y152500D01*
X211913Y153085D01*
X211581Y153581D01*
X211529Y153633D01*
Y155000D01*
X212500D01*
Y162000D01*
X206598D01*
X206500Y162020D01*
X193500D01*
X193412Y162002D01*
X193191Y162415D01*
X193094Y162649D01*
X193650Y163480D01*
X213000D01*
X213390Y163558D01*
X213721Y163779D01*
X213763Y163842D01*
X213815D01*
Y163919D01*
X213942Y164110D01*
X214020Y164500D01*
Y186500D01*
X214003Y186581D01*
X214006Y186663D01*
X213965Y186774D01*
X213942Y186890D01*
X213896Y186959D01*
X213867Y187036D01*
X213787Y187123D01*
X213721Y187221D01*
X213652Y187267D01*
X213596Y187327D01*
X171464Y217701D01*
Y217945D01*
X171126D01*
X170596Y218327D01*
X170595Y218328D01*
X170369Y218513D01*
X169327Y219070D01*
X168196Y219413D01*
X167019Y219529D01*
D02*
G37*
G36*
X8244Y123000D02*
X6169D01*
Y120827D01*
X8244D01*
Y123000D01*
D02*
G37*
G36*
X8096Y126173D02*
Y126173D01*
X6169D01*
Y124000D01*
X8244D01*
Y126173D01*
X8096D01*
X8096Y126173D01*
D02*
G37*
G36*
X19650Y86158D02*
X16000D01*
Y79358D01*
X19650D01*
Y86158D01*
D02*
G37*
G36*
X56701Y85900D02*
X51951D01*
Y80000D01*
X56701D01*
Y85900D01*
D02*
G37*
G36*
X15000Y86158D02*
X11350D01*
Y79358D01*
X15000D01*
Y86158D01*
D02*
G37*
G36*
X56701Y79000D02*
X51951D01*
Y73100D01*
X56701D01*
Y79000D01*
D02*
G37*
G36*
X62451D02*
X57701D01*
Y73100D01*
X62451D01*
Y79000D01*
D02*
G37*
G36*
Y85900D02*
X57701D01*
Y80000D01*
X62451D01*
Y85900D01*
D02*
G37*
G36*
X71244Y97673D02*
X69169D01*
Y95500D01*
X71244D01*
Y97673D01*
D02*
G37*
G36*
X30000Y97294D02*
X29122Y97119D01*
X28378Y96622D01*
X27880Y95878D01*
X27706Y95000D01*
X27728Y94891D01*
X23919Y91081D01*
X23587Y90585D01*
X23471Y90000D01*
Y77600D01*
X22950D01*
Y77600D01*
X17500D01*
Y74500D01*
X16500D01*
Y77600D01*
X11050D01*
Y71400D01*
X12937D01*
X13240Y71097D01*
X13918Y70081D01*
X12737Y68900D01*
X11050D01*
Y62700D01*
X13650D01*
X14881Y61878D01*
X14706Y61000D01*
X14881Y60122D01*
X15378Y59378D01*
X16122Y58881D01*
X17000Y58706D01*
X17878Y58881D01*
X18622Y59378D01*
X19119Y60122D01*
X19294Y61000D01*
X19119Y61878D01*
X20350Y62700D01*
X22950D01*
Y63026D01*
X23723Y63661D01*
X24500Y63506D01*
X25378Y63681D01*
X26122Y64178D01*
X26619Y64922D01*
X26794Y65800D01*
X26619Y66678D01*
X26122Y67422D01*
X25856Y67600D01*
X25758Y68595D01*
X29891Y72728D01*
X30000Y72706D01*
X30878Y72881D01*
X31622Y73378D01*
X32120Y74122D01*
X32294Y75000D01*
X32120Y75878D01*
X31622Y76622D01*
X30878Y77119D01*
X30000Y77294D01*
X29802Y77255D01*
X29029Y77889D01*
Y81867D01*
X29891Y82728D01*
X30000Y82706D01*
X30878Y82881D01*
X31622Y83378D01*
X32120Y84122D01*
X32294Y85000D01*
X32120Y85878D01*
X31622Y86622D01*
X30878Y87119D01*
X30000Y87294D01*
X29122Y87119D01*
X28378Y86622D01*
X27880Y85878D01*
X27770Y85322D01*
X26888Y84850D01*
X26529Y84999D01*
Y89367D01*
X29891Y92728D01*
X30000Y92706D01*
X30878Y92881D01*
X31622Y93378D01*
X32120Y94122D01*
X32294Y95000D01*
X32120Y95878D01*
X31622Y96622D01*
X30878Y97119D01*
X30000Y97294D01*
D02*
G37*
G36*
X71244Y94500D02*
X69169D01*
Y92327D01*
X71244D01*
Y94500D01*
D02*
G37*
G36*
X15000Y93957D02*
X11350D01*
Y87157D01*
X15000D01*
Y93957D01*
D02*
G37*
G36*
X19650D02*
X16000D01*
Y87157D01*
X19650D01*
Y93957D01*
D02*
G37*
%LPD*%
G36*
X190980Y175078D02*
Y165250D01*
X186943Y161213D01*
X186020Y161595D01*
Y176500D01*
X185942Y176890D01*
X185803Y177099D01*
X186274Y177980D01*
X188078D01*
X190980Y175078D01*
D02*
G37*
G36*
X213000Y186500D02*
Y164500D01*
X192000D01*
Y175500D01*
X188500Y179000D01*
X170500D01*
Y186500D01*
X162000Y213000D01*
X170000Y217500D01*
X213000Y186500D01*
D02*
G37*
G36*
X206500Y156000D02*
X194500Y138500D01*
X183500D01*
Y150000D01*
X186000Y152500D01*
X190000D01*
X193500Y156000D01*
Y161000D01*
X206500D01*
Y156000D01*
D02*
G37*
G36*
X185000D02*
X179500Y150500D01*
Y145500D01*
X168500D01*
Y150500D01*
X164000Y155000D01*
Y176500D01*
X185000D01*
Y156000D01*
D02*
G37*
G36*
X45000Y160000D02*
X18000D01*
Y196000D01*
X45000D01*
Y160000D01*
D02*
G37*
D10*
X20700Y65800D02*
D03*
X17000D02*
D03*
X13300D02*
D03*
Y74500D02*
D03*
X17000D02*
D03*
X20700D02*
D03*
D11*
X70240Y16740D02*
D03*
X62760D02*
D03*
X66500Y9260D02*
D03*
X56740Y16740D02*
D03*
X49260D02*
D03*
X53000Y9260D02*
D03*
D12*
X57201Y79500D02*
D03*
X39799D02*
D03*
D13*
X23400Y169326D02*
D03*
Y135074D02*
D03*
Y186574D02*
D03*
Y220826D02*
D03*
D14*
X15500Y86658D02*
D03*
Y106342D02*
D03*
D15*
X202579Y174685D02*
D03*
X62421Y166315D02*
D03*
X118421D02*
D03*
X174421D02*
D03*
X90579Y174685D02*
D03*
X146579D02*
D03*
D16*
X210000Y158500D02*
D03*
X205000D02*
D03*
X200000D02*
D03*
X195000D02*
D03*
X55000Y182500D02*
D03*
X60000D02*
D03*
X65000D02*
D03*
X70000D02*
D03*
X111000D02*
D03*
X116000D02*
D03*
X121000D02*
D03*
X126000D02*
D03*
X167000D02*
D03*
X172000D02*
D03*
X177000D02*
D03*
X182000D02*
D03*
X98000Y158500D02*
D03*
X93000D02*
D03*
X88000D02*
D03*
X83000D02*
D03*
X154000D02*
D03*
X149000D02*
D03*
X144000D02*
D03*
X139000D02*
D03*
D17*
X15500Y18500D02*
D03*
Y9500D02*
D03*
X78000D02*
D03*
Y18500D02*
D03*
X41500Y9500D02*
D03*
Y18500D02*
D03*
X101500Y215000D02*
D03*
Y224000D02*
D03*
D18*
X47500Y121000D02*
D03*
Y94000D02*
D03*
D19*
X31500Y43660D02*
D03*
Y46220D02*
D03*
Y48780D02*
D03*
Y51340D02*
D03*
X42500D02*
D03*
Y48780D02*
D03*
Y46220D02*
D03*
Y43660D02*
D03*
D20*
X85602Y64992D02*
D03*
X87570D02*
D03*
X89539D02*
D03*
X91509D02*
D03*
X93479D02*
D03*
X95449D02*
D03*
X97419D02*
D03*
X99389D02*
D03*
X101359D02*
D03*
X103329D02*
D03*
X105299D02*
D03*
X107269D02*
D03*
X109239D02*
D03*
X111209D02*
D03*
X113179D02*
D03*
X115149D02*
D03*
X117119D02*
D03*
X119089D02*
D03*
X121059D02*
D03*
X123029D02*
D03*
X124999D02*
D03*
X126969D02*
D03*
X128939D02*
D03*
X130909D02*
D03*
X132879D02*
D03*
X134849D02*
D03*
X136817D02*
D03*
X138786D02*
D03*
Y94992D02*
D03*
X136817D02*
D03*
X134849D02*
D03*
X132879D02*
D03*
X130909D02*
D03*
X128939D02*
D03*
X126969D02*
D03*
X124999D02*
D03*
X123029D02*
D03*
X121059D02*
D03*
X119089D02*
D03*
X117119D02*
D03*
X115149D02*
D03*
X113179D02*
D03*
X111209D02*
D03*
X109239D02*
D03*
X107269D02*
D03*
X105299D02*
D03*
X103329D02*
D03*
X101359D02*
D03*
X99389D02*
D03*
X97419D02*
D03*
X95449D02*
D03*
X93479D02*
D03*
X91509D02*
D03*
X89539D02*
D03*
X87570D02*
D03*
X85602D02*
D03*
D21*
X112499Y80002D02*
D03*
D22*
X89500Y12744D02*
D03*
Y18256D02*
D03*
X30000Y12744D02*
D03*
Y18256D02*
D03*
X92500Y38244D02*
D03*
Y43756D02*
D03*
X117500Y16244D02*
D03*
Y21756D02*
D03*
Y31744D02*
D03*
Y37256D02*
D03*
X100500Y117244D02*
D03*
Y122756D02*
D03*
X112000Y117244D02*
D03*
Y122756D02*
D03*
X122500Y117244D02*
D03*
Y122756D02*
D03*
X93500Y113756D02*
D03*
Y108244D02*
D03*
X69500Y65244D02*
D03*
Y70756D02*
D03*
Y51744D02*
D03*
Y57256D02*
D03*
X76500Y43756D02*
D03*
Y38244D02*
D03*
X69500Y38244D02*
D03*
Y43756D02*
D03*
X106000Y10744D02*
D03*
Y16256D02*
D03*
X83500Y43756D02*
D03*
Y38244D02*
D03*
X76500Y70756D02*
D03*
Y65244D02*
D03*
Y51744D02*
D03*
Y57256D02*
D03*
X147200Y28744D02*
D03*
Y34256D02*
D03*
X158500Y34256D02*
D03*
Y28744D02*
D03*
X165500Y15244D02*
D03*
Y20756D02*
D03*
X138500Y15244D02*
D03*
Y20756D02*
D03*
X151500Y15244D02*
D03*
Y20756D02*
D03*
X158500Y15244D02*
D03*
Y20756D02*
D03*
X111500Y216744D02*
D03*
Y222256D02*
D03*
X23500Y18256D02*
D03*
Y12744D02*
D03*
X50500Y142244D02*
D03*
Y147756D02*
D03*
X105500Y142244D02*
D03*
Y147756D02*
D03*
X161500Y142244D02*
D03*
Y147756D02*
D03*
X98500Y142244D02*
D03*
Y147756D02*
D03*
X154500Y142244D02*
D03*
Y147756D02*
D03*
X210500Y142244D02*
D03*
Y147756D02*
D03*
X17000Y44244D02*
D03*
Y49756D02*
D03*
X33500Y59244D02*
D03*
Y64756D02*
D03*
X24000Y43756D02*
D03*
Y38244D02*
D03*
X40500Y64756D02*
D03*
Y59244D02*
D03*
X24000Y57256D02*
D03*
Y51744D02*
D03*
D23*
X55756Y24500D02*
D03*
X50244D02*
D03*
X69256D02*
D03*
X63744D02*
D03*
X145744Y103500D02*
D03*
X151256D02*
D03*
X86256D02*
D03*
X80744D02*
D03*
X14256Y123500D02*
D03*
X8744D02*
D03*
X14256Y116500D02*
D03*
X8744D02*
D03*
X77256Y95000D02*
D03*
X71744D02*
D03*
X139744Y53000D02*
D03*
X145256D02*
D03*
X139744Y46000D02*
D03*
X145256D02*
D03*
X38744Y36000D02*
D03*
X44256D02*
D03*
X56256Y43000D02*
D03*
X50744D02*
D03*
X56256Y52000D02*
D03*
X50744D02*
D03*
D24*
X109000Y35953D02*
D03*
Y30047D02*
D03*
D25*
X156815Y113500D02*
D03*
X146185D02*
D03*
X75185D02*
D03*
X85815D02*
D03*
D26*
X62000Y136685D02*
D03*
Y147315D02*
D03*
X118000Y136685D02*
D03*
Y147315D02*
D03*
X174000Y136685D02*
D03*
Y147315D02*
D03*
D27*
X150000Y37450D02*
Y42000D01*
X147200Y34650D02*
X150000Y37450D01*
X147200Y24600D02*
Y28350D01*
X145000Y22400D02*
X147200Y24600D01*
X161500Y180500D02*
X163500Y182500D01*
X161500Y148150D02*
Y180500D01*
X105500Y179500D02*
X108500Y182500D01*
X105500Y148150D02*
Y179500D01*
X52400Y182500D02*
X55000D01*
X49900Y180000D02*
X52400Y182500D01*
X49900Y152600D02*
Y180000D01*
Y152600D02*
X50500Y152000D01*
X17000Y61000D02*
Y65800D01*
X25000Y90000D02*
X30000Y95000D01*
X25000Y76100D02*
Y90000D01*
X23400Y74500D02*
X25000Y76100D01*
X27500Y82500D02*
X30000Y85000D01*
X27500Y76000D02*
Y82500D01*
X22800Y71300D02*
X27500Y76000D01*
X24000Y69000D02*
X30000Y75000D01*
X15000Y69000D02*
X24000D01*
X20700Y74500D02*
X23400D01*
X15200Y71300D02*
X22800D01*
X20700Y65800D02*
X24500D01*
X13300Y73200D02*
X15200Y71300D01*
X13300Y73200D02*
Y74500D01*
Y67300D02*
X15000Y69000D01*
X13300Y65800D02*
Y67300D01*
X145500Y109500D02*
Y126500D01*
Y108000D02*
Y109500D01*
X118000Y148000D02*
X124000D01*
X62146Y147854D02*
X83500Y126500D01*
X62000Y148000D02*
X62146Y147854D01*
X100500Y123150D02*
Y126000D01*
X50500Y148150D02*
Y152000D01*
X98400Y103837D02*
Y112100D01*
X107850Y222650D02*
X111500D01*
X106500Y224000D02*
X107850Y222650D01*
X101500Y224000D02*
X106500D01*
X84000Y215000D02*
X101500D01*
X82500Y213500D02*
X84000Y215000D01*
X179500Y9500D02*
Y84500D01*
X187000Y32000D02*
X200000Y45000D01*
X184500Y39500D02*
X200000Y55000D01*
X182000Y47000D02*
X200000Y65000D01*
X179500Y84500D02*
X200000Y105000D01*
X164500Y37000D02*
Y65000D01*
X167000Y34500D02*
Y75000D01*
X169500Y32000D02*
Y85000D01*
X174500Y27000D02*
Y105000D01*
X140500Y107500D02*
Y124500D01*
X136819Y103819D02*
X140500Y107500D01*
X138500Y108500D02*
Y122500D01*
X134849Y104849D02*
X138500Y108500D01*
X136000Y109000D02*
Y122000D01*
X132879Y105879D02*
X136000Y109000D01*
X134000Y110000D02*
Y121500D01*
X130909Y106909D02*
X134000Y110000D01*
X131500Y110500D02*
Y120000D01*
X128939Y107939D02*
X131500Y110500D01*
X129000Y111000D02*
Y117500D01*
X126969Y108969D02*
X129000Y111000D01*
X126500Y111500D02*
Y123000D01*
X124999Y109999D02*
X126500Y111500D01*
X77658Y94992D02*
X85602D01*
X50500Y135000D02*
Y141850D01*
Y135000D02*
X54000Y131500D01*
X100500Y108000D02*
Y116850D01*
X100000Y107500D02*
X100500Y108000D01*
X100000Y104500D02*
Y107500D01*
Y104500D02*
X101359Y103141D01*
X100500Y123150D02*
X104000Y119650D01*
X127000Y132000D02*
Y135500D01*
X125000Y130000D02*
X127000Y132000D01*
X116000Y130000D02*
X125000D01*
X114769Y128769D02*
X116000Y130000D01*
X114769Y125919D02*
Y128769D01*
X112000Y123150D02*
X114769Y125919D01*
X120500Y127500D02*
X123000D01*
X104000Y108500D02*
Y119650D01*
Y108500D02*
X105299Y107201D01*
X98500Y131500D02*
Y141850D01*
Y131500D02*
X106000Y124000D01*
Y109500D02*
Y124000D01*
Y109500D02*
X107269Y108231D01*
X108000Y110500D02*
Y127500D01*
Y110500D02*
X109240Y109260D01*
X110000Y114850D02*
X112000Y116850D01*
X110000Y111263D02*
Y114850D01*
Y111263D02*
X111209Y110054D01*
X121059Y113059D02*
X122500Y114500D01*
X105500Y134000D02*
Y141850D01*
Y134000D02*
X112000Y127500D01*
Y123150D02*
X115149Y120001D01*
X161500Y123000D02*
Y141850D01*
X154500Y123000D02*
Y141850D01*
X210500Y128000D02*
Y141850D01*
X98000Y153500D02*
Y158500D01*
Y153500D02*
X98500Y153000D01*
Y148150D02*
Y153000D01*
X163500Y182500D02*
X167000D01*
X108500D02*
X111000D01*
X154000Y153000D02*
Y158500D01*
Y153000D02*
X154500Y152500D01*
Y148150D02*
Y152500D01*
X210000Y153000D02*
Y158500D01*
Y153000D02*
X210500Y152500D01*
Y148150D02*
Y152500D01*
X132000Y127500D02*
X133000Y126500D01*
X135000Y123000D02*
X136000Y122000D01*
X135000Y123000D02*
Y128000D01*
X137500Y123500D02*
Y125500D01*
Y123500D02*
X138500Y122500D01*
X146579Y213059D02*
X147020Y213500D01*
X146579Y174685D02*
X147020Y175126D01*
X83000Y158500D02*
X88000D01*
X93000D01*
X139000D02*
X144000D01*
X149000D01*
X195000D02*
X200000D01*
X205000D01*
X121000Y182500D02*
X126000D01*
X116000D02*
X121000D01*
X177000D02*
X182000D01*
X172000D02*
X177000D01*
X124000Y148000D02*
X145500Y126500D01*
X65000Y182500D02*
X70000D01*
X60000D02*
X65000D01*
X132000Y131000D02*
X135000Y128000D01*
X133000Y122500D02*
Y126500D01*
Y122500D02*
X134000Y121500D01*
X122650Y123000D02*
X126500D01*
X122500Y123150D02*
X122650Y123000D01*
X119089Y126089D02*
X120500Y127500D01*
X122500Y114500D02*
Y116850D01*
X98400Y103837D02*
X99389Y102848D01*
X69500Y51350D02*
X76500D01*
X47130Y46220D02*
X50350Y43000D01*
X42500Y46220D02*
X47130D01*
Y48780D02*
X50350Y52000D01*
X42500Y48780D02*
X47130D01*
X24000Y51350D02*
X31490D01*
X24000Y44150D02*
Y51350D01*
X27850Y37850D02*
X31500Y41500D01*
Y43660D01*
X24000Y37850D02*
X27850D01*
X31500Y48780D02*
X34780D01*
X36000Y50000D01*
X39220Y48780D02*
X42500D01*
X38000Y50000D02*
X39220Y48780D01*
X42500Y38150D02*
Y43660D01*
X39720Y46220D02*
X42500D01*
X38350Y44850D02*
X39720Y46220D01*
X31500D02*
Y48780D01*
X17000Y40000D02*
Y43850D01*
Y40000D02*
X19150Y37850D01*
X24000D01*
X2500Y101500D02*
X7343Y106342D01*
X15500D01*
X47500Y119500D02*
Y124000D01*
X5000Y16500D02*
Y95000D01*
X69500Y64650D02*
X76500Y57650D01*
X42500Y38150D02*
X44650Y36000D01*
X38350D02*
Y44850D01*
X10000Y14000D02*
Y50000D01*
X150000Y42000D02*
Y50000D01*
X164500Y110672D02*
X182328Y128500D01*
X64500Y45500D02*
Y47000D01*
X62000Y43000D02*
X64500Y45500D01*
X56650Y43000D02*
X62000D01*
X61000Y47000D02*
Y50500D01*
X59500Y52000D02*
X61000Y50500D01*
X56650Y52000D02*
X59500D01*
X94000Y132500D02*
X100500Y126000D01*
X74500Y158606D02*
X90579Y174685D01*
X74500Y142500D02*
Y158606D01*
Y142500D02*
X84500Y132500D01*
X94000D01*
X130500Y158606D02*
X146579Y174685D01*
X130500Y154500D02*
Y158606D01*
X127000Y151000D02*
X130500Y154500D01*
X187000Y155500D02*
Y159106D01*
X202579Y174685D01*
X47500Y124000D02*
X50500Y127000D01*
X52000D01*
X97000Y113500D02*
X98400Y112100D01*
X97000Y113500D02*
Y122000D01*
X95500Y123500D02*
X97000Y122000D01*
X96500Y100000D02*
Y111000D01*
X93500Y114000D02*
X96500Y111000D01*
X136817Y94992D02*
Y103817D01*
X134849Y94992D02*
Y104849D01*
X132879Y94992D02*
Y105879D01*
X130909Y94992D02*
Y106909D01*
X128939Y94992D02*
Y107939D01*
X126969Y94992D02*
Y108969D01*
X124999Y94992D02*
Y109999D01*
X123029Y94992D02*
Y111529D01*
X121059Y94992D02*
Y113059D01*
X119089Y94992D02*
Y126089D01*
X117119Y94992D02*
Y127500D01*
X115149Y94992D02*
Y120001D01*
X113179Y94992D02*
Y111821D01*
X112500Y112500D02*
X113179Y111821D01*
X111209Y94992D02*
Y110054D01*
X109239Y94992D02*
Y109259D01*
X109240Y109260D01*
X107269Y94992D02*
Y108231D01*
X105299Y94992D02*
Y107201D01*
X103329Y94992D02*
Y105171D01*
X101359Y94992D02*
Y103141D01*
X99389Y94992D02*
Y102848D01*
X95449Y98949D02*
X96500Y100000D01*
X95449Y94992D02*
Y98949D01*
X96500Y100000D02*
X97419Y99081D01*
Y94992D02*
Y99081D01*
X93479Y94992D02*
Y107829D01*
X93500Y114000D02*
Y114150D01*
X76642Y64992D02*
X85602D01*
X76500Y64850D02*
X76642Y64992D01*
X89539Y57189D02*
Y64992D01*
X76500Y44150D02*
X89539Y57189D01*
X76500Y57650D02*
X85650D01*
X87570Y59570D01*
Y64992D01*
X69500Y44150D02*
X76500D01*
X69500Y44150D02*
X69500Y44150D01*
X91509Y56009D02*
Y64992D01*
X83500Y48000D02*
X91509Y56009D01*
X83500Y44150D02*
Y48000D01*
X89000Y23000D02*
Y47500D01*
X95450Y53950D01*
Y60490D01*
X93480Y54980D02*
Y64991D01*
X95449Y60491D02*
Y64992D01*
X92500Y48000D02*
X97419Y52919D01*
X92500Y44150D02*
Y48000D01*
X96000Y48500D02*
X99390Y51890D01*
Y60490D01*
X98000Y47500D02*
X101360Y50860D01*
Y60490D01*
X100000Y46500D02*
X103330Y49830D01*
Y60490D01*
X102000Y45500D02*
X105300Y48800D01*
Y60490D01*
X104000Y23000D02*
Y44500D01*
X107269Y47769D01*
X138786Y62214D02*
Y65992D01*
Y62214D02*
X145650Y55350D01*
X136817Y61183D02*
Y65992D01*
Y61183D02*
X139350Y58650D01*
X134849Y60151D02*
Y65992D01*
Y60151D02*
X136500Y58500D01*
X132879Y58621D02*
Y64992D01*
Y58621D02*
X133500Y58000D01*
X136500Y57000D02*
Y58500D01*
X145650Y53000D02*
Y55350D01*
X126970Y52030D02*
Y60490D01*
Y52030D02*
X137000Y42000D01*
Y37000D02*
Y42000D01*
X128939Y53061D02*
Y64992D01*
Y53061D02*
X136175Y45825D01*
X139175D01*
X130909Y55091D02*
Y64992D01*
X139350Y53000D02*
Y58650D01*
X145650Y46000D02*
Y53000D01*
X125000Y51000D02*
Y60490D01*
Y51000D02*
X134500Y41500D01*
Y34500D02*
Y41500D01*
X123030Y49970D02*
Y60490D01*
Y49970D02*
X132000Y41000D01*
Y32000D02*
Y41000D01*
X121060Y48940D02*
Y60490D01*
Y48940D02*
X129500Y40500D01*
Y29500D02*
Y40500D01*
X119090Y47910D02*
Y60490D01*
Y47910D02*
X127000Y40000D01*
Y27000D02*
Y40000D01*
X126969Y60491D02*
Y64992D01*
X124999Y60491D02*
Y64992D01*
X123029Y60491D02*
Y64992D01*
X121059Y60491D02*
Y64992D01*
X119089Y60491D02*
Y64992D01*
X117119Y60491D02*
Y64992D01*
X115149Y60491D02*
Y64992D01*
X107269Y47769D02*
Y64992D01*
X105299Y60491D02*
Y64992D01*
X103329Y60491D02*
Y64992D01*
X101359Y60491D02*
Y64992D01*
X99389Y60491D02*
Y64992D01*
X97419Y52919D02*
Y64992D01*
X139500Y39500D02*
Y45500D01*
X139175Y45825D02*
X139500Y45500D01*
X124500Y24500D02*
Y39500D01*
X117120Y46880D02*
Y60490D01*
Y46880D02*
X124500Y39500D01*
X115150Y45850D02*
Y60490D01*
X111209Y43791D02*
Y64992D01*
Y43791D02*
X114000Y41000D01*
Y34850D02*
Y41000D01*
Y34850D02*
X117500Y31350D01*
X109000Y37000D02*
X109239Y37239D01*
X39799Y79500D02*
Y80123D01*
X177000Y24500D02*
Y115000D01*
X172000Y29500D02*
Y95000D01*
X109239Y37239D02*
Y64992D01*
X113179Y44821D02*
Y64992D01*
Y44821D02*
X117500Y40500D01*
X115150Y45850D02*
X122000Y39000D01*
Y26650D02*
Y39000D01*
X117500Y22150D02*
X122000Y26650D01*
X159500Y47000D02*
Y67000D01*
X162500Y70000D01*
Y111500D01*
X162000Y44500D02*
Y66500D01*
X164500Y69000D01*
Y110672D01*
X182000Y12000D02*
Y47000D01*
X184500Y14500D02*
Y39500D01*
X104000Y23000D02*
X106000Y21000D01*
Y16650D02*
Y21000D01*
X187000Y19500D02*
Y32000D01*
X189500Y22000D02*
Y24500D01*
X200000Y35000D01*
X117500Y22150D02*
X120850D01*
X122000Y21000D01*
Y19500D02*
Y21000D01*
X165500Y21150D02*
X168350D01*
X170000Y19500D01*
Y17000D02*
Y19500D01*
X165500Y14850D02*
X168150D01*
X170000Y13000D01*
Y7000D02*
Y13000D01*
X158500Y21150D02*
Y28350D01*
Y21150D02*
X165500D01*
X148650D02*
X151500D01*
X147500Y20000D02*
X148650Y21150D01*
X147500Y14500D02*
Y20000D01*
X145000Y12000D02*
Y22400D01*
X138500Y21150D02*
X141350D01*
X142500Y20000D01*
Y9500D02*
Y20000D01*
X158500Y34650D02*
Y37500D01*
X160500Y39500D01*
X101000Y17000D02*
X102000Y18000D01*
Y45500D01*
X98500Y14500D02*
Y18000D01*
X100000Y19500D01*
Y46500D01*
X96000Y12000D02*
Y18500D01*
X98000Y20500D01*
Y47500D01*
X93500Y9500D02*
Y19000D01*
X96000Y21500D01*
Y48500D01*
X38000Y50000D02*
Y56350D01*
X40500Y58850D01*
X36000Y50000D02*
Y56350D01*
X33500Y58850D02*
X36000Y56350D01*
X33500Y58850D02*
X36650Y62000D01*
X37350D01*
X40500Y65150D01*
X130909Y55091D02*
X134500Y51500D01*
X7500Y19000D02*
Y85000D01*
X87000Y48500D02*
X93480Y54980D01*
X87000Y26500D02*
Y48500D01*
X80000Y31500D02*
X83500Y35000D01*
Y37850D01*
X76500Y35000D02*
X80000Y31500D01*
X76500Y35000D02*
Y37850D01*
X86000Y25500D02*
X87000Y26500D01*
X80000Y28000D02*
Y31500D01*
X62760Y16740D02*
Y23910D01*
X63350Y24500D01*
X70240Y16740D02*
Y23910D01*
X69650Y24500D02*
X70240Y23910D01*
X56740Y16740D02*
Y23910D01*
X56150Y24500D02*
X56740Y23910D01*
X49260Y16740D02*
Y23910D01*
X49850Y24500D01*
X41740Y9260D02*
X53000D01*
X41500Y9500D02*
X41740Y9260D01*
X66500D02*
X77760D01*
X78000Y9500D01*
X78150Y18650D02*
X89500D01*
X78000Y18500D02*
X78150Y18650D01*
X30000D02*
X41350D01*
X41500Y18500D01*
X15500Y9500D02*
X20650D01*
X23500Y12350D01*
X182000Y150500D02*
X187000Y155500D01*
X182000Y133500D02*
Y150500D01*
X162500Y111500D02*
X181500Y130500D01*
X196000D01*
X182328Y128500D02*
X193500D01*
X194250Y127750D01*
X197750D01*
X200500Y130500D01*
X202000D01*
X44650Y36000D02*
X55500D01*
X57500Y34000D01*
X53000Y16500D02*
Y21350D01*
X56150Y24500D01*
X66500Y19000D02*
Y21350D01*
X69650Y24500D01*
X75000Y23000D02*
Y25000D01*
X72000Y28000D02*
X75000Y25000D01*
X66850Y28000D02*
X72000D01*
X63350Y24500D02*
X66850Y28000D01*
X53350D02*
X66850D01*
X49850Y24500D02*
X53350Y28000D01*
X117500Y37650D02*
Y40500D01*
X2500Y30000D02*
Y61000D01*
Y101500D01*
X12500Y26000D02*
Y30000D01*
Y26000D02*
X15500Y23000D01*
Y18500D02*
Y23000D01*
X12500Y30000D02*
Y31201D01*
X19150Y37850D01*
X2500Y21500D02*
Y30000D01*
D28*
X47500Y108000D02*
X55500Y116000D01*
X93500Y114150D02*
Y120500D01*
X39799Y80123D02*
X47500Y87823D01*
Y94000D01*
Y108000D01*
D29*
X90579Y177059D02*
X127020Y213500D01*
X167019D02*
X202579Y177941D01*
Y174685D02*
Y177941D01*
X147079Y174685D02*
Y213059D01*
X90579Y174685D02*
Y177059D01*
D30*
X62500Y213500D02*
D03*
X147020D02*
D03*
X127020D02*
D03*
D31*
X82500D02*
D03*
X167019D02*
D03*
D32*
X49500Y69500D02*
D03*
X2500Y61000D02*
D03*
X17000D02*
D03*
X30000Y95000D02*
D03*
Y75000D02*
D03*
Y85000D02*
D03*
X24500Y65800D02*
D03*
X210000Y12500D02*
D03*
X200000Y22500D02*
D03*
X190000Y12500D02*
D03*
X155000Y3500D02*
D03*
X151500Y113500D02*
D03*
X4000Y128500D02*
D03*
Y111000D02*
D03*
X210000Y224500D02*
D03*
X216500Y205000D02*
D03*
X210000Y195000D02*
D03*
X216500Y180500D02*
D03*
Y165000D02*
D03*
X210000Y60000D02*
D03*
Y40000D02*
D03*
X200000Y12500D02*
D03*
X210000Y3500D02*
D03*
X200000Y224500D02*
D03*
X206000Y205000D02*
D03*
X195000Y80000D02*
D03*
X200000Y35000D02*
D03*
Y3500D02*
D03*
X190000Y224500D02*
D03*
X192500Y205000D02*
D03*
X195000Y117500D02*
D03*
Y105000D02*
D03*
Y92500D02*
D03*
Y67500D02*
D03*
X190000Y3500D02*
D03*
X180000D02*
D03*
X168500D02*
D03*
X167500Y105000D02*
D03*
X160000Y95000D02*
D03*
Y75000D02*
D03*
X150000Y95000D02*
D03*
X155000Y85000D02*
D03*
X150000Y75000D02*
D03*
X155000Y65000D02*
D03*
X150000Y56500D02*
D03*
X142500Y3500D02*
D03*
X145000Y85000D02*
D03*
X140000Y75000D02*
D03*
X145000Y65000D02*
D03*
X130000Y3500D02*
D03*
X120000D02*
D03*
X110000D02*
D03*
X98500D02*
D03*
X85500D02*
D03*
X80500Y112000D02*
D03*
X85000Y75000D02*
D03*
X70000Y215000D02*
D03*
X74500Y99500D02*
D03*
X80000Y85000D02*
D03*
X70000Y3500D02*
D03*
X62500Y204500D02*
D03*
X65000Y105000D02*
D03*
X60000Y95000D02*
D03*
X70000Y85000D02*
D03*
X58500Y3500D02*
D03*
X50500Y215000D02*
D03*
Y204500D02*
D03*
X55000Y105000D02*
D03*
X48500Y79500D02*
D03*
X40000Y215000D02*
D03*
Y204500D02*
D03*
Y155000D02*
D03*
X45000Y145000D02*
D03*
X38500Y135000D02*
D03*
X28500Y204500D02*
D03*
X30000Y155000D02*
D03*
X35000Y145000D02*
D03*
X30000Y135000D02*
D03*
X35000Y128000D02*
D03*
X31500Y3500D02*
D03*
X21500Y204500D02*
D03*
X20000Y155000D02*
D03*
X25000Y145000D02*
D03*
X13000Y213500D02*
D03*
Y204500D02*
D03*
Y195000D02*
D03*
Y185000D02*
D03*
Y175000D02*
D03*
Y165000D02*
D03*
Y155000D02*
D03*
Y145000D02*
D03*
X5000Y3500D02*
D03*
X161000Y206500D02*
D03*
X176500Y217000D02*
D03*
X171000Y224500D02*
D03*
X159500D02*
D03*
X155000Y211000D02*
D03*
X152500Y221000D02*
D03*
X140000D02*
D03*
X134000Y211000D02*
D03*
X130000Y221000D02*
D03*
X117500Y220000D02*
D03*
X109500Y135500D02*
D03*
X165500Y133000D02*
D03*
X190500Y157000D02*
D03*
X188500Y165000D02*
D03*
Y174500D02*
D03*
X158000Y157000D02*
D03*
X47500Y135000D02*
D03*
X70000Y134500D02*
D03*
X53500Y136000D02*
D03*
X72000Y146000D02*
D03*
Y152000D02*
D03*
X102000Y156500D02*
D03*
X55500Y116000D02*
D03*
X93500Y120500D02*
D03*
X160500Y39500D02*
D03*
X139500D02*
D03*
X142500Y9500D02*
D03*
X147500Y14500D02*
D03*
X145000Y12000D02*
D03*
X170000Y17000D02*
D03*
X95500Y123500D02*
D03*
X200000Y45000D02*
D03*
X187000Y19500D02*
D03*
X122000D02*
D03*
X42500Y162500D02*
D03*
X35000D02*
D03*
X42500Y170000D02*
D03*
X35000D02*
D03*
X42500Y177500D02*
D03*
X35000D02*
D03*
X42500Y185000D02*
D03*
X35000D02*
D03*
X42500Y192500D02*
D03*
X35000D02*
D03*
X172500Y143000D02*
D03*
X175000Y141000D02*
D03*
X177500Y143000D02*
D03*
X170000Y141000D02*
D03*
X54000Y131500D02*
D03*
X102500Y106000D02*
D03*
X117119Y127500D02*
D03*
X112500Y112500D02*
D03*
X124000D02*
D03*
X112000Y127500D02*
D03*
X114000Y141000D02*
D03*
X121500Y143000D02*
D03*
X119000Y141000D02*
D03*
X124000D02*
D03*
X116500Y143000D02*
D03*
X56500D02*
D03*
X64000Y141000D02*
D03*
X59000D02*
D03*
X61500Y143000D02*
D03*
X132000Y131000D02*
D03*
X98500Y14500D02*
D03*
X96000Y12000D02*
D03*
X177000Y115000D02*
D03*
X174500Y105000D02*
D03*
X172000Y95000D02*
D03*
X177000Y24500D02*
D03*
X174500Y27000D02*
D03*
X172000Y29500D02*
D03*
X169500Y32000D02*
D03*
X167000Y34500D02*
D03*
X169500Y85000D02*
D03*
X167000Y75000D02*
D03*
X164500Y37000D02*
D03*
Y65000D02*
D03*
X127000Y27000D02*
D03*
X124500Y24500D02*
D03*
X137000Y37000D02*
D03*
X134500Y34500D02*
D03*
X132000Y32000D02*
D03*
X129500Y29500D02*
D03*
X93500Y9500D02*
D03*
X101000Y17000D02*
D03*
X127000Y151000D02*
D03*
X154500Y123000D02*
D03*
X140500Y124500D02*
D03*
X161500Y123000D02*
D03*
X182000Y133500D02*
D03*
X210500Y128000D02*
D03*
X129000Y117500D02*
D03*
X131500Y120000D02*
D03*
X187000Y146000D02*
D03*
Y142000D02*
D03*
X186000Y151000D02*
D03*
X184500Y148000D02*
D03*
Y144000D02*
D03*
Y140000D02*
D03*
X136000Y150000D02*
D03*
Y146000D02*
D03*
X132500Y151000D02*
D03*
Y147500D02*
D03*
X133000Y144000D02*
D03*
X136000Y142000D02*
D03*
X80500Y149500D02*
D03*
Y146000D02*
D03*
X77500Y151000D02*
D03*
Y147500D02*
D03*
X78000Y144000D02*
D03*
X80500Y142000D02*
D03*
X132501Y79998D02*
D03*
Y75498D02*
D03*
Y84498D02*
D03*
X92501Y79998D02*
D03*
Y75498D02*
D03*
Y84498D02*
D03*
X97501Y79998D02*
D03*
Y75498D02*
D03*
Y84498D02*
D03*
X102501Y79998D02*
D03*
Y75498D02*
D03*
Y84498D02*
D03*
X107501Y79998D02*
D03*
Y75498D02*
D03*
Y84498D02*
D03*
X122501Y79998D02*
D03*
Y75498D02*
D03*
Y84498D02*
D03*
X117501Y79998D02*
D03*
Y75498D02*
D03*
Y84498D02*
D03*
X112500Y80000D02*
D03*
Y75500D02*
D03*
Y84500D02*
D03*
X127501Y84498D02*
D03*
Y75498D02*
D03*
Y79998D02*
D03*
X108000Y127500D02*
D03*
X53500Y174500D02*
D03*
X58000D02*
D03*
X62500D02*
D03*
X67000D02*
D03*
X71500D02*
D03*
Y162000D02*
D03*
X67000D02*
D03*
X62500D02*
D03*
X58000D02*
D03*
X53500D02*
D03*
X71500Y170500D02*
D03*
X67000D02*
D03*
X62500D02*
D03*
X58000D02*
D03*
X53500D02*
D03*
X71421Y166315D02*
D03*
X66921D02*
D03*
X62421D02*
D03*
X57921D02*
D03*
X53421D02*
D03*
X109421D02*
D03*
X113921D02*
D03*
X118421D02*
D03*
X122921D02*
D03*
X127421D02*
D03*
X109500Y170500D02*
D03*
X114000D02*
D03*
X118500D02*
D03*
X123000D02*
D03*
X127500D02*
D03*
X109500Y162000D02*
D03*
X114000D02*
D03*
X118500D02*
D03*
X123000D02*
D03*
X127500D02*
D03*
Y174500D02*
D03*
X123000D02*
D03*
X118500D02*
D03*
X114000D02*
D03*
X109500D02*
D03*
X165421Y166315D02*
D03*
X169921D02*
D03*
X174421D02*
D03*
X178921D02*
D03*
X183421D02*
D03*
X165500Y170500D02*
D03*
X170000D02*
D03*
X174500D02*
D03*
X179000D02*
D03*
X183500D02*
D03*
X165500Y162000D02*
D03*
X170000D02*
D03*
X174500D02*
D03*
X179000D02*
D03*
X183500D02*
D03*
Y174500D02*
D03*
X179000D02*
D03*
X174500D02*
D03*
X170000D02*
D03*
X165500D02*
D03*
X127000Y135500D02*
D03*
X132000Y127500D02*
D03*
X137500Y125500D02*
D03*
X126500Y123000D02*
D03*
X184500Y14500D02*
D03*
X182000Y12000D02*
D03*
X179500Y9500D02*
D03*
X200000Y105000D02*
D03*
Y65000D02*
D03*
Y55000D02*
D03*
X123000Y127500D02*
D03*
X134500Y51500D02*
D03*
X136500Y57000D02*
D03*
X133500Y58000D02*
D03*
X159500Y47000D02*
D03*
X202000Y130500D02*
D03*
X196000D02*
D03*
X64500Y47000D02*
D03*
X61000D02*
D03*
X106000Y21000D02*
D03*
X80000Y28000D02*
D03*
X150000Y42000D02*
D03*
Y50000D02*
D03*
X2500Y21500D02*
D03*
X5000Y95000D02*
D03*
Y16500D02*
D03*
X20000Y114500D02*
D03*
Y110500D02*
D03*
X170000Y7000D02*
D03*
X10000Y14000D02*
D03*
Y50000D02*
D03*
X162000Y44500D02*
D03*
X3500Y227000D02*
D03*
X52000Y127000D02*
D03*
X114500Y26500D02*
D03*
X195000Y55000D02*
D03*
Y45000D02*
D03*
X189500Y22000D02*
D03*
X195000Y35000D02*
D03*
X210000Y80000D02*
D03*
X157500Y42000D02*
D03*
X61500Y53500D02*
D03*
X7500Y85000D02*
D03*
Y19000D02*
D03*
X86000Y25500D02*
D03*
X89000Y23000D02*
D03*
X92500Y32500D02*
D03*
Y27500D02*
D03*
X17500Y30000D02*
D03*
X32500D02*
D03*
X12500Y40000D02*
D03*
X29000Y60000D02*
D03*
X11000Y70000D02*
D03*
X30500Y70500D02*
D03*
Y80000D02*
D03*
Y90000D02*
D03*
Y100000D02*
D03*
X8500Y90000D02*
D03*
Y100000D02*
D03*
X40000D02*
D03*
Y110000D02*
D03*
X47500Y115000D02*
D03*
X63500Y69000D02*
D03*
X167500Y92500D02*
D03*
X210000Y100000D02*
D03*
Y120000D02*
D03*
X180000D02*
D03*
X75000Y130000D02*
D03*
X206000Y150000D02*
D03*
X216500Y155000D02*
D03*
X185000Y135500D02*
D03*
X57500Y34000D02*
D03*
X53000Y16500D02*
D03*
X66500Y19000D02*
D03*
X75000Y23000D02*
D03*
X88500Y129500D02*
D03*
X2500Y30000D02*
D03*
X12500D02*
D03*
M02*
