%FSLAX25Y25*%
%MOIN*%
G70*
G01*
G75*
G04 Layer_Color=16711935*
%ADD10R,0.02500X0.04200*%
%ADD11R,0.02362X0.05906*%
%ADD12R,0.08500X0.10799*%
%ADD13R,0.07874X0.16142*%
%ADD14R,0.06299X0.12598*%
%ADD15R,0.20472X0.19685*%
%ADD16R,0.03000X0.05000*%
%ADD17R,0.06000X0.05000*%
%ADD18R,0.10000X0.06500*%
%ADD19R,0.04000X0.01500*%
%ADD20R,0.01100X0.05800*%
%ADD21R,0.25197X0.14173*%
%ADD22R,0.03347X0.03150*%
%ADD23R,0.03150X0.03347*%
%ADD24R,0.05512X0.04331*%
%ADD25R,0.04331X0.10236*%
%ADD26R,0.10236X0.04331*%
%ADD27C,0.01000*%
%ADD28C,0.02000*%
%ADD29C,0.10000*%
%ADD30C,0.06890*%
%ADD31R,0.06890X0.06890*%
%ADD32C,0.02500*%
%ADD33R,0.01000X0.01000*%
%ADD34R,0.07874X0.03937*%
%ADD35R,0.05906X0.13780*%
%ADD36R,0.03937X0.03740*%
%ADD37R,0.01000X0.01000*%
%ADD38R,0.06890X0.04331*%
%ADD39C,0.00984*%
%ADD40C,0.00787*%
%ADD41C,0.00700*%
%ADD42C,0.00600*%
%ADD43C,0.00300*%
%ADD44R,0.02000X0.16400*%
%ADD45R,0.20600X0.19813*%
%ADD46R,0.03300X0.05300*%
%ADD47R,0.02900X0.04600*%
%ADD48R,0.02762X0.06306*%
%ADD49R,0.08900X0.11199*%
%ADD50R,0.08274X0.16542*%
%ADD51R,0.06699X0.12998*%
%ADD52R,0.06400X0.05400*%
%ADD53R,0.10400X0.06900*%
%ADD54R,0.04400X0.01900*%
%ADD55R,0.01500X0.06200*%
%ADD56R,0.25597X0.14573*%
%ADD57R,0.03747X0.03550*%
%ADD58R,0.03550X0.03747*%
%ADD59R,0.05912X0.04731*%
%ADD60R,0.04731X0.10636*%
%ADD61R,0.10636X0.04731*%
%ADD62C,0.07290*%
%ADD63R,0.07290X0.07290*%
%ADD64R,0.08200X0.04263*%
%ADD65R,0.06306X0.14179*%
%ADD66R,0.04337X0.04140*%
%ADD67R,0.07290X0.04731*%
D57*
X99500Y199244D02*
D03*
Y204756D02*
D03*
X18000Y219256D02*
D03*
Y213744D02*
D03*
X109500Y207744D02*
D03*
Y213256D02*
D03*
X32000Y219256D02*
D03*
Y213744D02*
D03*
X25000Y213744D02*
D03*
Y219256D02*
D03*
X132500Y200256D02*
D03*
Y194744D02*
D03*
X125500Y200256D02*
D03*
Y194744D02*
D03*
X154000Y200256D02*
D03*
Y194744D02*
D03*
X147000Y200256D02*
D03*
Y194744D02*
D03*
X175500Y200256D02*
D03*
Y194744D02*
D03*
X168500Y200256D02*
D03*
Y194744D02*
D03*
D58*
X62256Y120500D02*
D03*
X56744D02*
D03*
X62256Y127000D02*
D03*
X56744D02*
D03*
X46244Y25500D02*
D03*
X51756D02*
D03*
X46244Y38500D02*
D03*
X51756D02*
D03*
X46244Y51500D02*
D03*
X51756D02*
D03*
X46244Y58000D02*
D03*
X51756D02*
D03*
X46244Y45000D02*
D03*
X51756D02*
D03*
X46244Y32000D02*
D03*
X51756D02*
D03*
X46244Y85000D02*
D03*
X51756D02*
D03*
X46244Y75000D02*
D03*
X51756D02*
D03*
X46244Y65000D02*
D03*
X51756D02*
D03*
D62*
X62500Y213500D02*
D03*
X147020D02*
D03*
X127020D02*
D03*
D63*
X82500D02*
D03*
X167019D02*
D03*
D64*
X13950Y25000D02*
D03*
X36050D02*
D03*
X13950Y35000D02*
D03*
X36050D02*
D03*
X13950Y45000D02*
D03*
X36050D02*
D03*
X13950Y55000D02*
D03*
X36050D02*
D03*
X13950Y65000D02*
D03*
X36050D02*
D03*
X13950Y75000D02*
D03*
X36050D02*
D03*
X13950Y85000D02*
D03*
X36050D02*
D03*
X13950Y95000D02*
D03*
X36050D02*
D03*
X13950Y105000D02*
D03*
X36050D02*
D03*
X13950Y115000D02*
D03*
X36050D02*
D03*
X183950Y25000D02*
D03*
X206050D02*
D03*
X183950Y35000D02*
D03*
X206050D02*
D03*
X183950Y45000D02*
D03*
X206050D02*
D03*
X183950Y55000D02*
D03*
X206050D02*
D03*
X183950Y65000D02*
D03*
X206050D02*
D03*
X183950Y75000D02*
D03*
X206050D02*
D03*
X183950Y85000D02*
D03*
X206050D02*
D03*
X183950Y95000D02*
D03*
X206050D02*
D03*
X183950Y105000D02*
D03*
X206050D02*
D03*
X183950Y115000D02*
D03*
X206050D02*
D03*
D65*
X140992Y145500D02*
D03*
X165008D02*
D03*
X191492D02*
D03*
X215508D02*
D03*
X84992D02*
D03*
X109008D02*
D03*
D66*
X149850Y135000D02*
D03*
X156150D02*
D03*
X93850D02*
D03*
X100150D02*
D03*
X200350D02*
D03*
X206650D02*
D03*
D67*
X109500Y199315D02*
D03*
Y188685D02*
D03*
M02*
