%FSLAX25Y25*%
%MOIN*%
G70*
G01*
G75*
G04 Layer_Color=65535*
%ADD10R,0.02500X0.04200*%
%ADD11R,0.02362X0.05906*%
%ADD12R,0.08500X0.10799*%
%ADD13R,0.07874X0.16142*%
%ADD14R,0.06299X0.12598*%
%ADD15R,0.20472X0.19685*%
%ADD16R,0.03000X0.05000*%
%ADD17R,0.06000X0.05000*%
%ADD18R,0.10000X0.06500*%
%ADD19R,0.04000X0.01500*%
%ADD20R,0.01100X0.05800*%
%ADD21R,0.25197X0.14173*%
%ADD22R,0.03347X0.03150*%
%ADD23R,0.03150X0.03347*%
%ADD24R,0.05512X0.04331*%
%ADD25R,0.04331X0.10236*%
%ADD26R,0.10236X0.04331*%
%ADD27C,0.01000*%
%ADD28C,0.02000*%
%ADD29C,0.10000*%
%ADD30C,0.06890*%
%ADD31R,0.06890X0.06890*%
%ADD32C,0.02500*%
%ADD33R,0.01000X0.01000*%
%ADD34R,0.07874X0.03937*%
%ADD35R,0.05906X0.13780*%
%ADD36R,0.03937X0.03740*%
%ADD37R,0.01000X0.01000*%
%ADD38R,0.06890X0.04331*%
%ADD39C,0.00984*%
%ADD40C,0.00787*%
%ADD41C,0.00700*%
%ADD42C,0.00600*%
%ADD43C,0.00300*%
%ADD44R,0.02000X0.16400*%
G36*
X136000Y156500D02*
X132000D01*
Y160500D01*
X136000D01*
Y156500D01*
D02*
G37*
G36*
X192000D02*
X188000D01*
Y160500D01*
X192000D01*
Y156500D01*
D02*
G37*
G36*
X80000D02*
X76000D01*
Y160500D01*
X80000D01*
Y156500D01*
D02*
G37*
G36*
X89000Y55000D02*
X85000D01*
Y59000D01*
X89000D01*
Y55000D01*
D02*
G37*
G36*
X39500Y119000D02*
X35500D01*
Y123000D01*
X39500D01*
Y119000D01*
D02*
G37*
G36*
X77500Y180500D02*
X73500D01*
Y184500D01*
X77500D01*
Y180500D01*
D02*
G37*
G36*
X201829Y218398D02*
Y218325D01*
X201756D01*
Y218252D01*
Y218179D01*
Y218107D01*
Y218034D01*
Y217961D01*
X201684D01*
Y217889D01*
Y217816D01*
Y217743D01*
Y217671D01*
Y217598D01*
X201611D01*
Y217525D01*
Y217453D01*
Y217380D01*
Y217307D01*
Y217234D01*
X201538D01*
Y217162D01*
Y217089D01*
Y217016D01*
Y216944D01*
Y216871D01*
X201466D01*
Y216798D01*
Y216725D01*
Y216653D01*
Y216580D01*
Y216507D01*
X201393D01*
Y216435D01*
Y216362D01*
Y216289D01*
Y216217D01*
Y216144D01*
X201320D01*
Y216071D01*
Y215999D01*
Y215926D01*
Y215853D01*
Y215780D01*
X201248D01*
Y215708D01*
Y215635D01*
Y215562D01*
Y215490D01*
Y215417D01*
X201175D01*
Y215344D01*
Y215271D01*
Y215199D01*
Y215126D01*
Y215053D01*
X201102D01*
Y214981D01*
Y214908D01*
Y214835D01*
Y214763D01*
Y214690D01*
X201029D01*
Y214617D01*
Y214545D01*
Y214472D01*
Y214399D01*
Y214326D01*
X200957D01*
Y214254D01*
Y214181D01*
Y214108D01*
Y214036D01*
Y213963D01*
X200884D01*
Y213890D01*
Y213818D01*
Y213745D01*
Y213672D01*
Y213599D01*
X200811D01*
Y213527D01*
Y213454D01*
Y213381D01*
Y213309D01*
Y213236D01*
X200739D01*
Y213163D01*
Y213090D01*
Y213018D01*
Y212945D01*
Y212872D01*
X200666D01*
Y212800D01*
Y212727D01*
Y212654D01*
Y212582D01*
Y212509D01*
X200593D01*
Y212436D01*
Y212364D01*
Y212291D01*
Y212218D01*
Y212145D01*
X200520D01*
Y212073D01*
Y212000D01*
Y211927D01*
Y211855D01*
Y211782D01*
X200448D01*
Y211709D01*
Y211636D01*
Y211564D01*
Y211491D01*
Y211418D01*
X200375D01*
Y211346D01*
Y211273D01*
Y211200D01*
Y211128D01*
Y211055D01*
X198630D01*
Y211128D01*
Y211200D01*
Y211273D01*
X198703D01*
Y211346D01*
Y211418D01*
Y211491D01*
Y211564D01*
Y211636D01*
X198776D01*
Y211709D01*
Y211782D01*
Y211855D01*
Y211927D01*
Y212000D01*
X198848D01*
Y212073D01*
Y212145D01*
Y212218D01*
Y212291D01*
Y212364D01*
X198921D01*
Y212436D01*
Y212509D01*
Y212582D01*
Y212654D01*
Y212727D01*
X198994D01*
Y212800D01*
Y212872D01*
Y212945D01*
Y213018D01*
Y213090D01*
X199066D01*
Y213163D01*
Y213236D01*
Y213309D01*
Y213381D01*
Y213454D01*
X199139D01*
Y213527D01*
Y213599D01*
Y213672D01*
Y213745D01*
Y213818D01*
X199212D01*
Y213890D01*
Y213963D01*
Y214036D01*
Y214108D01*
Y214181D01*
X199285D01*
Y214254D01*
Y214326D01*
Y214399D01*
Y214472D01*
Y214545D01*
X199357D01*
Y214617D01*
Y214690D01*
Y214763D01*
Y214835D01*
Y214908D01*
X199430D01*
Y214981D01*
Y215053D01*
Y215126D01*
Y215199D01*
Y215271D01*
X199503D01*
Y215344D01*
Y215417D01*
Y215490D01*
Y215562D01*
Y215635D01*
X199575D01*
Y215708D01*
Y215780D01*
Y215853D01*
Y215926D01*
Y215999D01*
X199648D01*
Y216071D01*
Y216144D01*
Y216217D01*
Y216289D01*
Y216362D01*
X199721D01*
Y216435D01*
Y216507D01*
Y216580D01*
Y216653D01*
Y216725D01*
X199794D01*
Y216798D01*
Y216871D01*
Y216944D01*
Y217016D01*
Y217089D01*
X199866D01*
Y217162D01*
Y217234D01*
Y217307D01*
Y217380D01*
Y217453D01*
X199939D01*
Y217525D01*
Y217598D01*
Y217671D01*
Y217743D01*
Y217816D01*
X200012D01*
Y217889D01*
Y217961D01*
Y218034D01*
Y218107D01*
Y218179D01*
X200084D01*
Y218252D01*
Y218325D01*
Y218398D01*
Y218470D01*
X201829D01*
Y218398D01*
D02*
G37*
G36*
X202265Y220797D02*
Y220724D01*
Y220651D01*
Y220579D01*
X202193D01*
Y220506D01*
Y220433D01*
Y220360D01*
Y220288D01*
Y220215D01*
X202120D01*
Y220142D01*
Y220070D01*
Y219997D01*
Y219924D01*
Y219852D01*
X202047D01*
Y219779D01*
Y219706D01*
Y219634D01*
Y219561D01*
Y219488D01*
X201975D01*
Y219415D01*
Y219343D01*
Y219270D01*
Y219197D01*
X200230D01*
Y219270D01*
Y219343D01*
X200302D01*
Y219415D01*
Y219488D01*
Y219561D01*
Y219634D01*
Y219706D01*
X200375D01*
Y219779D01*
Y219852D01*
Y219924D01*
Y219997D01*
Y220070D01*
X200448D01*
Y220142D01*
Y220215D01*
Y220288D01*
Y220360D01*
Y220433D01*
X200520D01*
Y220506D01*
Y220579D01*
Y220651D01*
Y220724D01*
Y220797D01*
X200593D01*
Y220869D01*
X202265D01*
Y220797D01*
D02*
G37*
G36*
X198194Y218470D02*
X199357D01*
Y218398D01*
X199285D01*
Y218034D01*
X199212D01*
Y217671D01*
X199139D01*
Y217307D01*
X199066D01*
Y216944D01*
X198994D01*
Y216580D01*
X198921D01*
Y216289D01*
X197685D01*
Y216071D01*
X197612D01*
Y215708D01*
X197540D01*
Y215344D01*
X197467D01*
Y214981D01*
X197394D01*
Y214617D01*
X197322D01*
Y214254D01*
X198485D01*
Y213963D01*
X198412D01*
Y213599D01*
X198339D01*
Y213236D01*
X198267D01*
Y212872D01*
X198194D01*
Y212509D01*
X198121D01*
Y212145D01*
X198049D01*
Y211782D01*
X197976D01*
Y211418D01*
X197903D01*
Y211055D01*
X197830D01*
Y210691D01*
X197758D01*
Y210328D01*
X197685D01*
Y209746D01*
X197758D01*
Y209528D01*
X197830D01*
Y209383D01*
X197903D01*
Y209310D01*
X197976D01*
Y209237D01*
X198049D01*
Y209165D01*
X198194D01*
Y209092D01*
X198339D01*
Y209019D01*
X198630D01*
Y208947D01*
X199066D01*
Y208874D01*
X201902D01*
Y209092D01*
X201975D01*
Y209455D01*
X202047D01*
Y209819D01*
X202120D01*
Y210182D01*
X202193D01*
Y210546D01*
X202265D01*
Y210910D01*
X202338D01*
Y211055D01*
X201393D01*
Y211128D01*
X201248D01*
Y211200D01*
X201175D01*
Y211855D01*
X201248D01*
Y212145D01*
X201320D01*
Y212509D01*
X201393D01*
Y212872D01*
X201466D01*
Y213236D01*
X201538D01*
Y213599D01*
X201611D01*
Y213963D01*
X201684D01*
Y214254D01*
X202992D01*
Y214617D01*
X203065D01*
Y214981D01*
X203138D01*
Y215344D01*
X203210D01*
Y215708D01*
X203283D01*
Y216071D01*
X203356D01*
Y216289D01*
X202120D01*
Y216507D01*
X202193D01*
Y216871D01*
X202265D01*
Y217234D01*
X202338D01*
Y217598D01*
X202411D01*
Y217961D01*
X202483D01*
Y218325D01*
X202556D01*
Y218470D01*
X206046D01*
Y215999D01*
X206118D01*
Y215635D01*
X206191D01*
Y215344D01*
X206264D01*
Y215199D01*
X206336D01*
Y215053D01*
X206409D01*
Y214908D01*
X206482D01*
Y214835D01*
X206555D01*
Y214690D01*
X206627D01*
Y214617D01*
X206700D01*
Y214545D01*
X206773D01*
Y214472D01*
X206845D01*
Y214399D01*
X206991D01*
Y214326D01*
X207064D01*
Y210764D01*
X206918D01*
Y210691D01*
X206700D01*
Y210619D01*
X206409D01*
Y210546D01*
X206191D01*
Y210473D01*
X205973D01*
Y210401D01*
X205755D01*
Y210328D01*
X205609D01*
Y210255D01*
X205391D01*
Y210182D01*
X205246D01*
Y210110D01*
X205101D01*
Y210037D01*
X204955D01*
Y209964D01*
X204810D01*
Y209892D01*
X204664D01*
Y209819D01*
X204519D01*
Y209746D01*
X204374D01*
Y209674D01*
X204301D01*
Y209601D01*
X204155D01*
Y209528D01*
X204010D01*
Y209455D01*
X203937D01*
Y209383D01*
X203865D01*
Y209310D01*
X203719D01*
Y209237D01*
X203647D01*
Y209165D01*
X203574D01*
Y209092D01*
X203428D01*
Y209019D01*
X203356D01*
Y208947D01*
X203283D01*
Y208874D01*
X203210D01*
Y208801D01*
X203138D01*
Y208729D01*
X203065D01*
Y208656D01*
X202992D01*
Y208583D01*
X202920D01*
Y208510D01*
X202847D01*
Y208438D01*
X202774D01*
Y208365D01*
X202701D01*
Y208292D01*
X202629D01*
Y208147D01*
X202556D01*
Y208074D01*
X202483D01*
Y208001D01*
X202411D01*
Y207856D01*
X202338D01*
Y207783D01*
X202265D01*
Y207638D01*
X202193D01*
Y207493D01*
X202120D01*
Y207347D01*
X202047D01*
Y207202D01*
X201975D01*
Y206984D01*
X201902D01*
Y206693D01*
X201829D01*
Y205602D01*
X201902D01*
Y205239D01*
X201975D01*
Y204948D01*
X202047D01*
Y204730D01*
X202120D01*
Y204585D01*
X202193D01*
Y204439D01*
X202047D01*
Y204366D01*
X201829D01*
Y204294D01*
X201466D01*
Y204221D01*
X200666D01*
Y204294D01*
X200302D01*
Y204366D01*
X200084D01*
Y204439D01*
X199866D01*
Y204512D01*
X199721D01*
Y204585D01*
X199575D01*
Y204657D01*
X199503D01*
Y204730D01*
X199357D01*
Y204803D01*
X199285D01*
Y204875D01*
X199139D01*
Y204948D01*
X199066D01*
Y205021D01*
X198994D01*
Y205094D01*
X198848D01*
Y205166D01*
X198776D01*
Y205239D01*
X198703D01*
Y205312D01*
X198630D01*
Y205384D01*
X198557D01*
Y205457D01*
X198485D01*
Y205530D01*
X198412D01*
Y205602D01*
X198339D01*
Y205748D01*
X198267D01*
Y205820D01*
X198194D01*
Y205893D01*
X198121D01*
Y205966D01*
X198049D01*
Y206111D01*
X197976D01*
Y206184D01*
X197903D01*
Y206329D01*
X197830D01*
Y206475D01*
X197758D01*
Y206547D01*
X197685D01*
Y206693D01*
X197612D01*
Y206838D01*
X197540D01*
Y206984D01*
X197467D01*
Y207129D01*
X197394D01*
Y207275D01*
X197322D01*
Y207420D01*
X197249D01*
Y207565D01*
X197176D01*
Y207711D01*
X197104D01*
Y207856D01*
X197031D01*
Y208001D01*
X196958D01*
Y208220D01*
X196885D01*
Y208365D01*
X196813D01*
Y208510D01*
X196740D01*
Y208656D01*
X196667D01*
Y208801D01*
X196595D01*
Y208947D01*
X196522D01*
Y209092D01*
X196449D01*
Y209237D01*
X196377D01*
Y209383D01*
X196304D01*
Y209528D01*
X196231D01*
Y209674D01*
X196158D01*
Y209746D01*
X196086D01*
Y209892D01*
X196013D01*
Y209964D01*
X195940D01*
Y210037D01*
X195868D01*
Y210110D01*
X195795D01*
Y210182D01*
X195722D01*
Y210255D01*
X195650D01*
Y210328D01*
X195577D01*
Y210401D01*
X195431D01*
Y210473D01*
X195141D01*
Y210546D01*
X194995D01*
Y210473D01*
X194632D01*
Y210401D01*
X194486D01*
Y210328D01*
X194341D01*
Y210255D01*
X194268D01*
Y210182D01*
X194196D01*
Y210110D01*
X194123D01*
Y210037D01*
X194050D01*
Y209964D01*
X193977D01*
Y209892D01*
X193905D01*
Y209819D01*
X193832D01*
Y209746D01*
X193759D01*
Y209674D01*
X193687D01*
Y209601D01*
X193614D01*
Y209528D01*
X193541D01*
Y209455D01*
X193396D01*
Y209383D01*
X192814D01*
Y209455D01*
X192596D01*
Y209528D01*
X192451D01*
Y209601D01*
X192378D01*
Y209674D01*
X192305D01*
Y209746D01*
X192160D01*
Y209892D01*
X192087D01*
Y209964D01*
X192015D01*
Y210037D01*
X191942D01*
Y210182D01*
X191869D01*
Y210328D01*
X191797D01*
Y210473D01*
X191724D01*
Y210619D01*
X191651D01*
Y210764D01*
X191578D01*
Y210910D01*
X191506D01*
Y211128D01*
X191433D01*
Y211273D01*
X191360D01*
Y211491D01*
X191288D01*
Y211636D01*
X191215D01*
Y211855D01*
X191142D01*
Y211927D01*
X191069D01*
Y212073D01*
X190997D01*
Y212145D01*
X190924D01*
Y212291D01*
X190851D01*
Y212364D01*
X190779D01*
Y212436D01*
X190706D01*
Y212509D01*
X190633D01*
Y212582D01*
X190560D01*
Y212654D01*
X190488D01*
Y212727D01*
X190415D01*
Y212800D01*
X190342D01*
Y212872D01*
X190270D01*
Y212945D01*
X190197D01*
Y213018D01*
X190052D01*
Y213090D01*
X189979D01*
Y213163D01*
X189906D01*
Y213236D01*
X189833D01*
Y213309D01*
X189761D01*
Y213381D01*
X189688D01*
Y213454D01*
X189615D01*
Y213527D01*
X189543D01*
Y213599D01*
X189470D01*
Y213745D01*
X189397D01*
Y213818D01*
X189325D01*
Y213963D01*
X189252D01*
Y214108D01*
X189179D01*
Y214254D01*
X189107D01*
Y214399D01*
X189034D01*
Y214690D01*
X188961D01*
Y215053D01*
X193977D01*
Y221814D01*
X198194D01*
Y218470D01*
D02*
G37*
G36*
X133500Y180500D02*
X129500D01*
Y184500D01*
X133500D01*
Y180500D01*
D02*
G37*
G36*
X189500D02*
X185500D01*
Y184500D01*
X189500D01*
Y180500D01*
D02*
G37*
D27*
X8000Y103500D02*
X11000D01*
X9500Y102000D02*
Y105000D01*
X32000Y174500D02*
Y177500D01*
X30500Y176000D02*
X33500D01*
X13500Y180000D02*
X16500D01*
X15000Y178500D02*
Y181500D01*
D39*
X73500Y18500D02*
G03*
X73500Y18500I-492J0D01*
G01*
X60000D02*
G03*
X60000Y18500I-492J0D01*
G01*
D40*
X72405Y10244D02*
Y12213D01*
X69256Y10244D02*
X72405D01*
X60594D02*
Y12213D01*
Y10244D02*
X63744D01*
X92028Y205626D02*
X94547D01*
Y199721D02*
Y205626D01*
X92028Y199721D02*
X94547D01*
X52618Y223441D02*
X91988D01*
X52362Y193815D02*
Y229248D01*
X52756Y193815D02*
X92126D01*
X92028D02*
Y229248D01*
X52362D02*
X91732D01*
X176547Y205626D02*
X179067D01*
Y199721D02*
Y205626D01*
X176547Y199721D02*
X179067D01*
X117492Y223342D02*
X176547D01*
X117492Y193815D02*
Y229248D01*
Y193815D02*
X176547D01*
Y229248D01*
X117492D02*
X176547D01*
X58906Y10244D02*
Y12213D01*
X55756Y10244D02*
X58906D01*
X47095D02*
Y12213D01*
Y10244D02*
X50244D01*
X90780Y15220D02*
Y15780D01*
X88221Y15220D02*
Y15780D01*
X52720Y25780D02*
X53280D01*
X52720Y23221D02*
X53280D01*
X31280Y15220D02*
Y15780D01*
X28721Y15220D02*
Y15780D01*
X93779Y40720D02*
Y41280D01*
X91220Y40720D02*
Y41280D01*
X118780Y18720D02*
Y19280D01*
X116220Y18720D02*
Y19280D01*
X66220Y25780D02*
X66780D01*
X66220Y23221D02*
X66780D01*
X148220Y102220D02*
X148780D01*
X148220Y104780D02*
X148780D01*
X118780Y34220D02*
Y34780D01*
X116220Y34220D02*
Y34780D01*
X101779Y119720D02*
Y120280D01*
X99221Y119720D02*
Y120280D01*
X113279Y119720D02*
Y120280D01*
X110721Y119720D02*
Y120280D01*
X123779Y119720D02*
Y120280D01*
X121221Y119720D02*
Y120280D01*
X83220Y104780D02*
X83780D01*
X83220Y102220D02*
X83780D01*
X92220Y110720D02*
Y111280D01*
X94779Y110720D02*
Y111280D01*
X11220Y124779D02*
X11780D01*
X11220Y122221D02*
X11780D01*
X11220Y117780D02*
X11780D01*
X11220Y115220D02*
X11780D01*
X74220Y96280D02*
X74780D01*
X74220Y93721D02*
X74780D01*
X70780Y67720D02*
Y68280D01*
X68221Y67720D02*
Y68280D01*
X142220Y51720D02*
X142780D01*
X142220Y54280D02*
X142780D01*
X142220Y44721D02*
X142780D01*
X142220Y47280D02*
X142780D01*
X70780Y54220D02*
Y54780D01*
X68221Y54220D02*
Y54780D01*
X75221Y40720D02*
Y41280D01*
X77780Y40720D02*
Y41280D01*
X70780Y40720D02*
Y41280D01*
X68221Y40720D02*
Y41280D01*
X107280Y13220D02*
Y13780D01*
X104720Y13220D02*
Y13780D01*
X82221Y40720D02*
Y41280D01*
X84780Y40720D02*
Y41280D01*
X75221Y67720D02*
Y68280D01*
X77780Y67720D02*
Y68280D01*
Y54220D02*
Y54780D01*
X75221Y54220D02*
Y54780D01*
X148479Y31220D02*
Y31780D01*
X145921Y31220D02*
Y31780D01*
X157220Y31220D02*
Y31780D01*
X159780Y31220D02*
Y31780D01*
X166779Y17720D02*
Y18280D01*
X164220Y17720D02*
Y18280D01*
X139779Y17720D02*
Y18280D01*
X137221Y17720D02*
Y18280D01*
X152779Y17720D02*
Y18280D01*
X150221Y17720D02*
Y18280D01*
X159780Y17720D02*
Y18280D01*
X157220Y17720D02*
Y18280D01*
X149925Y108776D02*
X153075D01*
X149925Y118224D02*
X153075D01*
X78925D02*
X82075D01*
X78925Y108776D02*
X82075D01*
X112779Y219220D02*
Y219780D01*
X110221Y219220D02*
Y219780D01*
X22220Y15220D02*
Y15780D01*
X24780Y15220D02*
Y15780D01*
X51780Y144720D02*
Y145280D01*
X49220Y144720D02*
Y145280D01*
X106780Y144720D02*
Y145280D01*
X104220Y144720D02*
Y145280D01*
X162779Y144720D02*
Y145280D01*
X160221Y144720D02*
Y145280D01*
X99779Y144720D02*
Y145280D01*
X97220Y144720D02*
Y145280D01*
X155780Y144720D02*
Y145280D01*
X153220Y144720D02*
Y145280D01*
X211779Y144720D02*
Y145280D01*
X209221Y144720D02*
Y145280D01*
X57276Y140425D02*
Y143575D01*
X66724Y140425D02*
Y143575D01*
X113276Y140425D02*
Y143575D01*
X122724Y140425D02*
Y143575D01*
X169276Y140425D02*
Y143575D01*
X178724Y140425D02*
Y143575D01*
X18280Y46720D02*
Y47280D01*
X15721Y46720D02*
Y47280D01*
X34780Y61720D02*
Y62280D01*
X32221Y61720D02*
Y62280D01*
X41220Y34721D02*
X41780D01*
X41220Y37279D02*
X41780D01*
X53220Y44280D02*
X53780D01*
X53220Y41721D02*
X53780D01*
X53220Y53280D02*
X53780D01*
X53220Y50721D02*
X53780D01*
X22720Y40720D02*
Y41280D01*
X25280Y40720D02*
Y41280D01*
X39220Y61720D02*
Y62280D01*
X41780Y61720D02*
Y62280D01*
X22720Y54220D02*
Y54780D01*
X25280Y54220D02*
Y54780D01*
D41*
X61000Y86450D02*
Y87350D01*
X34300D02*
X61000D01*
X34300Y71650D02*
X61000D01*
Y72550D01*
X28776Y131531D02*
X44081D01*
X44069Y131526D02*
Y164602D01*
X35802Y172869D02*
X44069Y164602D01*
X28762Y172869D02*
X35802D01*
X10998D02*
X18038D01*
X2731Y164602D02*
X10998Y172869D01*
X2731Y131526D02*
Y164602D01*
X2719Y131531D02*
X18024D01*
X23147Y109876D02*
X28886Y104138D01*
Y83114D02*
Y104138D01*
X19832Y83114D02*
X28886D01*
X19827Y109876D02*
X23147D01*
X7853D02*
X11173D01*
X2114Y83114D02*
X11168D01*
X2114D02*
Y104138D01*
X7853Y109876D01*
X2719Y224369D02*
X18024D01*
X2731Y191298D02*
Y224374D01*
Y191298D02*
X10998Y183031D01*
X18038D01*
X28762D02*
X35802D01*
X44069Y191298D01*
Y224374D01*
X28776Y224369D02*
X44081D01*
X82000Y60500D02*
Y99500D01*
Y60500D02*
X143000D01*
Y99500D01*
X82000D02*
X143000D01*
X128809Y187000D02*
X126904Y191999D01*
X125000Y187000D01*
X125714Y188666D02*
X128095D01*
X145500Y191499D02*
Y186500D01*
Y191499D02*
X147642D01*
X148356Y191261D01*
X148595Y191023D01*
X148833Y190547D01*
Y190071D01*
X148595Y189595D01*
X148356Y189357D01*
X147642Y189119D01*
X145500D02*
X147642D01*
X148356Y188880D01*
X148595Y188642D01*
X148833Y188166D01*
Y187452D01*
X148595Y186976D01*
X148356Y186738D01*
X147642Y186500D01*
X145500D01*
X57071Y190809D02*
X56833Y191285D01*
X56357Y191761D01*
X55880Y191999D01*
X54928D01*
X54452Y191761D01*
X53976Y191285D01*
X53738Y190809D01*
X53500Y190095D01*
Y188904D01*
X53738Y188190D01*
X53976Y187714D01*
X54452Y187238D01*
X54928Y187000D01*
X55880D01*
X56357Y187238D01*
X56833Y187714D01*
X57071Y188190D01*
Y188904D01*
X55880D02*
X57071D01*
X58213Y191999D02*
Y187000D01*
Y191999D02*
X61546Y187000D01*
Y191999D02*
Y187000D01*
X62927Y191999D02*
Y187000D01*
Y191999D02*
X64593D01*
X65307Y191761D01*
X65783Y191285D01*
X66021Y190809D01*
X66259Y190095D01*
Y188904D01*
X66021Y188190D01*
X65783Y187714D01*
X65307Y187238D01*
X64593Y187000D01*
X62927D01*
X74000Y188880D02*
X76142D01*
X76856Y189119D01*
X77095Y189357D01*
X77333Y189833D01*
Y190547D01*
X77095Y191023D01*
X76856Y191261D01*
X76142Y191499D01*
X74000D01*
Y186500D01*
X78451Y191499D02*
X80356Y186500D01*
X82260Y191499D02*
X80356Y186500D01*
X82903Y191499D02*
Y186500D01*
Y191499D02*
X84569D01*
X85283Y191261D01*
X85759Y190785D01*
X85997Y190309D01*
X86235Y189595D01*
Y188404D01*
X85997Y187690D01*
X85759Y187214D01*
X85283Y186738D01*
X84569Y186500D01*
X82903D01*
X87354Y191499D02*
Y186500D01*
Y191499D02*
X89021D01*
X89735Y191261D01*
X90211Y190785D01*
X90449Y190309D01*
X90687Y189595D01*
Y188404D01*
X90449Y187690D01*
X90211Y187214D01*
X89735Y186738D01*
X89021Y186500D01*
X87354D01*
X168571Y190309D02*
X168333Y190785D01*
X167857Y191261D01*
X167380Y191499D01*
X166428D01*
X165952Y191261D01*
X165476Y190785D01*
X165238Y190309D01*
X165000Y189595D01*
Y188404D01*
X165238Y187690D01*
X165476Y187214D01*
X165952Y186738D01*
X166428Y186500D01*
X167380D01*
X167857Y186738D01*
X168333Y187214D01*
X168571Y187690D01*
X96500Y58999D02*
Y54000D01*
Y58999D02*
X98166D01*
X98880Y58761D01*
X99357Y58285D01*
X99595Y57809D01*
X99833Y57095D01*
Y55904D01*
X99595Y55190D01*
X99357Y54714D01*
X98880Y54238D01*
X98166Y54000D01*
X96500D01*
X100951Y58999D02*
Y54000D01*
Y58999D02*
X103094D01*
X103808Y58761D01*
X104046Y58523D01*
X104284Y58047D01*
Y57571D01*
X104046Y57095D01*
X103808Y56857D01*
X103094Y56618D01*
X100951D01*
X102618D02*
X104284Y54000D01*
X105403Y58999D02*
X107307Y54000D01*
X109212Y58999D02*
X107307Y54000D01*
X111045Y58999D02*
X110330Y58761D01*
X110092Y58285D01*
Y57809D01*
X110330Y57333D01*
X110807Y57095D01*
X111759Y56857D01*
X112473Y56618D01*
X112949Y56142D01*
X113187Y55666D01*
Y54952D01*
X112949Y54476D01*
X112711Y54238D01*
X111997Y54000D01*
X111045D01*
X110330Y54238D01*
X110092Y54476D01*
X109854Y54952D01*
Y55666D01*
X110092Y56142D01*
X110568Y56618D01*
X111283Y56857D01*
X112235Y57095D01*
X112711Y57333D01*
X112949Y57809D01*
Y58285D01*
X112711Y58761D01*
X111997Y58999D01*
X111045D01*
X114782D02*
X117400D01*
X115972Y57095D01*
X116686D01*
X117162Y56857D01*
X117400Y56618D01*
X117638Y55904D01*
Y55428D01*
X117400Y54714D01*
X116924Y54238D01*
X116210Y54000D01*
X115496D01*
X114782Y54238D01*
X114544Y54476D01*
X114306Y54952D01*
X120185Y58999D02*
X119471Y58761D01*
X118995Y58047D01*
X118757Y56857D01*
Y56142D01*
X118995Y54952D01*
X119471Y54238D01*
X120185Y54000D01*
X120661D01*
X121376Y54238D01*
X121852Y54952D01*
X122090Y56142D01*
Y56857D01*
X121852Y58047D01*
X121376Y58761D01*
X120661Y58999D01*
X120185D01*
X123209Y58047D02*
X123685Y58285D01*
X124399Y58999D01*
Y54000D01*
D42*
X9000Y16500D02*
Y17000D01*
Y15500D02*
Y16500D01*
X7000Y12000D02*
X11000D01*
X9000Y10500D02*
Y11000D01*
Y12000D01*
X11000Y15500D01*
X7000D02*
X11000D01*
X7000D02*
X9000Y12000D01*
X84000Y11000D02*
Y11500D01*
Y12500D01*
X82000Y16000D02*
X86000D01*
X84000Y17000D02*
Y17500D01*
Y16000D02*
Y17000D01*
X82000Y12500D02*
X84000Y16000D01*
X82000Y12500D02*
X86000D01*
X84000Y16000D02*
X86000Y12500D01*
X35500Y11000D02*
Y11500D01*
Y12500D01*
X33500Y16000D02*
X37500D01*
X35500Y17000D02*
Y17500D01*
Y16000D02*
Y17000D01*
X33500Y12500D02*
X35500Y16000D01*
X33500Y12500D02*
X37500D01*
X35500Y16000D02*
X37500Y12500D01*
X95500Y216500D02*
Y217000D01*
Y218000D01*
X93500Y221500D02*
X97500D01*
X95500Y222500D02*
Y223000D01*
Y221500D02*
Y222500D01*
X93500Y218000D02*
X95500Y221500D01*
X93500Y218000D02*
X97500D01*
X95500Y221500D02*
X97500Y218000D01*
X66499Y2500D02*
Y4499D01*
X66000Y4999D01*
X65000D01*
X64500Y4499D01*
Y2500D01*
X65000Y2000D01*
X66000D01*
X65500Y3000D02*
X66499Y2000D01*
X66000D02*
X66499Y2500D01*
X67499Y2000D02*
X68499D01*
X67999D01*
Y4999D01*
X67499Y4499D01*
X52499Y2500D02*
Y4499D01*
X51999Y4999D01*
X51000D01*
X50500Y4499D01*
Y2500D01*
X51000Y2000D01*
X51999D01*
X51500Y3000D02*
X52499Y2000D01*
X51999D02*
X52499Y2500D01*
X55498Y2000D02*
X53499D01*
X55498Y3999D01*
Y4499D01*
X54999Y4999D01*
X53999D01*
X53499Y4499D01*
X72999Y89999D02*
X72500Y90499D01*
X71500D01*
X71000Y89999D01*
Y88000D01*
X71500Y87500D01*
X72500D01*
X72999Y88000D01*
X73999Y87500D02*
X74999D01*
X74499D01*
Y90499D01*
X73999Y89999D01*
X77998Y87500D02*
Y90499D01*
X76498Y88999D01*
X78498D01*
X3999Y80499D02*
X3500Y80999D01*
X2500D01*
X2000Y80499D01*
Y78500D01*
X2500Y78000D01*
X3500D01*
X3999Y78500D01*
X4999Y78000D02*
X5999D01*
X5499D01*
Y80999D01*
X4999Y80499D01*
X7498Y78000D02*
X8498D01*
X7998D01*
Y80999D01*
X7498Y80499D01*
X92999Y103299D02*
X92500Y103799D01*
X91500D01*
X91000Y103299D01*
Y101300D01*
X91500Y100800D01*
X92500D01*
X92999Y101300D01*
X93999Y100800D02*
X94999D01*
X94499D01*
Y103799D01*
X93999Y103299D01*
X96498D02*
X96998Y103799D01*
X97998D01*
X98498Y103299D01*
Y101300D01*
X97998Y100800D01*
X96998D01*
X96498Y101300D01*
Y103299D01*
X104000Y137500D02*
X106999D01*
Y136001D01*
X106499Y135501D01*
X105499D01*
X105000Y136001D01*
Y137500D01*
Y136500D02*
X104000Y135501D01*
Y132502D02*
Y134501D01*
X105999Y132502D01*
X106499D01*
X106999Y133001D01*
Y134001D01*
X106499Y134501D01*
X104500Y131502D02*
X104000Y131002D01*
Y130002D01*
X104500Y129503D01*
X106499D01*
X106999Y130002D01*
Y131002D01*
X106499Y131502D01*
X105999D01*
X105499Y131002D01*
Y129503D01*
X49000Y137500D02*
X51999D01*
Y136001D01*
X51499Y135501D01*
X50499D01*
X50000Y136001D01*
Y137500D01*
Y136500D02*
X49000Y135501D01*
Y132502D02*
Y134501D01*
X50999Y132502D01*
X51499D01*
X51999Y133001D01*
Y134001D01*
X51499Y134501D01*
Y131502D02*
X51999Y131002D01*
Y130002D01*
X51499Y129503D01*
X50999D01*
X50499Y130002D01*
X50000Y129503D01*
X49500D01*
X49000Y130002D01*
Y131002D01*
X49500Y131502D01*
X50000D01*
X50499Y131002D01*
X50999Y131502D01*
X51499D01*
X50499Y131002D02*
Y130002D01*
X209000Y137500D02*
X211999D01*
Y136001D01*
X211499Y135501D01*
X210500D01*
X210000Y136001D01*
Y137500D01*
Y136500D02*
X209000Y135501D01*
X211499Y134501D02*
X211999Y134001D01*
Y133001D01*
X211499Y132502D01*
X210999D01*
X210500Y133001D01*
Y133501D01*
Y133001D01*
X210000Y132502D01*
X209500D01*
X209000Y133001D01*
Y134001D01*
X209500Y134501D01*
X211499Y131502D02*
X211999Y131002D01*
Y130002D01*
X211499Y129503D01*
X210999D01*
X210500Y130002D01*
Y130502D01*
Y130002D01*
X210000Y129503D01*
X209500D01*
X209000Y130002D01*
Y131002D01*
X209500Y131502D01*
X171999Y130999D02*
X171500Y131499D01*
X170500D01*
X170000Y130999D01*
Y129000D01*
X170500Y128500D01*
X171500D01*
X171999Y129000D01*
X172999Y130999D02*
X173499Y131499D01*
X174499D01*
X174998Y130999D01*
Y130499D01*
X174499Y129999D01*
X173999D01*
X174499D01*
X174998Y129500D01*
Y129000D01*
X174499Y128500D01*
X173499D01*
X172999Y129000D01*
X175998Y130999D02*
X176498Y131499D01*
X177498D01*
X177997Y130999D01*
Y129000D01*
X177498Y128500D01*
X176498D01*
X175998Y129000D01*
Y130999D01*
X151300Y35000D02*
X154299D01*
Y33500D01*
X153799Y33001D01*
X152799D01*
X152300Y33500D01*
Y35000D01*
Y34000D02*
X151300Y33001D01*
Y32001D02*
Y31001D01*
Y31501D01*
X154299D01*
X153799Y32001D01*
X154299Y27502D02*
Y29502D01*
X152799D01*
X153299Y28502D01*
Y28002D01*
X152799Y27502D01*
X151800D01*
X151300Y28002D01*
Y29002D01*
X151800Y29502D01*
X80500Y58000D02*
X83499D01*
Y56501D01*
X82999Y56001D01*
X81999D01*
X81500Y56501D01*
Y58000D01*
Y57000D02*
X80500Y56001D01*
Y55001D02*
Y54001D01*
Y54501D01*
X83499D01*
X82999Y55001D01*
X80500Y50502D02*
Y52502D01*
X82499Y50502D01*
X82999D01*
X83499Y51002D01*
Y52002D01*
X82999Y52502D01*
X68000Y33500D02*
X70999D01*
Y32000D01*
X70499Y31501D01*
X69499D01*
X69000Y32000D01*
Y33500D01*
Y32500D02*
X68000Y31501D01*
X70499Y30501D02*
X70999Y30001D01*
Y29001D01*
X70499Y28502D01*
X69999D01*
X69499Y29001D01*
X69000Y28502D01*
X68500D01*
X68000Y29001D01*
Y30001D01*
X68500Y30501D01*
X69000D01*
X69499Y30001D01*
X69999Y30501D01*
X70499D01*
X69499Y30001D02*
Y29001D01*
X75000Y33500D02*
X77999D01*
Y32000D01*
X77499Y31501D01*
X76499D01*
X76000Y32000D01*
Y33500D01*
Y32500D02*
X75000Y31501D01*
X77999Y30501D02*
Y28502D01*
X77499D01*
X75500Y30501D01*
X75000D01*
X137000Y10500D02*
X139999D01*
Y9001D01*
X139499Y8501D01*
X138499D01*
X138000Y9001D01*
Y10500D01*
Y9500D02*
X137000Y8501D01*
Y7501D02*
Y6501D01*
Y7001D01*
X139999D01*
X139499Y7501D01*
X139999Y5002D02*
Y3002D01*
X139499D01*
X137500Y5002D01*
X137000D01*
X19000Y23000D02*
Y25999D01*
X20500D01*
X20999Y25499D01*
Y24499D01*
X20500Y24000D01*
X19000D01*
X20000D02*
X20999Y23000D01*
X23998D02*
X21999D01*
X23998Y24999D01*
Y25499D01*
X23499Y25999D01*
X22499D01*
X21999Y25499D01*
X26498Y23000D02*
Y25999D01*
X24998Y24499D01*
X26997D01*
X107500Y209000D02*
Y211999D01*
X109000D01*
X109499Y211499D01*
Y210500D01*
X109000Y210000D01*
X107500D01*
X108500D02*
X109499Y209000D01*
X112498D02*
X110499D01*
X112498Y210999D01*
Y211499D01*
X111999Y211999D01*
X110999D01*
X110499Y211499D01*
X113498D02*
X113998Y211999D01*
X114998D01*
X115497Y211499D01*
Y210999D01*
X114998Y210500D01*
X114498D01*
X114998D01*
X115497Y210000D01*
Y209500D01*
X114998Y209000D01*
X113998D01*
X113498Y209500D01*
X150000Y10500D02*
X152999D01*
Y9001D01*
X152499Y8501D01*
X151499D01*
X151000Y9001D01*
Y10500D01*
Y9500D02*
X150000Y8501D01*
Y7501D02*
Y6501D01*
Y7001D01*
X152999D01*
X152499Y7501D01*
Y5002D02*
X152999Y4502D01*
Y3502D01*
X152499Y3002D01*
X151999D01*
X151499Y3502D01*
X151000Y3002D01*
X150500D01*
X150000Y3502D01*
Y4502D01*
X150500Y5002D01*
X151000D01*
X151499Y4502D01*
X151999Y5002D01*
X152499D01*
X151499Y4502D02*
Y3502D01*
X66999Y114999D02*
X66500Y115499D01*
X65500D01*
X65000Y114999D01*
Y113000D01*
X65500Y112500D01*
X66500D01*
X66999Y113000D01*
X67999Y114999D02*
X68499Y115499D01*
X69499D01*
X69998Y114999D01*
Y114499D01*
X69499Y113999D01*
X69998Y113500D01*
Y113000D01*
X69499Y112500D01*
X68499D01*
X67999Y113000D01*
Y113500D01*
X68499Y113999D01*
X67999Y114499D01*
Y114999D01*
X68499Y113999D02*
X69499D01*
X164000Y10500D02*
X166999D01*
Y9001D01*
X166499Y8501D01*
X165499D01*
X165000Y9001D01*
Y10500D01*
Y9500D02*
X164000Y8501D01*
Y7501D02*
Y6501D01*
Y7001D01*
X166999D01*
X166499Y7501D01*
X166999Y3002D02*
X166499Y4002D01*
X165499Y5002D01*
X164500D01*
X164000Y4502D01*
Y3502D01*
X164500Y3002D01*
X165000D01*
X165499Y3502D01*
Y5002D01*
X3500Y71499D02*
Y69357D01*
X3643Y68928D01*
X3929Y68643D01*
X4357Y68500D01*
X4643D01*
X5071Y68643D01*
X5357Y68928D01*
X5500Y69357D01*
Y71499D01*
X6471Y70785D02*
Y70928D01*
X6614Y71214D01*
X6756Y71356D01*
X7042Y71499D01*
X7613D01*
X7899Y71356D01*
X8042Y71214D01*
X8185Y70928D01*
Y70642D01*
X8042Y70357D01*
X7756Y69928D01*
X6328Y68500D01*
X8327D01*
X103500Y5999D02*
Y3000D01*
Y5999D02*
X104785D01*
X105214Y5856D01*
X105357Y5714D01*
X105500Y5428D01*
Y5142D01*
X105357Y4857D01*
X105214Y4714D01*
X104785Y4571D01*
X103500D01*
X104500D02*
X105500Y3000D01*
X108028Y5000D02*
X107885Y4571D01*
X107599Y4285D01*
X107171Y4143D01*
X107028D01*
X106599Y4285D01*
X106314Y4571D01*
X106171Y5000D01*
Y5142D01*
X106314Y5571D01*
X106599Y5856D01*
X107028Y5999D01*
X107171D01*
X107599Y5856D01*
X107885Y5571D01*
X108028Y5000D01*
Y4285D01*
X107885Y3571D01*
X107599Y3143D01*
X107171Y3000D01*
X106885D01*
X106456Y3143D01*
X106314Y3429D01*
X115500Y11499D02*
Y8500D01*
Y11499D02*
X116785D01*
X117214Y11356D01*
X117357Y11214D01*
X117500Y10928D01*
Y10642D01*
X117357Y10357D01*
X117214Y10214D01*
X116785Y10071D01*
X115500D01*
X116500D02*
X117500Y8500D01*
X119885Y11071D02*
X119742Y11356D01*
X119314Y11499D01*
X119028D01*
X118599Y11356D01*
X118314Y10928D01*
X118171Y10214D01*
Y9500D01*
X118314Y8929D01*
X118599Y8643D01*
X119028Y8500D01*
X119171D01*
X119599Y8643D01*
X119885Y8929D01*
X120028Y9357D01*
Y9500D01*
X119885Y9928D01*
X119599Y10214D01*
X119171Y10357D01*
X119028D01*
X118599Y10214D01*
X118314Y9928D01*
X118171Y9500D01*
X90000Y51499D02*
Y48500D01*
Y51499D02*
X91285D01*
X91714Y51357D01*
X91857Y51214D01*
X92000Y50928D01*
Y50642D01*
X91857Y50357D01*
X91714Y50214D01*
X91285Y50071D01*
X90000D01*
X91000D02*
X92000Y48500D01*
X94385Y51499D02*
X92957D01*
X92814Y50214D01*
X92957Y50357D01*
X93385Y50500D01*
X93814D01*
X94242Y50357D01*
X94528Y50071D01*
X94670Y49643D01*
Y49357D01*
X94528Y48928D01*
X94242Y48643D01*
X93814Y48500D01*
X93385D01*
X92957Y48643D01*
X92814Y48786D01*
X92671Y49071D01*
X29000Y25999D02*
Y23000D01*
Y25999D02*
X30285D01*
X30714Y25857D01*
X30857Y25714D01*
X31000Y25428D01*
Y25142D01*
X30857Y24857D01*
X30714Y24714D01*
X30285Y24571D01*
X29000D01*
X30000D02*
X31000Y23000D01*
X33099Y25999D02*
X31671Y24000D01*
X33813D01*
X33099Y25999D02*
Y23000D01*
X155999Y137500D02*
X153000D01*
X155999D02*
Y136215D01*
X155857Y135786D01*
X155714Y135643D01*
X155428Y135500D01*
X155142D01*
X154857Y135643D01*
X154714Y135786D01*
X154571Y136215D01*
Y137500D01*
Y136500D02*
X153000Y135500D01*
X155999Y134544D02*
Y132972D01*
X154857Y133829D01*
Y133401D01*
X154714Y133115D01*
X154571Y132972D01*
X154143Y132830D01*
X153857D01*
X153428Y132972D01*
X153143Y133258D01*
X153000Y133686D01*
Y134115D01*
X153143Y134544D01*
X153286Y134686D01*
X153571Y134829D01*
X155285Y132016D02*
X155428D01*
X155714Y131873D01*
X155857Y131730D01*
X155999Y131444D01*
Y130873D01*
X155857Y130587D01*
X155714Y130444D01*
X155428Y130301D01*
X155142D01*
X154857Y130444D01*
X154428Y130730D01*
X153000Y132158D01*
Y130159D01*
X99999Y137500D02*
X97000D01*
X99999D02*
Y136215D01*
X99857Y135786D01*
X99714Y135643D01*
X99428Y135500D01*
X99142D01*
X98857Y135643D01*
X98714Y135786D01*
X98571Y136215D01*
Y137500D01*
Y136500D02*
X97000Y135500D01*
X99999Y134544D02*
Y132972D01*
X98857Y133829D01*
Y133401D01*
X98714Y133115D01*
X98571Y132972D01*
X98143Y132830D01*
X97857D01*
X97429Y132972D01*
X97143Y133258D01*
X97000Y133686D01*
Y134115D01*
X97143Y134544D01*
X97286Y134686D01*
X97571Y134829D01*
X99428Y132158D02*
X99571Y131873D01*
X99999Y131444D01*
X97000D01*
X162999Y137500D02*
X160000D01*
X162999D02*
Y136215D01*
X162856Y135786D01*
X162714Y135643D01*
X162428Y135500D01*
X162142D01*
X161857Y135643D01*
X161714Y135786D01*
X161571Y136215D01*
Y137500D01*
Y136500D02*
X160000Y135500D01*
X162999Y134544D02*
Y132972D01*
X161857Y133829D01*
Y133401D01*
X161714Y133115D01*
X161571Y132972D01*
X161143Y132830D01*
X160857D01*
X160429Y132972D01*
X160143Y133258D01*
X160000Y133686D01*
Y134115D01*
X160143Y134544D01*
X160286Y134686D01*
X160571Y134829D01*
X162999Y131301D02*
X162856Y131730D01*
X162428Y132016D01*
X161714Y132158D01*
X161285D01*
X160571Y132016D01*
X160143Y131730D01*
X160000Y131301D01*
Y131016D01*
X160143Y130587D01*
X160571Y130301D01*
X161285Y130159D01*
X161714D01*
X162428Y130301D01*
X162856Y130587D01*
X162999Y131016D01*
Y131301D01*
X53500Y31499D02*
Y28500D01*
Y31499D02*
X54785D01*
X55214Y31356D01*
X55357Y31214D01*
X55500Y30928D01*
Y30642D01*
X55357Y30357D01*
X55214Y30214D01*
X54785Y30071D01*
X53500D01*
X54500D02*
X55500Y28500D01*
X56457Y31499D02*
X58028D01*
X57171Y30357D01*
X57599D01*
X57885Y30214D01*
X58028Y30071D01*
X58170Y29643D01*
Y29357D01*
X58028Y28929D01*
X57742Y28643D01*
X57314Y28500D01*
X56885D01*
X56457Y28643D01*
X56314Y28786D01*
X56171Y29071D01*
X61000Y31499D02*
Y28500D01*
Y31499D02*
X62285D01*
X62714Y31356D01*
X62857Y31214D01*
X63000Y30928D01*
Y30642D01*
X62857Y30357D01*
X62714Y30214D01*
X62285Y30071D01*
X61000D01*
X62000D02*
X63000Y28500D01*
X63814Y30785D02*
Y30928D01*
X63956Y31214D01*
X64099Y31356D01*
X64385Y31499D01*
X64956D01*
X65242Y31356D01*
X65385Y31214D01*
X65528Y30928D01*
Y30642D01*
X65385Y30357D01*
X65099Y29928D01*
X63671Y28500D01*
X65670D01*
X159999Y10500D02*
X157000D01*
X159999D02*
Y9215D01*
X159856Y8786D01*
X159714Y8643D01*
X159428Y8500D01*
X159142D01*
X158857Y8643D01*
X158714Y8786D01*
X158571Y9215D01*
Y10500D01*
Y9500D02*
X157000Y8500D01*
X159428Y7829D02*
X159571Y7543D01*
X159999Y7115D01*
X157000D01*
X159000Y3773D02*
X158571Y3916D01*
X158285Y4201D01*
X158143Y4630D01*
Y4773D01*
X158285Y5201D01*
X158571Y5487D01*
X159000Y5630D01*
X159142D01*
X159571Y5487D01*
X159856Y5201D01*
X159999Y4773D01*
Y4630D01*
X159856Y4201D01*
X159571Y3916D01*
X159000Y3773D01*
X158285D01*
X157571Y3916D01*
X157143Y4201D01*
X157000Y4630D01*
Y4916D01*
X157143Y5344D01*
X157429Y5487D01*
X142699Y35000D02*
X139700D01*
X142699D02*
Y33715D01*
X142557Y33286D01*
X142414Y33143D01*
X142128Y33000D01*
X141842D01*
X141557Y33143D01*
X141414Y33286D01*
X141271Y33715D01*
Y35000D01*
Y34000D02*
X139700Y33000D01*
X142128Y32329D02*
X142271Y32043D01*
X142699Y31615D01*
X139700D01*
X142699Y29844D02*
Y28273D01*
X141557Y29130D01*
Y28701D01*
X141414Y28416D01*
X141271Y28273D01*
X140843Y28130D01*
X140557D01*
X140129Y28273D01*
X139843Y28558D01*
X139700Y28987D01*
Y29416D01*
X139843Y29844D01*
X139986Y29987D01*
X140271Y30130D01*
X77999Y81000D02*
X75000D01*
X77999D02*
Y79715D01*
X77856Y79286D01*
X77714Y79143D01*
X77428Y79000D01*
X77142D01*
X76857Y79143D01*
X76714Y79286D01*
X76571Y79715D01*
Y81000D01*
Y80000D02*
X75000Y79000D01*
X77428Y78329D02*
X77571Y78044D01*
X77999Y77615D01*
X75000D01*
X77428Y76130D02*
X77571Y75844D01*
X77999Y75415D01*
X75000D01*
X84999Y33500D02*
X82000D01*
X84999D02*
Y32215D01*
X84856Y31786D01*
X84714Y31643D01*
X84428Y31500D01*
X84142D01*
X83857Y31643D01*
X83714Y31786D01*
X83571Y32215D01*
Y33500D01*
Y32500D02*
X82000Y31500D01*
X84428Y30829D02*
X84571Y30544D01*
X84999Y30115D01*
X82000D01*
X84999Y27773D02*
X84856Y28201D01*
X84428Y28487D01*
X83714Y28630D01*
X83285D01*
X82571Y28487D01*
X82143Y28201D01*
X82000Y27773D01*
Y27487D01*
X82143Y27059D01*
X82571Y26773D01*
X83285Y26630D01*
X83714D01*
X84428Y26773D01*
X84856Y27059D01*
X84999Y27487D01*
Y27773D01*
X88000Y7499D02*
Y4500D01*
Y7499D02*
X89285D01*
X89714Y7356D01*
X89857Y7214D01*
X90000Y6928D01*
Y6642D01*
X89857Y6357D01*
X89714Y6214D01*
X89285Y6071D01*
X88000D01*
X89000D02*
X90000Y4500D01*
X90671Y6928D02*
X90956Y7071D01*
X91385Y7499D01*
Y4500D01*
X200857Y154499D02*
X200571Y154357D01*
X200286Y154071D01*
X200143Y153785D01*
X200000Y153357D01*
Y152643D01*
X200143Y152214D01*
X200286Y151928D01*
X200571Y151643D01*
X200857Y151500D01*
X201428D01*
X201714Y151643D01*
X202000Y151928D01*
X202142Y152214D01*
X202285Y152643D01*
Y153357D01*
X202142Y153785D01*
X202000Y154071D01*
X201714Y154357D01*
X201428Y154499D01*
X200857D01*
X201285Y152071D02*
X202142Y151214D01*
X203699Y154499D02*
X203271Y154357D01*
X203128Y154071D01*
Y153785D01*
X203271Y153500D01*
X203556Y153357D01*
X204128Y153214D01*
X204556Y153071D01*
X204842Y152785D01*
X204985Y152500D01*
Y152071D01*
X204842Y151786D01*
X204699Y151643D01*
X204271Y151500D01*
X203699D01*
X203271Y151643D01*
X203128Y151786D01*
X202985Y152071D01*
Y152500D01*
X203128Y152785D01*
X203414Y153071D01*
X203842Y153214D01*
X204413Y153357D01*
X204699Y153500D01*
X204842Y153785D01*
Y154071D01*
X204699Y154357D01*
X204271Y154499D01*
X203699D01*
X144857D02*
X144571Y154357D01*
X144286Y154071D01*
X144143Y153785D01*
X144000Y153357D01*
Y152643D01*
X144143Y152214D01*
X144286Y151928D01*
X144571Y151643D01*
X144857Y151500D01*
X145428D01*
X145714Y151643D01*
X146000Y151928D01*
X146142Y152214D01*
X146285Y152643D01*
Y153357D01*
X146142Y153785D01*
X146000Y154071D01*
X145714Y154357D01*
X145428Y154499D01*
X144857D01*
X145285Y152071D02*
X146142Y151214D01*
X148985Y154499D02*
X147556Y151500D01*
X146985Y154499D02*
X148985D01*
X88857D02*
X88571Y154357D01*
X88286Y154071D01*
X88143Y153785D01*
X88000Y153357D01*
Y152643D01*
X88143Y152214D01*
X88286Y151928D01*
X88571Y151643D01*
X88857Y151500D01*
X89428D01*
X89714Y151643D01*
X90000Y151928D01*
X90142Y152214D01*
X90285Y152643D01*
Y153357D01*
X90142Y153785D01*
X90000Y154071D01*
X89714Y154357D01*
X89428Y154499D01*
X88857D01*
X89285Y152071D02*
X90142Y151214D01*
X92699Y154071D02*
X92556Y154357D01*
X92128Y154499D01*
X91842D01*
X91413Y154357D01*
X91128Y153928D01*
X90985Y153214D01*
Y152500D01*
X91128Y151928D01*
X91413Y151643D01*
X91842Y151500D01*
X91985D01*
X92413Y151643D01*
X92699Y151928D01*
X92842Y152357D01*
Y152500D01*
X92699Y152928D01*
X92413Y153214D01*
X91985Y153357D01*
X91842D01*
X91413Y153214D01*
X91128Y152928D01*
X90985Y152500D01*
X172357Y155599D02*
X172071Y155456D01*
X171786Y155171D01*
X171643Y154885D01*
X171500Y154457D01*
Y153743D01*
X171643Y153314D01*
X171786Y153029D01*
X172071Y152743D01*
X172357Y152600D01*
X172928D01*
X173214Y152743D01*
X173500Y153029D01*
X173642Y153314D01*
X173785Y153743D01*
Y154457D01*
X173642Y154885D01*
X173500Y155171D01*
X173214Y155456D01*
X172928Y155599D01*
X172357D01*
X172785Y153171D02*
X173642Y152314D01*
X176199Y155599D02*
X174771D01*
X174628Y154314D01*
X174771Y154457D01*
X175199Y154600D01*
X175628D01*
X176056Y154457D01*
X176342Y154171D01*
X176485Y153743D01*
Y153457D01*
X176342Y153029D01*
X176056Y152743D01*
X175628Y152600D01*
X175199D01*
X174771Y152743D01*
X174628Y152886D01*
X174485Y153171D01*
X116357Y155599D02*
X116071Y155456D01*
X115786Y155171D01*
X115643Y154885D01*
X115500Y154457D01*
Y153743D01*
X115643Y153314D01*
X115786Y153029D01*
X116071Y152743D01*
X116357Y152600D01*
X116928D01*
X117214Y152743D01*
X117500Y153029D01*
X117642Y153314D01*
X117785Y153743D01*
Y154457D01*
X117642Y154885D01*
X117500Y155171D01*
X117214Y155456D01*
X116928Y155599D01*
X116357D01*
X116785Y153171D02*
X117642Y152314D01*
X119913Y155599D02*
X118485Y153600D01*
X120627D01*
X119913Y155599D02*
Y152600D01*
X60357Y155599D02*
X60071Y155456D01*
X59786Y155171D01*
X59643Y154885D01*
X59500Y154457D01*
Y153743D01*
X59643Y153314D01*
X59786Y153029D01*
X60071Y152743D01*
X60357Y152600D01*
X60928D01*
X61214Y152743D01*
X61500Y153029D01*
X61642Y153314D01*
X61785Y153743D01*
Y154457D01*
X61642Y154885D01*
X61500Y155171D01*
X61214Y155456D01*
X60928Y155599D01*
X60357D01*
X60785Y153171D02*
X61642Y152314D01*
X62771Y155599D02*
X64342D01*
X63485Y154457D01*
X63913D01*
X64199Y154314D01*
X64342Y154171D01*
X64485Y153743D01*
Y153457D01*
X64342Y153029D01*
X64056Y152743D01*
X63628Y152600D01*
X63199D01*
X62771Y152743D01*
X62628Y152886D01*
X62485Y153171D01*
X95428Y196999D02*
Y194714D01*
X95285Y194286D01*
X95143Y194143D01*
X94857Y194000D01*
X94571D01*
X94286Y194143D01*
X94143Y194286D01*
X94000Y194714D01*
Y195000D01*
X96342Y196285D02*
Y196428D01*
X96485Y196714D01*
X96628Y196856D01*
X96914Y196999D01*
X97485D01*
X97771Y196856D01*
X97913Y196714D01*
X98056Y196428D01*
Y196142D01*
X97913Y195857D01*
X97628Y195428D01*
X96200Y194000D01*
X98199D01*
X11500Y26499D02*
Y23500D01*
Y26499D02*
X12500D01*
X12928Y26357D01*
X13214Y26071D01*
X13357Y25785D01*
X13500Y25357D01*
Y24643D01*
X13357Y24214D01*
X13214Y23929D01*
X12928Y23643D01*
X12500Y23500D01*
X11500D01*
X15885Y26499D02*
X14457D01*
X14314Y25214D01*
X14457Y25357D01*
X14885Y25500D01*
X15314D01*
X15742Y25357D01*
X16028Y25071D01*
X16170Y24643D01*
Y24357D01*
X16028Y23929D01*
X15742Y23643D01*
X15314Y23500D01*
X14885D01*
X14457Y23643D01*
X14314Y23786D01*
X14171Y24071D01*
X99000Y209499D02*
Y206500D01*
Y209499D02*
X100000D01*
X100428Y209356D01*
X100714Y209071D01*
X100857Y208785D01*
X101000Y208357D01*
Y207643D01*
X100857Y207214D01*
X100714Y206928D01*
X100428Y206643D01*
X100000Y206500D01*
X99000D01*
X103099Y209499D02*
X101671Y207500D01*
X103813D01*
X103099Y209499D02*
Y206500D01*
X56000Y69999D02*
Y67000D01*
Y69999D02*
X57000D01*
X57428Y69857D01*
X57714Y69571D01*
X57857Y69285D01*
X58000Y68857D01*
Y68143D01*
X57857Y67714D01*
X57714Y67428D01*
X57428Y67143D01*
X57000Y67000D01*
X56000D01*
X58956Y69999D02*
X60528D01*
X59671Y68857D01*
X60099D01*
X60385Y68714D01*
X60528Y68571D01*
X60670Y68143D01*
Y67857D01*
X60528Y67428D01*
X60242Y67143D01*
X59813Y67000D01*
X59385D01*
X58956Y67143D01*
X58814Y67286D01*
X58671Y67571D01*
X39000Y26499D02*
Y23500D01*
Y26499D02*
X40000D01*
X40428Y26357D01*
X40714Y26071D01*
X40857Y25785D01*
X41000Y25357D01*
Y24643D01*
X40857Y24214D01*
X40714Y23929D01*
X40428Y23643D01*
X40000Y23500D01*
X39000D01*
X41814Y25785D02*
Y25928D01*
X41956Y26214D01*
X42099Y26357D01*
X42385Y26499D01*
X42956D01*
X43242Y26357D01*
X43385Y26214D01*
X43528Y25928D01*
Y25642D01*
X43385Y25357D01*
X43099Y24928D01*
X41671Y23500D01*
X43670D01*
X76000Y26499D02*
Y23500D01*
Y26499D02*
X77000D01*
X77428Y26357D01*
X77714Y26071D01*
X77857Y25785D01*
X78000Y25357D01*
Y24643D01*
X77857Y24214D01*
X77714Y23929D01*
X77428Y23643D01*
X77000Y23500D01*
X76000D01*
X78671Y25928D02*
X78957Y26071D01*
X79385Y26499D01*
Y23500D01*
X112785Y108858D02*
X113071Y109000D01*
X113356Y109286D01*
X113499Y109572D01*
Y110143D01*
X113356Y110429D01*
X113071Y110714D01*
X112785Y110857D01*
X112357Y111000D01*
X111643D01*
X111214Y110857D01*
X110928Y110714D01*
X110643Y110429D01*
X110500Y110143D01*
Y109572D01*
X110643Y109286D01*
X110928Y109000D01*
X111214Y108858D01*
X113071Y106301D02*
X113356Y106444D01*
X113499Y106872D01*
Y107158D01*
X113356Y107586D01*
X112928Y107872D01*
X112214Y108015D01*
X111500D01*
X110928Y107872D01*
X110643Y107586D01*
X110500Y107158D01*
Y107015D01*
X110643Y106587D01*
X110928Y106301D01*
X111357Y106158D01*
X111500D01*
X111928Y106301D01*
X112214Y106587D01*
X112357Y107015D01*
Y107158D01*
X112214Y107586D01*
X111928Y107872D01*
X111500Y108015D01*
X108642Y44285D02*
X108500Y44571D01*
X108214Y44857D01*
X107928Y44999D01*
X107357D01*
X107071Y44857D01*
X106786Y44571D01*
X106643Y44285D01*
X106500Y43857D01*
Y43143D01*
X106643Y42714D01*
X106786Y42428D01*
X107071Y42143D01*
X107357Y42000D01*
X107928D01*
X108214Y42143D01*
X108500Y42428D01*
X108642Y42714D01*
X110913Y44999D02*
X109485Y43000D01*
X111627D01*
X110913Y44999D02*
Y42000D01*
X117142Y44285D02*
X117000Y44571D01*
X116714Y44857D01*
X116428Y44999D01*
X115857D01*
X115571Y44857D01*
X115286Y44571D01*
X115143Y44285D01*
X115000Y43857D01*
Y43143D01*
X115143Y42714D01*
X115286Y42428D01*
X115571Y42143D01*
X115857Y42000D01*
X116428D01*
X116714Y42143D01*
X117000Y42428D01*
X117142Y42714D01*
X118271Y44999D02*
X119842D01*
X118985Y43857D01*
X119413D01*
X119699Y43714D01*
X119842Y43571D01*
X119985Y43143D01*
Y42857D01*
X119842Y42428D01*
X119556Y42143D01*
X119128Y42000D01*
X118699D01*
X118271Y42143D01*
X118128Y42286D01*
X117985Y42571D01*
X116142Y130785D02*
X116000Y131071D01*
X115714Y131357D01*
X115428Y131499D01*
X114857D01*
X114571Y131357D01*
X114286Y131071D01*
X114143Y130785D01*
X114000Y130357D01*
Y129643D01*
X114143Y129214D01*
X114286Y128928D01*
X114571Y128643D01*
X114857Y128500D01*
X115428D01*
X115714Y128643D01*
X116000Y128928D01*
X116142Y129214D01*
X117128Y130785D02*
Y130928D01*
X117271Y131214D01*
X117414Y131357D01*
X117699Y131499D01*
X118271D01*
X118556Y131357D01*
X118699Y131214D01*
X118842Y130928D01*
Y130642D01*
X118699Y130357D01*
X118413Y129928D01*
X116985Y128500D01*
X118985D01*
X121513Y130500D02*
X121370Y130071D01*
X121084Y129785D01*
X120656Y129643D01*
X120513D01*
X120084Y129785D01*
X119799Y130071D01*
X119656Y130500D01*
Y130642D01*
X119799Y131071D01*
X120084Y131357D01*
X120513Y131499D01*
X120656D01*
X121084Y131357D01*
X121370Y131071D01*
X121513Y130500D01*
Y129785D01*
X121370Y129071D01*
X121084Y128643D01*
X120656Y128500D01*
X120370D01*
X119942Y128643D01*
X119799Y128928D01*
X60142Y130785D02*
X60000Y131071D01*
X59714Y131357D01*
X59428Y131499D01*
X58857D01*
X58571Y131357D01*
X58286Y131071D01*
X58143Y130785D01*
X58000Y130357D01*
Y129643D01*
X58143Y129214D01*
X58286Y128928D01*
X58571Y128643D01*
X58857Y128500D01*
X59428D01*
X59714Y128643D01*
X60000Y128928D01*
X60142Y129214D01*
X61128Y130785D02*
Y130928D01*
X61271Y131214D01*
X61414Y131357D01*
X61699Y131499D01*
X62270D01*
X62556Y131357D01*
X62699Y131214D01*
X62842Y130928D01*
Y130642D01*
X62699Y130357D01*
X62413Y129928D01*
X60985Y128500D01*
X62985D01*
X64370Y131499D02*
X63942Y131357D01*
X63799Y131071D01*
Y130785D01*
X63942Y130500D01*
X64227Y130357D01*
X64798Y130214D01*
X65227Y130071D01*
X65513Y129785D01*
X65655Y129500D01*
Y129071D01*
X65513Y128786D01*
X65370Y128643D01*
X64941Y128500D01*
X64370D01*
X63942Y128643D01*
X63799Y128786D01*
X63656Y129071D01*
Y129500D01*
X63799Y129785D01*
X64084Y130071D01*
X64513Y130214D01*
X65084Y130357D01*
X65370Y130500D01*
X65513Y130785D01*
Y131071D01*
X65370Y131357D01*
X64941Y131499D01*
X64370D01*
X4642Y176285D02*
X4500Y176571D01*
X4214Y176857D01*
X3928Y176999D01*
X3357D01*
X3071Y176857D01*
X2786Y176571D01*
X2643Y176285D01*
X2500Y175857D01*
Y175143D01*
X2643Y174714D01*
X2786Y174428D01*
X3071Y174143D01*
X3357Y174000D01*
X3928D01*
X4214Y174143D01*
X4500Y174428D01*
X4642Y174714D01*
X5628Y176285D02*
Y176428D01*
X5771Y176714D01*
X5914Y176857D01*
X6199Y176999D01*
X6770D01*
X7056Y176857D01*
X7199Y176714D01*
X7342Y176428D01*
Y176142D01*
X7199Y175857D01*
X6913Y175428D01*
X5485Y174000D01*
X7485D01*
X8156Y176428D02*
X8442Y176571D01*
X8870Y176999D01*
Y174000D01*
X4642Y180785D02*
X4500Y181071D01*
X4214Y181357D01*
X3928Y181499D01*
X3357D01*
X3071Y181357D01*
X2786Y181071D01*
X2643Y180785D01*
X2500Y180357D01*
Y179643D01*
X2643Y179214D01*
X2786Y178928D01*
X3071Y178643D01*
X3357Y178500D01*
X3928D01*
X4214Y178643D01*
X4500Y178928D01*
X4642Y179214D01*
X5628Y180785D02*
Y180928D01*
X5771Y181214D01*
X5914Y181357D01*
X6199Y181499D01*
X6770D01*
X7056Y181357D01*
X7199Y181214D01*
X7342Y180928D01*
Y180642D01*
X7199Y180357D01*
X6913Y179928D01*
X5485Y178500D01*
X7485D01*
X9013Y181499D02*
X8584Y181357D01*
X8299Y180928D01*
X8156Y180214D01*
Y179785D01*
X8299Y179071D01*
X8584Y178643D01*
X9013Y178500D01*
X9298D01*
X9727Y178643D01*
X10013Y179071D01*
X10155Y179785D01*
Y180214D01*
X10013Y180928D01*
X9727Y181357D01*
X9298Y181499D01*
X9013D01*
X158142Y104285D02*
X158000Y104571D01*
X157714Y104857D01*
X157428Y104999D01*
X156857D01*
X156571Y104857D01*
X156286Y104571D01*
X156143Y104285D01*
X156000Y103857D01*
Y103143D01*
X156143Y102714D01*
X156286Y102428D01*
X156571Y102143D01*
X156857Y102000D01*
X157428D01*
X157714Y102143D01*
X158000Y102428D01*
X158142Y102714D01*
X159128Y104285D02*
Y104428D01*
X159271Y104714D01*
X159414Y104857D01*
X159699Y104999D01*
X160271D01*
X160556Y104857D01*
X160699Y104714D01*
X160842Y104428D01*
Y104142D01*
X160699Y103857D01*
X160413Y103428D01*
X158985Y102000D01*
X160985D01*
X64785Y55858D02*
X65071Y56000D01*
X65356Y56286D01*
X65499Y56572D01*
Y57143D01*
X65356Y57429D01*
X65071Y57714D01*
X64785Y57857D01*
X64357Y58000D01*
X63643D01*
X63214Y57857D01*
X62928Y57714D01*
X62643Y57429D01*
X62500Y57143D01*
Y56572D01*
X62643Y56286D01*
X62928Y56000D01*
X63214Y55858D01*
X64928Y55015D02*
X65071Y54729D01*
X65499Y54301D01*
X62500D01*
X65499Y52101D02*
X65356Y52530D01*
X65071Y52673D01*
X64785D01*
X64500Y52530D01*
X64357Y52244D01*
X64214Y51673D01*
X64071Y51244D01*
X63785Y50959D01*
X63500Y50816D01*
X63071D01*
X62786Y50959D01*
X62643Y51101D01*
X62500Y51530D01*
Y52101D01*
X62643Y52530D01*
X62786Y52673D01*
X63071Y52815D01*
X63500D01*
X63785Y52673D01*
X64071Y52387D01*
X64214Y51958D01*
X64357Y51387D01*
X64500Y51101D01*
X64785Y50959D01*
X65071D01*
X65356Y51101D01*
X65499Y51530D01*
Y52101D01*
X152142Y53785D02*
X152000Y54071D01*
X151714Y54356D01*
X151428Y54499D01*
X150857D01*
X150571Y54356D01*
X150286Y54071D01*
X150143Y53785D01*
X150000Y53357D01*
Y52643D01*
X150143Y52214D01*
X150286Y51929D01*
X150571Y51643D01*
X150857Y51500D01*
X151428D01*
X151714Y51643D01*
X152000Y51929D01*
X152142Y52214D01*
X152985Y53928D02*
X153271Y54071D01*
X153699Y54499D01*
Y51500D01*
X156898Y54071D02*
X156756Y54356D01*
X156327Y54499D01*
X156042D01*
X155613Y54356D01*
X155327Y53928D01*
X155185Y53214D01*
Y52500D01*
X155327Y51929D01*
X155613Y51643D01*
X156042Y51500D01*
X156184D01*
X156613Y51643D01*
X156898Y51929D01*
X157041Y52357D01*
Y52500D01*
X156898Y52928D01*
X156613Y53214D01*
X156184Y53357D01*
X156042D01*
X155613Y53214D01*
X155327Y52928D01*
X155185Y52500D01*
X70285Y80358D02*
X70571Y80500D01*
X70856Y80786D01*
X70999Y81072D01*
Y81643D01*
X70856Y81929D01*
X70571Y82214D01*
X70285Y82357D01*
X69857Y82500D01*
X69143D01*
X68714Y82357D01*
X68428Y82214D01*
X68143Y81929D01*
X68000Y81643D01*
Y81072D01*
X68143Y80786D01*
X68428Y80500D01*
X68714Y80358D01*
X70428Y79515D02*
X70571Y79229D01*
X70999Y78801D01*
X68000D01*
X70999Y75602D02*
Y77030D01*
X69714Y77173D01*
X69857Y77030D01*
X70000Y76601D01*
Y76173D01*
X69857Y75744D01*
X69571Y75459D01*
X69143Y75316D01*
X68857D01*
X68428Y75459D01*
X68143Y75744D01*
X68000Y76173D01*
Y76601D01*
X68143Y77030D01*
X68286Y77173D01*
X68571Y77315D01*
X21142Y125285D02*
X21000Y125571D01*
X20714Y125856D01*
X20428Y125999D01*
X19857D01*
X19571Y125856D01*
X19286Y125571D01*
X19143Y125285D01*
X19000Y124857D01*
Y124143D01*
X19143Y123714D01*
X19286Y123428D01*
X19571Y123143D01*
X19857Y123000D01*
X20428D01*
X20714Y123143D01*
X21000Y123428D01*
X21142Y123714D01*
X21985Y125428D02*
X22271Y125571D01*
X22699Y125999D01*
Y123000D01*
X24327Y125285D02*
Y125428D01*
X24470Y125714D01*
X24613Y125856D01*
X24899Y125999D01*
X25470D01*
X25756Y125856D01*
X25899Y125714D01*
X26041Y125428D01*
Y125142D01*
X25899Y124857D01*
X25613Y124428D01*
X24185Y123000D01*
X26184D01*
X164142Y114285D02*
X164000Y114571D01*
X163714Y114857D01*
X163428Y114999D01*
X162857D01*
X162571Y114857D01*
X162286Y114571D01*
X162143Y114285D01*
X162000Y113857D01*
Y113143D01*
X162143Y112714D01*
X162286Y112428D01*
X162571Y112143D01*
X162857Y112000D01*
X163428D01*
X163714Y112143D01*
X164000Y112428D01*
X164142Y112714D01*
X164985Y114428D02*
X165271Y114571D01*
X165699Y114999D01*
Y112000D01*
X6999Y47999D02*
X6499Y48499D01*
X5500D01*
X5000Y47999D01*
Y46000D01*
X5500Y45500D01*
X6499D01*
X6999Y46000D01*
X7999Y47999D02*
X8499Y48499D01*
X9499D01*
X9998Y47999D01*
Y47499D01*
X9499Y46999D01*
X8999D01*
X9499D01*
X9998Y46500D01*
Y46000D01*
X9499Y45500D01*
X8499D01*
X7999Y46000D01*
X10998Y48499D02*
X12997D01*
Y47999D01*
X10998Y46000D01*
Y45500D01*
X28999Y68001D02*
X29499Y68501D01*
Y69500D01*
X28999Y70000D01*
X27000D01*
X26500Y69500D01*
Y68501D01*
X27000Y68001D01*
X28999Y67001D02*
X29499Y66501D01*
Y65501D01*
X28999Y65002D01*
X28499D01*
X27999Y65501D01*
Y66001D01*
Y65501D01*
X27500Y65002D01*
X27000D01*
X26500Y65501D01*
Y66501D01*
X27000Y67001D01*
X28999Y64002D02*
X29499Y63502D01*
Y62502D01*
X28999Y62003D01*
X28499D01*
X27999Y62502D01*
X27500Y62003D01*
X27000D01*
X26500Y62502D01*
Y63502D01*
X27000Y64002D01*
X27500D01*
X27999Y63502D01*
X28499Y64002D01*
X28999D01*
X27999Y63502D02*
Y62502D01*
X180499Y196999D02*
X179500D01*
X179999D01*
Y194500D01*
X179500Y194000D01*
X179000D01*
X178500Y194500D01*
X181499Y194000D02*
X182499D01*
X181999D01*
Y196999D01*
X181499Y196499D01*
X183998Y194000D02*
X184998D01*
X184498D01*
Y196999D01*
X183998Y196499D01*
X37500Y29000D02*
Y31999D01*
X39000D01*
X39499Y31499D01*
Y30500D01*
X39000Y30000D01*
X37500D01*
X38500D02*
X39499Y29000D01*
X41999D02*
Y31999D01*
X40499Y30500D01*
X42498D01*
X43498Y31499D02*
X43998Y31999D01*
X44998D01*
X45497Y31499D01*
Y30999D01*
X44998Y30500D01*
X44498D01*
X44998D01*
X45497Y30000D01*
Y29500D01*
X44998Y29000D01*
X43998D01*
X43498Y29500D01*
X50000Y36000D02*
Y38999D01*
X51499D01*
X51999Y38499D01*
Y37499D01*
X51499Y37000D01*
X50000D01*
X51000D02*
X51999Y36000D01*
X54499D02*
Y38999D01*
X52999Y37499D01*
X54998D01*
X57498Y36000D02*
Y38999D01*
X55998Y37499D01*
X57997D01*
X49500Y56000D02*
Y58999D01*
X50999D01*
X51499Y58499D01*
Y57499D01*
X50999Y57000D01*
X49500D01*
X50500D02*
X51499Y56000D01*
X53999D02*
Y58999D01*
X52499Y57499D01*
X54498D01*
X57497Y58999D02*
X55498D01*
Y57499D01*
X56498Y57999D01*
X56998D01*
X57497Y57499D01*
Y56500D01*
X56998Y56000D01*
X55998D01*
X55498Y56500D01*
X20000Y30500D02*
Y33499D01*
X21499D01*
X21999Y32999D01*
Y31999D01*
X21499Y31500D01*
X20000D01*
X21000D02*
X21999Y30500D01*
X24499D02*
Y33499D01*
X22999Y31999D01*
X24998D01*
X27997Y33499D02*
X26998Y32999D01*
X25998Y31999D01*
Y31000D01*
X26498Y30500D01*
X27498D01*
X27997Y31000D01*
Y31500D01*
X27498Y31999D01*
X25998D01*
X44500Y70000D02*
X47499D01*
Y68501D01*
X46999Y68001D01*
X46000D01*
X45500Y68501D01*
Y70000D01*
Y69000D02*
X44500Y68001D01*
Y65501D02*
X47499D01*
X46000Y67001D01*
Y65002D01*
X47499Y64002D02*
Y62003D01*
X46999D01*
X45000Y64002D01*
X44500D01*
X12000Y56500D02*
Y59499D01*
X13499D01*
X13999Y58999D01*
Y57999D01*
X13499Y57500D01*
X12000D01*
X13000D02*
X13999Y56500D01*
X16499D02*
Y59499D01*
X14999Y57999D01*
X16998D01*
X17998Y58999D02*
X18498Y59499D01*
X19498D01*
X19997Y58999D01*
Y58499D01*
X19498Y57999D01*
X19997Y57500D01*
Y57000D01*
X19498Y56500D01*
X18498D01*
X17998Y57000D01*
Y57500D01*
X18498Y57999D01*
X17998Y58499D01*
Y58999D01*
X18498Y57999D02*
X19498D01*
X29000Y38999D02*
Y36500D01*
X29500Y36000D01*
X30500D01*
X30999Y36500D01*
Y38999D01*
X31999Y38499D02*
X32499Y38999D01*
X33499D01*
X33998Y38499D01*
Y37999D01*
X33499Y37499D01*
X32999D01*
X33499D01*
X33998Y37000D01*
Y36500D01*
X33499Y36000D01*
X32499D01*
X31999Y36500D01*
X101499Y110501D02*
X101999Y111001D01*
Y112000D01*
X101499Y112500D01*
X99500D01*
X99000Y112000D01*
Y111001D01*
X99500Y110501D01*
X101999Y107502D02*
Y109501D01*
X100499D01*
X100999Y108501D01*
Y108001D01*
X100499Y107502D01*
X99500D01*
X99000Y108001D01*
Y109001D01*
X99500Y109501D01*
X123499Y109001D02*
X123999Y109501D01*
Y110500D01*
X123499Y111000D01*
X121500D01*
X121000Y110500D01*
Y109501D01*
X121500Y109001D01*
X123999Y108001D02*
Y106002D01*
X123499D01*
X121500Y108001D01*
X121000D01*
X72999Y104499D02*
X72500Y104999D01*
X71500D01*
X71000Y104499D01*
Y102500D01*
X71500Y102000D01*
X72500D01*
X72999Y102500D01*
X73999D02*
X74499Y102000D01*
X75499D01*
X75998Y102500D01*
Y104499D01*
X75499Y104999D01*
X74499D01*
X73999Y104499D01*
Y103999D01*
X74499Y103499D01*
X75998D01*
X41500Y129499D02*
Y126500D01*
X43499D01*
X44499D02*
X45499D01*
X44999D01*
Y129499D01*
X44499Y128999D01*
X20999Y118499D02*
X20500Y118999D01*
X19500D01*
X19000Y118499D01*
Y116500D01*
X19500Y116000D01*
X20500D01*
X20999Y116500D01*
X21999Y116000D02*
X22999D01*
X22499D01*
Y118999D01*
X21999Y118499D01*
X24498D02*
X24998Y118999D01*
X25998D01*
X26498Y118499D01*
Y117999D01*
X25998Y117499D01*
X25498D01*
X25998D01*
X26498Y117000D01*
Y116500D01*
X25998Y116000D01*
X24998D01*
X24498Y116500D01*
X151999Y46999D02*
X151499Y47499D01*
X150500D01*
X150000Y46999D01*
Y45000D01*
X150500Y44500D01*
X151499D01*
X151999Y45000D01*
X152999Y44500D02*
X153999D01*
X153499D01*
Y47499D01*
X152999Y46999D01*
X155498Y47499D02*
X157498D01*
Y46999D01*
X155498Y45000D01*
Y44500D01*
X145000Y81499D02*
Y79000D01*
X145500Y78500D01*
X146500D01*
X146999Y79000D01*
Y81499D01*
X147999Y78500D02*
X148999D01*
X148499D01*
Y81499D01*
X147999Y80999D01*
X207499Y90000D02*
X203500D01*
X207499D02*
X203500Y88477D01*
X207499Y86953D02*
X203500Y88477D01*
X207499Y86953D02*
X203500D01*
X206166Y84858D02*
X205976Y85239D01*
X205595Y85620D01*
X205024Y85810D01*
X204643D01*
X204071Y85620D01*
X203690Y85239D01*
X203500Y84858D01*
Y84287D01*
X203690Y83906D01*
X204071Y83525D01*
X204643Y83335D01*
X205024D01*
X205595Y83525D01*
X205976Y83906D01*
X206166Y84287D01*
Y84858D01*
X207499Y81888D02*
X204262D01*
X203690Y81697D01*
X203500Y81316D01*
Y80935D01*
X206166Y82459D02*
Y81126D01*
Y79412D02*
X205976Y79793D01*
X205595Y80173D01*
X205024Y80364D01*
X204643D01*
X204071Y80173D01*
X203690Y79793D01*
X203500Y79412D01*
Y78841D01*
X203690Y78460D01*
X204071Y78079D01*
X204643Y77888D01*
X205024D01*
X205595Y78079D01*
X205976Y78460D01*
X206166Y78841D01*
Y79412D01*
Y77012D02*
X203500D01*
X205024D02*
X205595Y76822D01*
X205976Y76441D01*
X206166Y76060D01*
Y75489D01*
X207499Y71985D02*
X203500D01*
X207499D02*
Y70652D01*
X207309Y70081D01*
X206928Y69700D01*
X206547Y69509D01*
X205976Y69319D01*
X205024D01*
X204452Y69509D01*
X204071Y69700D01*
X203690Y70081D01*
X203500Y70652D01*
Y71985D01*
X206166Y68424D02*
X203500D01*
X205024D02*
X205595Y68233D01*
X205976Y67852D01*
X206166Y67471D01*
Y66900D01*
X207499Y66158D02*
X207309Y65967D01*
X207499Y65777D01*
X207690Y65967D01*
X207499Y66158D01*
X206166Y65967D02*
X203500D01*
X206166Y65072D02*
X203500Y63929D01*
X206166Y62787D02*
X203500Y63929D01*
X205024Y62139D02*
Y59854D01*
X205404D01*
X205785Y60044D01*
X205976Y60235D01*
X206166Y60616D01*
Y61187D01*
X205976Y61568D01*
X205595Y61949D01*
X205024Y62139D01*
X204643D01*
X204071Y61949D01*
X203690Y61568D01*
X203500Y61187D01*
Y60616D01*
X203690Y60235D01*
X204071Y59854D01*
X207499Y55855D02*
X203500D01*
X207499D02*
Y54141D01*
X207309Y53570D01*
X207118Y53379D01*
X206737Y53189D01*
X206357D01*
X205976Y53379D01*
X205785Y53570D01*
X205595Y54141D01*
Y55855D02*
Y54141D01*
X205404Y53570D01*
X205214Y53379D01*
X204833Y53189D01*
X204262D01*
X203881Y53379D01*
X203690Y53570D01*
X203500Y54141D01*
Y55855D01*
X206166Y51342D02*
X205976Y51723D01*
X205595Y52103D01*
X205024Y52294D01*
X204643D01*
X204071Y52103D01*
X203690Y51723D01*
X203500Y51342D01*
Y50770D01*
X203690Y50389D01*
X204071Y50009D01*
X204643Y49818D01*
X205024D01*
X205595Y50009D01*
X205976Y50389D01*
X206166Y50770D01*
Y51342D01*
Y47990D02*
X205976Y48371D01*
X205595Y48752D01*
X205024Y48942D01*
X204643D01*
X204071Y48752D01*
X203690Y48371D01*
X203500Y47990D01*
Y47419D01*
X203690Y47038D01*
X204071Y46657D01*
X204643Y46466D01*
X205024D01*
X205595Y46657D01*
X205976Y47038D01*
X206166Y47419D01*
Y47990D01*
X205595Y43496D02*
X205976Y43686D01*
X206166Y44257D01*
Y44829D01*
X205976Y45400D01*
X205595Y45590D01*
X205214Y45400D01*
X205024Y45019D01*
X204833Y44067D01*
X204643Y43686D01*
X204262Y43496D01*
X204071D01*
X203690Y43686D01*
X203500Y44257D01*
Y44829D01*
X203690Y45400D01*
X204071Y45590D01*
X207499Y42086D02*
X204262D01*
X203690Y41896D01*
X203500Y41515D01*
Y41134D01*
X206166Y42658D02*
Y41325D01*
X205024Y40563D02*
Y38278D01*
X205404D01*
X205785Y38468D01*
X205976Y38659D01*
X206166Y39039D01*
Y39611D01*
X205976Y39992D01*
X205595Y40373D01*
X205024Y40563D01*
X204643D01*
X204071Y40373D01*
X203690Y39992D01*
X203500Y39611D01*
Y39039D01*
X203690Y38659D01*
X204071Y38278D01*
X206166Y37421D02*
X203500D01*
X205024D02*
X205595Y37230D01*
X205976Y36849D01*
X206166Y36469D01*
Y35897D01*
X205404Y35535D02*
Y33822D01*
X205595Y33250D01*
X205785Y33060D01*
X206166Y32869D01*
X206737D01*
X207118Y33060D01*
X207309Y33250D01*
X207499Y33822D01*
Y35535D01*
X203500D01*
X206166Y29689D02*
X203500D01*
X205595D02*
X205976Y30070D01*
X206166Y30451D01*
Y31022D01*
X205976Y31403D01*
X205595Y31784D01*
X205024Y31974D01*
X204643D01*
X204071Y31784D01*
X203690Y31403D01*
X203500Y31022D01*
Y30451D01*
X203690Y30070D01*
X204071Y29689D01*
X205595Y26338D02*
X205976Y26718D01*
X206166Y27099D01*
Y27670D01*
X205976Y28051D01*
X205595Y28432D01*
X205024Y28623D01*
X204643D01*
X204071Y28432D01*
X203690Y28051D01*
X203500Y27670D01*
Y27099D01*
X203690Y26718D01*
X204071Y26338D01*
X207499Y25480D02*
X203500D01*
X206166Y23576D02*
X204262Y25480D01*
X205024Y24719D02*
X203500Y23386D01*
X10285Y4571D02*
Y2000D01*
X9000Y3285D02*
X11571D01*
X12742Y4999D02*
X14313D01*
X13456Y3857D01*
X13885D01*
X14170Y3714D01*
X14313Y3571D01*
X14456Y3143D01*
Y2857D01*
X14313Y2428D01*
X14028Y2143D01*
X13599Y2000D01*
X13171D01*
X12742Y2143D01*
X12599Y2286D01*
X12456Y2571D01*
X15270Y2286D02*
X15127Y2143D01*
X15270Y2000D01*
X15413Y2143D01*
X15270Y2286D01*
X16356Y4999D02*
X17927D01*
X17070Y3857D01*
X17498D01*
X17784Y3714D01*
X17927Y3571D01*
X18069Y3143D01*
Y2857D01*
X17927Y2428D01*
X17641Y2143D01*
X17212Y2000D01*
X16784D01*
X16356Y2143D01*
X16213Y2286D01*
X16070Y2571D01*
X18741Y4999D02*
X19883Y2000D01*
X21026Y4999D02*
X19883Y2000D01*
X100500Y203428D02*
X101785D01*
X102214Y203571D01*
X102357Y203714D01*
X102500Y204000D01*
Y204428D01*
X102357Y204714D01*
X102214Y204856D01*
X101785Y204999D01*
X100500D01*
Y202000D01*
X103171Y204999D02*
X104314Y202000D01*
X105456Y204999D02*
X104314Y202000D01*
X105842Y204999D02*
Y202000D01*
Y204999D02*
X106842D01*
X107270Y204856D01*
X107556Y204571D01*
X107699Y204285D01*
X107841Y203857D01*
Y203143D01*
X107699Y202714D01*
X107556Y202429D01*
X107270Y202143D01*
X106842Y202000D01*
X105842D01*
X108513Y204999D02*
Y202000D01*
Y204999D02*
X109512D01*
X109941Y204856D01*
X110227Y204571D01*
X110369Y204285D01*
X110512Y203857D01*
Y203143D01*
X110369Y202714D01*
X110227Y202429D01*
X109941Y202143D01*
X109512Y202000D01*
X108513D01*
X72857Y4999D02*
X72571Y4857D01*
X72286Y4571D01*
X72143Y4285D01*
X72000Y3857D01*
Y3143D01*
X72143Y2714D01*
X72286Y2428D01*
X72571Y2143D01*
X72857Y2000D01*
X73428D01*
X73714Y2143D01*
X74000Y2428D01*
X74142Y2714D01*
X74285Y3143D01*
Y3857D01*
X74142Y4285D01*
X74000Y4571D01*
X73714Y4857D01*
X73428Y4999D01*
X72857D01*
X77127Y4285D02*
X76985Y4571D01*
X76699Y4857D01*
X76413Y4999D01*
X75842D01*
X75556Y4857D01*
X75271Y4571D01*
X75128Y4285D01*
X74985Y3857D01*
Y3143D01*
X75128Y2714D01*
X75271Y2428D01*
X75556Y2143D01*
X75842Y2000D01*
X76413D01*
X76699Y2143D01*
X76985Y2428D01*
X77127Y2714D01*
X78970Y4999D02*
Y2000D01*
X77970Y4999D02*
X79970D01*
X80327D02*
X81041Y2000D01*
X81755Y4999D02*
X81041Y2000D01*
X81755Y4999D02*
X82469Y2000D01*
X83183Y4999D02*
X82469Y2000D01*
X35500Y4999D02*
Y2000D01*
Y4999D02*
X37357D01*
X35500Y3571D02*
X36643D01*
X39985Y2000D02*
X38842Y4999D01*
X37699Y2000D01*
X38128Y3000D02*
X39556D01*
X40685Y4999D02*
Y2857D01*
X40827Y2428D01*
X41113Y2143D01*
X41542Y2000D01*
X41827D01*
X42256Y2143D01*
X42541Y2428D01*
X42684Y2857D01*
Y4999D01*
X43513D02*
Y2000D01*
X45226D01*
X46555Y4999D02*
Y2000D01*
X45555Y4999D02*
X47555D01*
X216999Y90000D02*
X213000D01*
X216999D02*
Y88286D01*
X216809Y87715D01*
X216618Y87524D01*
X216237Y87334D01*
X215857D01*
X215476Y87524D01*
X215285Y87715D01*
X215095Y88286D01*
Y90000D02*
Y88286D01*
X214904Y87715D01*
X214714Y87524D01*
X214333Y87334D01*
X213762D01*
X213381Y87524D01*
X213190Y87715D01*
X213000Y88286D01*
Y90000D01*
X216999Y85296D02*
X216809Y85677D01*
X216428Y86058D01*
X216047Y86248D01*
X215476Y86439D01*
X214524D01*
X213952Y86248D01*
X213571Y86058D01*
X213190Y85677D01*
X213000Y85296D01*
Y84535D01*
X213190Y84154D01*
X213571Y83773D01*
X213952Y83582D01*
X214524Y83392D01*
X215476D01*
X216047Y83582D01*
X216428Y83773D01*
X216809Y84154D01*
X216999Y84535D01*
Y85296D01*
Y81316D02*
X216809Y81697D01*
X216428Y82078D01*
X216047Y82268D01*
X215476Y82459D01*
X214524D01*
X213952Y82268D01*
X213571Y82078D01*
X213190Y81697D01*
X213000Y81316D01*
Y80554D01*
X213190Y80173D01*
X213571Y79793D01*
X213952Y79602D01*
X214524Y79412D01*
X215476D01*
X216047Y79602D01*
X216428Y79793D01*
X216809Y80173D01*
X216999Y80554D01*
Y81316D01*
X216428Y75813D02*
X216809Y76193D01*
X216999Y76765D01*
Y77526D01*
X216809Y78098D01*
X216428Y78479D01*
X216047D01*
X215666Y78288D01*
X215476Y78098D01*
X215285Y77717D01*
X214904Y76574D01*
X214714Y76193D01*
X214524Y76003D01*
X214143Y75813D01*
X213571D01*
X213190Y76193D01*
X213000Y76765D01*
Y77526D01*
X213190Y78098D01*
X213571Y78479D01*
X216999Y73585D02*
X213000D01*
X216999Y74918D02*
Y72251D01*
Y71775D02*
X213000Y69109D01*
X216999D02*
X213000Y71775D01*
X216999Y68214D02*
X213000D01*
Y65929D01*
X214714Y65491D02*
Y62063D01*
X216999Y60882D02*
X213000D01*
X216999D02*
Y59549D01*
X216809Y58978D01*
X216428Y58597D01*
X216047Y58407D01*
X215476Y58216D01*
X214524D01*
X213952Y58407D01*
X213571Y58597D01*
X213190Y58978D01*
X213000Y59549D01*
Y60882D01*
X216999Y57321D02*
X213000D01*
X216999D02*
Y55607D01*
X216809Y55036D01*
X216618Y54846D01*
X216237Y54655D01*
X215857D01*
X215476Y54846D01*
X215285Y55036D01*
X215095Y55607D01*
Y57321D01*
Y55988D02*
X213000Y54655D01*
X216999Y53760D02*
X213000Y52237D01*
X216999Y50713D02*
X213000Y52237D01*
X216999Y49247D02*
X216809Y49818D01*
X216428Y50009D01*
X216047D01*
X215666Y49818D01*
X215476Y49437D01*
X215285Y48676D01*
X215095Y48104D01*
X214714Y47723D01*
X214333Y47533D01*
X213762D01*
X213381Y47723D01*
X213190Y47914D01*
X213000Y48485D01*
Y49247D01*
X213190Y49818D01*
X213381Y50009D01*
X213762Y50199D01*
X214333D01*
X214714Y50009D01*
X215095Y49628D01*
X215285Y49056D01*
X215476Y48295D01*
X215666Y47914D01*
X216047Y47723D01*
X216428D01*
X216809Y47914D01*
X216999Y48485D01*
Y49247D01*
Y46257D02*
Y44162D01*
X215476Y45305D01*
Y44734D01*
X215285Y44353D01*
X215095Y44162D01*
X214524Y43972D01*
X214143D01*
X213571Y44162D01*
X213190Y44543D01*
X213000Y45114D01*
Y45686D01*
X213190Y46257D01*
X213381Y46447D01*
X213762Y46638D01*
X216999Y41934D02*
X216809Y42505D01*
X216237Y42886D01*
X215285Y43077D01*
X214714D01*
X213762Y42886D01*
X213190Y42505D01*
X213000Y41934D01*
Y41553D01*
X213190Y40982D01*
X213762Y40601D01*
X214714Y40411D01*
X215285D01*
X216237Y40601D01*
X216809Y40982D01*
X216999Y41553D01*
Y41934D01*
X216237Y39516D02*
X216428Y39135D01*
X216999Y38563D01*
X213000D01*
X216999Y33441D02*
X213000D01*
X216999D02*
Y31727D01*
X216809Y31155D01*
X216618Y30965D01*
X216237Y30775D01*
X215857D01*
X215476Y30965D01*
X215285Y31155D01*
X215095Y31727D01*
Y33441D01*
Y32108D02*
X213000Y30775D01*
X216999Y27404D02*
Y29880D01*
X213000D01*
Y27404D01*
X215095Y29880D02*
Y28356D01*
X216999Y26737D02*
X213000Y25214D01*
X216999Y23690D02*
X213000Y25214D01*
X216999Y23176D02*
X213000D01*
X216999D02*
Y21462D01*
X216809Y20891D01*
X216618Y20701D01*
X216237Y20510D01*
X215857D01*
X215476Y20701D01*
X215285Y20891D01*
X215095Y21462D01*
Y23176D02*
Y21462D01*
X214904Y20891D01*
X214714Y20701D01*
X214333Y20510D01*
X213762D01*
X213381Y20701D01*
X213190Y20891D01*
X213000Y21462D01*
Y23176D01*
D43*
X24474Y78198D02*
X24593Y77960D01*
X24950Y77602D01*
X22450D01*
X42571Y40854D02*
X42452Y41092D01*
X42094Y41449D01*
X44594D01*
D44*
X34000Y79500D02*
D03*
M02*
