%FSLAX25Y25*%
%MOIN*%
G70*
G01*
G75*
G04 Layer_Color=8388736*
%ADD10R,0.02500X0.04200*%
%ADD11R,0.02362X0.05906*%
%ADD12R,0.08500X0.10799*%
%ADD13R,0.07874X0.16142*%
%ADD14R,0.06299X0.12598*%
%ADD15R,0.20472X0.19685*%
%ADD16R,0.03000X0.05000*%
%ADD17R,0.06000X0.05000*%
%ADD18R,0.10000X0.06500*%
%ADD19R,0.04000X0.01500*%
%ADD20R,0.01100X0.05800*%
%ADD21R,0.25197X0.14173*%
%ADD22R,0.03347X0.03150*%
%ADD23R,0.03150X0.03347*%
%ADD24R,0.05512X0.04331*%
%ADD25R,0.04331X0.10236*%
%ADD26R,0.10236X0.04331*%
%ADD27C,0.01000*%
%ADD28C,0.02000*%
%ADD29C,0.10000*%
%ADD30C,0.06890*%
%ADD31R,0.06890X0.06890*%
%ADD32C,0.02500*%
%ADD33R,0.01000X0.01000*%
%ADD34R,0.07874X0.03937*%
%ADD35R,0.05906X0.13780*%
%ADD36R,0.03937X0.03740*%
%ADD37R,0.01000X0.01000*%
%ADD38R,0.06890X0.04331*%
%ADD39C,0.00984*%
%ADD40C,0.00787*%
%ADD41C,0.00700*%
%ADD42C,0.00600*%
%ADD43C,0.00300*%
%ADD44R,0.02000X0.16400*%
%ADD45R,0.20600X0.19813*%
%ADD46R,0.03300X0.05300*%
%ADD47R,0.02900X0.04600*%
%ADD48R,0.02762X0.06306*%
%ADD49R,0.08900X0.11199*%
%ADD50R,0.08274X0.16542*%
%ADD51R,0.06699X0.12998*%
%ADD52R,0.06400X0.05400*%
%ADD53R,0.10400X0.06900*%
%ADD54R,0.04400X0.01900*%
%ADD55R,0.01500X0.06200*%
%ADD56R,0.25597X0.14573*%
%ADD57R,0.03747X0.03550*%
%ADD58R,0.03550X0.03747*%
%ADD59R,0.05912X0.04731*%
%ADD60R,0.04731X0.10636*%
%ADD61R,0.10636X0.04731*%
%ADD62C,0.07290*%
%ADD63R,0.07290X0.07290*%
%ADD64R,0.08200X0.04263*%
%ADD65R,0.06306X0.14179*%
%ADD66R,0.04337X0.04140*%
%ADD67R,0.07290X0.04731*%
%ADD68R,0.08137X0.04200*%
%ADD69C,0.00500*%
%ADD70C,0.00110*%
%ADD71C,0.00394*%
%ADD72C,0.00400*%
%ADD73C,0.00098*%
D42*
X22400Y70671D02*
X24686D01*
X25114Y70814D01*
X25257Y70957D01*
X25400Y71243D01*
Y71528D01*
X25257Y71814D01*
X25114Y71957D01*
X24686Y72100D01*
X24400D01*
X22400Y69614D02*
Y68043D01*
X23543Y68900D01*
Y68472D01*
X23686Y68186D01*
X23829Y68043D01*
X24257Y67901D01*
X24543D01*
X24971Y68043D01*
X25257Y68329D01*
X25400Y68757D01*
Y69186D01*
X25257Y69614D01*
X25114Y69757D01*
X24828Y69900D01*
X160284Y143532D02*
Y147530D01*
X158284D01*
X157618Y146864D01*
Y145531D01*
X158284Y144864D01*
X160284D01*
X158951D02*
X157618Y143532D01*
X156285Y146864D02*
X155618Y147530D01*
X154285D01*
X153619Y146864D01*
Y146197D01*
X154285Y145531D01*
X154952D01*
X154285D01*
X153619Y144864D01*
Y144198D01*
X154285Y143532D01*
X155618D01*
X156285Y144198D01*
X149620Y147530D02*
X152286D01*
Y145531D01*
X150953Y146197D01*
X150287D01*
X149620Y145531D01*
Y144198D01*
X150287Y143532D01*
X151620D01*
X152286Y144198D01*
X210784Y143532D02*
Y147530D01*
X208784D01*
X208118Y146864D01*
Y145531D01*
X208784Y144864D01*
X210784D01*
X209451D02*
X208118Y143532D01*
X206785Y146864D02*
X206118Y147530D01*
X204785D01*
X204119Y146864D01*
Y146197D01*
X204785Y145531D01*
X205452D01*
X204785D01*
X204119Y144864D01*
Y144198D01*
X204785Y143532D01*
X206118D01*
X206785Y144198D01*
X200120Y147530D02*
X201453Y146864D01*
X202786Y145531D01*
Y144198D01*
X202120Y143532D01*
X200787D01*
X200120Y144198D01*
Y144864D01*
X200787Y145531D01*
X202786D01*
X104283Y143532D02*
Y147530D01*
X102284D01*
X101618Y146864D01*
Y145531D01*
X102284Y144864D01*
X104283D01*
X102951D02*
X101618Y143532D01*
X100285Y146864D02*
X99618Y147530D01*
X98285D01*
X97619Y146864D01*
Y146197D01*
X98285Y145531D01*
X98952D01*
X98285D01*
X97619Y144864D01*
Y144198D01*
X98285Y143532D01*
X99618D01*
X100285Y144198D01*
X94287Y143532D02*
Y147530D01*
X96286Y145531D01*
X93620D01*
X149501Y134000D02*
X149001Y133501D01*
X148002D01*
X147502Y134000D01*
Y136000D01*
X148002Y136500D01*
X149001D01*
X149501Y136000D01*
X150501Y134000D02*
X151001Y133501D01*
X152000D01*
X152500Y134000D01*
Y134500D01*
X152000Y135000D01*
X151500D01*
X152000D01*
X152500Y135500D01*
Y136000D01*
X152000Y136500D01*
X151001D01*
X150501Y136000D01*
X155499Y136500D02*
X153500D01*
X155499Y134500D01*
Y134000D01*
X154999Y133501D01*
X154000D01*
X153500Y134000D01*
X93501D02*
X93001Y133501D01*
X92002D01*
X91502Y134000D01*
Y136000D01*
X92002Y136500D01*
X93001D01*
X93501Y136000D01*
X94501Y134000D02*
X95001Y133501D01*
X96000D01*
X96500Y134000D01*
Y134500D01*
X96000Y135000D01*
X95500D01*
X96000D01*
X96500Y135500D01*
Y136000D01*
X96000Y136500D01*
X95001D01*
X94501Y136000D01*
X97500Y136500D02*
X98500D01*
X98000D01*
Y133501D01*
X97500Y134000D01*
X200001D02*
X199501Y133501D01*
X198502D01*
X198002Y134000D01*
Y136000D01*
X198502Y136500D01*
X199501D01*
X200001Y136000D01*
X201001Y134000D02*
X201501Y133501D01*
X202500D01*
X203000Y134000D01*
Y134500D01*
X202500Y135000D01*
X202000D01*
X202500D01*
X203000Y135500D01*
Y136000D01*
X202500Y136500D01*
X201501D01*
X201001Y136000D01*
X204000Y134000D02*
X204500Y133501D01*
X205499D01*
X205999Y134000D01*
Y134500D01*
X205499Y135000D01*
X204999D01*
X205499D01*
X205999Y135500D01*
Y136000D01*
X205499Y136500D01*
X204500D01*
X204000Y136000D01*
X195400Y51743D02*
X197686D01*
X198114Y51885D01*
X198257Y52028D01*
X198400Y52314D01*
Y52600D01*
X198257Y52885D01*
X198114Y53028D01*
X197686Y53171D01*
X197400D01*
X195400Y49543D02*
X197400Y50971D01*
Y48829D01*
X195400Y49543D02*
X198400D01*
D69*
X111075Y199807D02*
X107876D01*
Y198208D01*
X108409Y197675D01*
X109475D01*
X110009Y198208D01*
Y199807D01*
Y198741D02*
X111075Y197675D01*
Y194475D02*
Y196608D01*
X108942Y194475D01*
X108409D01*
X107876Y195009D01*
Y196075D01*
X108409Y196608D01*
X111075Y193409D02*
Y192343D01*
Y192876D01*
X107876D01*
X108409Y193409D01*
D71*
X140303Y138906D02*
X165697D01*
X140303Y152094D02*
X165697D01*
Y138906D02*
Y152094D01*
X140303Y138906D02*
Y152094D01*
X190803Y138906D02*
X216197D01*
X190803Y152094D02*
X216197D01*
Y138906D02*
Y152094D01*
X190803Y138906D02*
Y152094D01*
X84303Y138906D02*
X109697D01*
X84303Y152094D02*
X109697D01*
Y138906D02*
Y152094D01*
X84303Y138906D02*
Y152094D01*
X146898Y137854D02*
X159102D01*
X146898Y132146D02*
X159102D01*
Y137854D01*
X146898Y132146D02*
Y137854D01*
X90898D02*
X103102D01*
X90898Y132146D02*
X103102D01*
Y137854D01*
X90898Y132146D02*
Y137854D01*
X197398D02*
X209602D01*
X197398Y132146D02*
X209602D01*
Y137854D01*
X197398Y132146D02*
Y137854D01*
X54776Y118433D02*
X64224D01*
X54776Y122567D02*
X64224D01*
X54776Y118433D02*
Y122567D01*
X64224Y118433D02*
Y122567D01*
X54776Y124933D02*
X64224D01*
X54776Y129067D02*
X64224D01*
X54776Y124933D02*
Y129067D01*
X64224Y124933D02*
Y129067D01*
X97433Y197276D02*
Y206724D01*
X101567Y197276D02*
Y206724D01*
X97433D02*
X101567D01*
X97433Y197276D02*
X101567D01*
X20067Y211776D02*
Y221224D01*
X15933Y211776D02*
Y221224D01*
Y211776D02*
X20067D01*
X15933Y221224D02*
X20067D01*
X107433Y205776D02*
Y215224D01*
X111567Y205776D02*
Y215224D01*
X107433D02*
X111567D01*
X107433Y205776D02*
X111567D01*
X44276Y27567D02*
X53724D01*
X44276Y23433D02*
X53724D01*
Y27567D01*
X44276Y23433D02*
Y27567D01*
Y40567D02*
X53724D01*
X44276Y36433D02*
X53724D01*
Y40567D01*
X44276Y36433D02*
Y40567D01*
Y53567D02*
X53724D01*
X44276Y49433D02*
X53724D01*
Y53567D01*
X44276Y49433D02*
Y53567D01*
X34067Y211776D02*
Y221224D01*
X29933Y211776D02*
Y221224D01*
Y211776D02*
X34067D01*
X29933Y221224D02*
X34067D01*
X22933Y211776D02*
Y221224D01*
X27067Y211776D02*
Y221224D01*
X22933D02*
X27067D01*
X22933Y211776D02*
X27067D01*
X44276Y60067D02*
X53724D01*
X44276Y55933D02*
X53724D01*
Y60067D01*
X44276Y55933D02*
Y60067D01*
Y47067D02*
X53724D01*
X44276Y42933D02*
X53724D01*
Y47067D01*
X44276Y42933D02*
Y47067D01*
Y34067D02*
X53724D01*
X44276Y29933D02*
X53724D01*
Y34067D01*
X44276Y29933D02*
Y34067D01*
X105957Y187307D02*
X113043D01*
X105957Y200693D02*
X113043D01*
X105957Y187307D02*
Y200693D01*
X113043Y187307D02*
Y200693D01*
X44276Y87067D02*
X53724D01*
X44276Y82933D02*
X53724D01*
Y87067D01*
X44276Y82933D02*
Y87067D01*
Y77067D02*
X53724D01*
X44276Y72933D02*
X53724D01*
Y77067D01*
X44276Y72933D02*
Y77067D01*
Y67067D02*
X53724D01*
X44276Y62933D02*
X53724D01*
Y67067D01*
X44276Y62933D02*
Y67067D01*
X134567Y192776D02*
Y202224D01*
X130433Y192776D02*
Y202224D01*
Y192776D02*
X134567D01*
X130433Y202224D02*
X134567D01*
X127567Y192776D02*
Y202224D01*
X123433Y192776D02*
Y202224D01*
Y192776D02*
X127567D01*
X123433Y202224D02*
X127567D01*
X156067Y192776D02*
Y202224D01*
X151933Y192776D02*
Y202224D01*
Y192776D02*
X156067D01*
X151933Y202224D02*
X156067D01*
X149067Y192776D02*
Y202224D01*
X144933Y192776D02*
Y202224D01*
Y192776D02*
X149067D01*
X144933Y202224D02*
X149067D01*
X177567Y192776D02*
Y202224D01*
X173433Y192776D02*
Y202224D01*
Y192776D02*
X177567D01*
X173433Y202224D02*
X177567D01*
X170567Y192776D02*
Y202224D01*
X166433Y192776D02*
Y202224D01*
Y192776D02*
X170567D01*
X166433Y202224D02*
X170567D01*
D72*
X62168Y121250D02*
X62534Y121617D01*
X63267D01*
X63634Y121250D01*
Y119784D01*
X63267Y119417D01*
X62534D01*
X62168Y119784D01*
X61435Y119417D02*
X60702D01*
X61068D01*
Y121617D01*
X61435Y121250D01*
X59602Y119784D02*
X59235Y119417D01*
X58502D01*
X58136Y119784D01*
Y121250D01*
X58502Y121617D01*
X59235D01*
X59602Y121250D01*
Y120884D01*
X59235Y120517D01*
X58136D01*
X63634Y125917D02*
Y128117D01*
X62534D01*
X62168Y127750D01*
Y127017D01*
X62534Y126650D01*
X63634D01*
X62901D02*
X62168Y125917D01*
X61435D02*
X60702D01*
X61068D01*
Y128117D01*
X61435Y127750D01*
X58502Y125917D02*
Y128117D01*
X59602Y127017D01*
X58136D01*
X100250Y199332D02*
X100617Y198966D01*
Y198233D01*
X100250Y197866D01*
X98784D01*
X98417Y198233D01*
Y198966D01*
X98784Y199332D01*
X98417Y201532D02*
Y200065D01*
X99884Y201532D01*
X100250D01*
X100617Y201165D01*
Y200432D01*
X100250Y200065D01*
X98417Y203731D02*
Y202265D01*
X99884Y203731D01*
X100250D01*
X100617Y203364D01*
Y202631D01*
X100250Y202265D01*
X17250Y219168D02*
X16883Y219534D01*
Y220267D01*
X17250Y220634D01*
X18716D01*
X19083Y220267D01*
Y219534D01*
X18716Y219168D01*
X19083Y216968D02*
Y218435D01*
X17616Y216968D01*
X17250D01*
X16883Y217335D01*
Y218068D01*
X17250Y218435D01*
Y216235D02*
X16883Y215869D01*
Y215136D01*
X17250Y214769D01*
X17616D01*
X17983Y215136D01*
Y215502D01*
Y215136D01*
X18350Y214769D01*
X18716D01*
X19083Y215136D01*
Y215869D01*
X18716Y216235D01*
X110250Y207832D02*
X110617Y207466D01*
Y206733D01*
X110250Y206366D01*
X108784D01*
X108417Y206733D01*
Y207466D01*
X108784Y207832D01*
X108417Y210032D02*
Y208565D01*
X109883Y210032D01*
X110250D01*
X110617Y209665D01*
Y208932D01*
X110250Y208565D01*
X108417Y211864D02*
X110617D01*
X109517Y210765D01*
Y212231D01*
X46332Y24750D02*
X45966Y24383D01*
X45233D01*
X44866Y24750D01*
Y26216D01*
X45233Y26583D01*
X45966D01*
X46332Y26216D01*
X48532Y26583D02*
X47065D01*
X48532Y25117D01*
Y24750D01*
X48165Y24383D01*
X47432D01*
X47065Y24750D01*
X50731Y24383D02*
X49265D01*
Y25483D01*
X49998Y25117D01*
X50364D01*
X50731Y25483D01*
Y26216D01*
X50364Y26583D01*
X49631D01*
X49265Y26216D01*
X46332Y37750D02*
X45966Y37383D01*
X45233D01*
X44866Y37750D01*
Y39216D01*
X45233Y39583D01*
X45966D01*
X46332Y39216D01*
X48532Y39583D02*
X47065D01*
X48532Y38116D01*
Y37750D01*
X48165Y37383D01*
X47432D01*
X47065Y37750D01*
X50731Y37383D02*
X49998Y37750D01*
X49265Y38483D01*
Y39216D01*
X49631Y39583D01*
X50364D01*
X50731Y39216D01*
Y38850D01*
X50364Y38483D01*
X49265D01*
X46332Y50750D02*
X45966Y50383D01*
X45233D01*
X44866Y50750D01*
Y52216D01*
X45233Y52583D01*
X45966D01*
X46332Y52216D01*
X48532Y52583D02*
X47065D01*
X48532Y51117D01*
Y50750D01*
X48165Y50383D01*
X47432D01*
X47065Y50750D01*
X49265Y50383D02*
X50731D01*
Y50750D01*
X49265Y52216D01*
Y52583D01*
X33083Y220634D02*
X30883D01*
Y219534D01*
X31250Y219168D01*
X31983D01*
X32350Y219534D01*
Y220634D01*
Y219901D02*
X33083Y219168D01*
Y216968D02*
Y218435D01*
X31617Y216968D01*
X31250D01*
X30883Y217335D01*
Y218068D01*
X31250Y218435D01*
Y216235D02*
X30883Y215869D01*
Y215136D01*
X31250Y214769D01*
X32716D01*
X33083Y215136D01*
Y215869D01*
X32716Y216235D01*
X31250D01*
X23917Y212366D02*
X26117D01*
Y213466D01*
X25750Y213832D01*
X25017D01*
X24650Y213466D01*
Y212366D01*
Y213099D02*
X23917Y213832D01*
Y216032D02*
Y214565D01*
X25383Y216032D01*
X25750D01*
X26117Y215665D01*
Y214932D01*
X25750Y214565D01*
X23917Y218231D02*
Y216765D01*
X25383Y218231D01*
X25750D01*
X26117Y217864D01*
Y217131D01*
X25750Y216765D01*
X44866Y59083D02*
Y56883D01*
X45966D01*
X46332Y57250D01*
Y57983D01*
X45966Y58350D01*
X44866D01*
X45599D02*
X46332Y59083D01*
X48532D02*
X47065D01*
X48532Y57617D01*
Y57250D01*
X48165Y56883D01*
X47432D01*
X47065Y57250D01*
X50731Y56883D02*
X49265D01*
Y57983D01*
X49998Y57617D01*
X50364D01*
X50731Y57983D01*
Y58716D01*
X50364Y59083D01*
X49631D01*
X49265Y58716D01*
X44866Y46083D02*
Y43883D01*
X45966D01*
X46332Y44250D01*
Y44983D01*
X45966Y45350D01*
X44866D01*
X45599D02*
X46332Y46083D01*
X48532D02*
X47065D01*
X48532Y44616D01*
Y44250D01*
X48165Y43883D01*
X47432D01*
X47065Y44250D01*
X50731Y43883D02*
X49998Y44250D01*
X49265Y44983D01*
Y45716D01*
X49631Y46083D01*
X50364D01*
X50731Y45716D01*
Y45350D01*
X50364Y44983D01*
X49265D01*
X44866Y33083D02*
Y30883D01*
X45966D01*
X46332Y31250D01*
Y31983D01*
X45966Y32350D01*
X44866D01*
X45599D02*
X46332Y33083D01*
X48532D02*
X47065D01*
X48532Y31617D01*
Y31250D01*
X48165Y30883D01*
X47432D01*
X47065Y31250D01*
X49265Y30883D02*
X50731D01*
Y31250D01*
X49265Y32716D01*
Y33083D01*
X46332Y84250D02*
X45966Y83883D01*
X45233D01*
X44866Y84250D01*
Y85716D01*
X45233Y86083D01*
X45966D01*
X46332Y85716D01*
X47065Y84250D02*
X47432Y83883D01*
X48165D01*
X48532Y84250D01*
Y84617D01*
X48165Y84983D01*
X47798D01*
X48165D01*
X48532Y85350D01*
Y85716D01*
X48165Y86083D01*
X47432D01*
X47065Y85716D01*
X50364Y86083D02*
Y83883D01*
X49265Y84983D01*
X50731D01*
X46332Y74250D02*
X45966Y73883D01*
X45233D01*
X44866Y74250D01*
Y75716D01*
X45233Y76083D01*
X45966D01*
X46332Y75716D01*
X47065Y74250D02*
X47432Y73883D01*
X48165D01*
X48532Y74250D01*
Y74616D01*
X48165Y74983D01*
X47798D01*
X48165D01*
X48532Y75350D01*
Y75716D01*
X48165Y76083D01*
X47432D01*
X47065Y75716D01*
X50731Y73883D02*
X49265D01*
Y74983D01*
X49998Y74616D01*
X50364D01*
X50731Y74983D01*
Y75716D01*
X50364Y76083D01*
X49631D01*
X49265Y75716D01*
X46332Y64250D02*
X45966Y63883D01*
X45233D01*
X44866Y64250D01*
Y65716D01*
X45233Y66083D01*
X45966D01*
X46332Y65716D01*
X47065Y64250D02*
X47432Y63883D01*
X48165D01*
X48532Y64250D01*
Y64617D01*
X48165Y64983D01*
X47798D01*
X48165D01*
X48532Y65350D01*
Y65716D01*
X48165Y66083D01*
X47432D01*
X47065Y65716D01*
X50731Y63883D02*
X49998Y64250D01*
X49265Y64983D01*
Y65716D01*
X49631Y66083D01*
X50364D01*
X50731Y65716D01*
Y65350D01*
X50364Y64983D01*
X49265D01*
X133583Y201634D02*
X131383D01*
Y200534D01*
X131750Y200168D01*
X132483D01*
X132850Y200534D01*
Y201634D01*
Y200901D02*
X133583Y200168D01*
X131750Y199435D02*
X131383Y199068D01*
Y198335D01*
X131750Y197968D01*
X132116D01*
X132483Y198335D01*
Y198702D01*
Y198335D01*
X132850Y197968D01*
X133216D01*
X133583Y198335D01*
Y199068D01*
X133216Y199435D01*
X131383Y197235D02*
Y195769D01*
X131750D01*
X133216Y197235D01*
X133583D01*
X126583Y201634D02*
X124383D01*
Y200534D01*
X124750Y200168D01*
X125483D01*
X125850Y200534D01*
Y201634D01*
Y200901D02*
X126583Y200168D01*
X124750Y199435D02*
X124383Y199068D01*
Y198335D01*
X124750Y197968D01*
X125117D01*
X125483Y198335D01*
Y198702D01*
Y198335D01*
X125850Y197968D01*
X126216D01*
X126583Y198335D01*
Y199068D01*
X126216Y199435D01*
X124750Y197235D02*
X124383Y196869D01*
Y196136D01*
X124750Y195769D01*
X125117D01*
X125483Y196136D01*
X125850Y195769D01*
X126216D01*
X126583Y196136D01*
Y196869D01*
X126216Y197235D01*
X125850D01*
X125483Y196869D01*
X125117Y197235D01*
X124750D01*
X125483Y196869D02*
Y196136D01*
X155083Y201634D02*
X152883D01*
Y200534D01*
X153250Y200168D01*
X153983D01*
X154350Y200534D01*
Y201634D01*
Y200901D02*
X155083Y200168D01*
X153250Y199435D02*
X152883Y199068D01*
Y198335D01*
X153250Y197968D01*
X153616D01*
X153983Y198335D01*
Y198702D01*
Y198335D01*
X154350Y197968D01*
X154716D01*
X155083Y198335D01*
Y199068D01*
X154716Y199435D01*
Y197235D02*
X155083Y196869D01*
Y196136D01*
X154716Y195769D01*
X153250D01*
X152883Y196136D01*
Y196869D01*
X153250Y197235D01*
X153616D01*
X153983Y196869D01*
Y195769D01*
X148083Y201634D02*
X145883D01*
Y200534D01*
X146250Y200168D01*
X146983D01*
X147350Y200534D01*
Y201634D01*
Y200901D02*
X148083Y200168D01*
Y198335D02*
X145883D01*
X146983Y199435D01*
Y197968D01*
X146250Y197235D02*
X145883Y196869D01*
Y196136D01*
X146250Y195769D01*
X147716D01*
X148083Y196136D01*
Y196869D01*
X147716Y197235D01*
X146250D01*
X176583Y201634D02*
X174383D01*
Y200534D01*
X174750Y200168D01*
X175483D01*
X175850Y200534D01*
Y201634D01*
Y200901D02*
X176583Y200168D01*
Y198335D02*
X174383D01*
X175483Y199435D01*
Y197968D01*
X176583Y197235D02*
Y196502D01*
Y196869D01*
X174383D01*
X174750Y197235D01*
X169583Y201634D02*
X167383D01*
Y200534D01*
X167750Y200168D01*
X168483D01*
X168850Y200534D01*
Y201634D01*
Y200901D02*
X169583Y200168D01*
Y198335D02*
X167383D01*
X168483Y199435D01*
Y197968D01*
X169583Y195769D02*
Y197235D01*
X168116Y195769D01*
X167750D01*
X167383Y196136D01*
Y196869D01*
X167750Y197235D01*
D73*
X8500Y15000D02*
X41500D01*
X8500D02*
Y125000D01*
X41500Y15000D02*
Y125000D01*
X8500D02*
X41500D01*
X211500Y15000D02*
Y125000D01*
X178500Y15000D02*
Y125000D01*
X211500D01*
X178500Y15000D02*
X211500D01*
M02*
