M48
;Layer_Color=9474304
;FILE_FORMAT=2:5
INCH,LZ
;TYPE=PLATED
T1F00S00C0.01300
T2F00S00C0.01500
T3F00S00C0.04921
%
T01
X0092501Y0075498
X0097501
X0102501
X0107501
X01125Y00755
X0117501Y0075498
X0122501
X0127501
X0132501
Y0079998
Y0084498
X0127501
Y0079998
X0122501
Y0084498
X0117501
Y0079998
X01125Y008
Y00845
X0107501Y0084498
Y0079998
X0102501
Y0084498
X0097501
Y0079998
X0092501
Y0084498
T02
X007Y00035
X00855
X00985
Y00145
X0096Y0012
X00935Y00095
X0101Y0017
X0106Y0021
X01145Y00265
X01245Y00245
X0127Y0027
X01295Y00295
X0132Y0032
X01345Y00345
X0137Y0037
X01395Y00395
X015Y0042
X01575
X01605Y00395
X01645Y0037
X0167Y00345
X01695Y0032
X0172Y00295
X01745Y0027
X0177Y00245
X017Y0017
Y0007
X01685Y00035
X018
X01795Y00095
X0182Y0012
X01845Y00145
X019Y00125
Y00035
X02
Y00125
X021
Y00035
X02Y00225
X01895Y0022
X0187Y00195
X0195Y0035
X02
Y0045
X0195
Y0055
X02
Y0065
X0195Y00675
X021Y006
Y004
X0162Y00445
X01595Y0047
X015Y005
Y00565
X0155Y0065
X01645
X0167Y0075
X016
X015
X014
X0145Y0065
X01365Y0057
X01335Y0058
X01345Y00515
X0122Y00195
X012Y00035
X013
X01425
Y00095
X0145Y0012
X01475Y00145
X0155Y00035
X011
X0089Y0023
X0086Y00255
X008Y0028
X0075Y0023
X00925Y00275
Y00325
X0085Y0075
X00635Y0069
X00495Y00695
X00305Y00705
X003Y0075
X00245Y00658
X0029Y006
X0017Y0061
X00025
X0011Y007
X001Y005
X00125Y004
Y003
X00175
X00325
X00315Y00035
X0005
Y00165
X00075Y0019
X00025Y00215
Y003
X001Y0014
X0053Y00165
X00665Y0019
X00585Y00035
X00575Y0034
X0061Y0047
X00645
X00615Y00535
X00485Y00795
X00305Y008
X003Y0085
X00305Y009
X003Y0095
X00305Y01
X004
Y011
X00475Y0115
X00555Y0116
X0055Y0105
X0065
X006Y0095
X0052Y0127
X0054Y01315
X00535Y0136
X00475Y0135
X00385
X003
X0035Y0128
Y0145
X0045
X00565Y0143
X0059Y0141
X00615Y0143
X0064Y0141
X00625Y0162
X0062421Y0166315
X00625Y01705
Y01745
X0058
Y01705
X0057921Y0166315
X0058Y0162
X00535
X0053421Y0166315
X00535Y01705
Y01745
X0067
Y01705
X0066921Y0166315
X0067Y0162
X00425Y01625
X0035
Y017
X00425
Y01775
X0035
Y0185
X00425
Y01925
X0035
X004Y02045
X00505
Y0215
X004
X00285Y02045
X00215
X0013
Y02135
Y0195
Y0185
Y0175
Y0165
Y0155
X002
X003
X004
X0025Y0145
X0013
X0004Y01285
Y0111
X00085Y01
X0005Y0095
X00085Y009
X00075Y0085
X002Y01105
Y01145
X00035Y0227
X00625Y02045
X007Y0215
X00715Y01745
Y01705
X0071421Y0166315
X00715Y0162
X0072Y0152
Y0146
X00775Y01475
Y0151
X00805Y01495
Y0146
Y0142
X0078Y0144
X0075Y013
X007Y01345
X00885Y01295
X00955Y01235
X00935Y01205
X00805Y0112
X00745Y00995
X007Y0085
X008
X01025Y0106
X01125Y01125
X0124
X0129Y01175
X01315Y012
X0132Y01275
Y0131
X0127Y01355
X0124Y0141
X01215Y0143
X0119Y0141
X01165Y0143
X0114Y0141
X01095Y01355
X0108Y01275
X0112
X0117119
X0123
X01265Y0123
X01375Y01255
X01405Y01245
X01545Y0123
X01615
X01655Y0133
X017Y0141
X01725Y0143
X0175Y0141
X01775Y0143
X01845Y0144
Y0148
X0187Y0146
Y0142
X01845Y014
X0185Y01355
X0182Y01335
X018Y012
X0177Y0115
X01745Y0105
X01675
Y00925
X0172Y0095
X016
X015
X0155Y0085
X0145
X01695
X0195Y008
Y00925
Y0105
X02
X021Y01
Y008
Y012
X02105Y0128
X0202Y01305
X0196
X0195Y01175
X0186Y0151
X01905Y0157
X01885Y0165
X0183421Y0166315
X01835Y01705
Y01745
X0179
Y01705
X0178921Y0166315
X0179Y0162
X01745
X0174421Y0166315
X01745Y01705
Y01745
X017
Y01705
X0169921Y0166315
X017Y0162
X01655
X0165421Y0166315
X01655Y01705
Y01745
X01885
X01835Y0162
X0158Y0157
X0136Y015
Y0146
Y0142
X0133Y0144
X01325Y01475
Y0151
X0127
X01275Y0162
X0127421Y0166315
X01275Y01705
Y01745
X0123
Y01705
X0122921Y0166315
X0123Y0162
X01185
X0118421Y0166315
X01185Y01705
Y01745
X0114
Y01705
X0113921Y0166315
X0114Y0162
X01095
X0109421Y0166315
X01095Y01705
Y01745
X0102Y01565
X01175Y022
X013Y0221
X014
X01525
X01595Y02245
X0171
X01765Y0217
X019Y02245
X02
X021
X0206Y0205
X02165
X021Y0195
X02165Y01805
Y0165
Y0155
X0206Y015
X01925Y0205
X0161Y02065
X0155Y0211
X0134
X01515Y01135
T03
X00625Y02135
X00825
X012702
X014702
X0167019
M30
